<?xml version="1.0" encoding="UTF-8"?>
<svg width="9890px" height="6639px" viewBox="0 0 9890 6639" version="1.1" xmlns="http://www.w3.org/2000/svg" xmlns:xlink="http://www.w3.org/1999/xlink">
    <title>regions</title>
    <g id="regions" stroke="none" stroke-width="1" fill="none" fill-rule="evenodd">
        <path d="M0.90426243,-4.26325641e-13 C26.7838117,-4.26325641e-13 46.2925136,-4.26325641e-13 59.4303681,-4.26325641e-13 C78.2487275,-4.26325641e-13 154.928057,10.8519291 172.829826,14.0905478 C210.656617,20.9317301 276.95958,40.0987551 305.800507,54.2276245 C319.686679,61.0351619 333.388496,68.3925864 346.484375,76.5997556 C385.678411,101.169144 428.089449,113.253206 474.42215,113.426686 C543.455206,113.687116 612.495146,116.098012 681.510461,115.451952 C719.583893,115.095913 753.855077,123.744386 785.190541,144.978969 C810.465453,162.107809 838.27265,170.25953 868.902912,168.936475 C892.810108,167.901038 916.856201,168.585428 940.633184,166.304782 C974.294068,163.075802 1004.80444,171.57175 1033.99341,186.969105 C1053.90524,197.471666 1073.58808,208.250115 1094.91382,215.947683 C1108.20192,220.744949 1121.30018,225.249848 1135.30124,227.710548 C1154.67217,231.120169 1173.73787,236.194439 1193.00057,240.248665 C1202.57217,242.264569 1212.2475,244.640492 1221.94866,245.037239 C1254.50523,246.368771 1286.13763,253.172996 1317.67672,260.382548 C1334.87955,264.311812 1360.98503,274.468801 1395.99314,290.853516 C1407.68176,284.118015 1415.76045,277.355645 1420.2292,270.566406 C1426.93232,260.382548 1435.47529,254.021354 1451.79951,249.529297 C1468.12373,245.037239 1500.20966,239.78125 1515.54951,230.941406 C1530.88935,222.101563 1579.25263,199.554688 1584.84834,190.65625 C1590.44404,181.757813 1602.05537,165.080078 1618.92451,161.341797 C1635.79365,157.603516 1647.29365,146.776828 1659.66865,145.877898 C1672.04365,144.978969 1716.01826,133.581126 1724.75263,123.503906 C1733.48701,113.426686 1732.20966,112.892432 1755.96357,94.7460938 C1779.71748,76.5997556 1797.8874,70.0380005 1814.84052,62.1328125 C1831.79365,54.2276245 1827.61396,59.8712646 1842.30927,54.2276245 C1857.00459,48.5839844 1883.69404,35.2207031 1892.86787,39.3222656 C1902.0417,43.4238281 1902.4167,42.4103271 1902.2292,54.2276245 C1902.0417,66.0449219 1912.14912,70.4863281 1923.86201,70.4863281 C1935.5749,70.4863281 1945.79365,77.4003906 1954.86006,67.65625 C1963.92646,57.9121094 1982.15888,54.2276245 1998.07881,54.2276245 C2013.99873,54.2276245 2033.00459,53.7792969 2048.08857,62.1328125 C2063.17256,70.4863281 2086.51435,76.4003906 2090.57295,91.2539063 C2094.63154,106.107422 2101.58271,110.938508 2090.57295,128.408203 C2079.56318,145.877898 2086.2624,153.747118 2080.90107,161.341797 C2061.2876,189.12558 2007.03758,227.318709 2038.57293,214.584971 C2048.18316,210.704433 2073.83299,213.879627 2076.36953,203.436164 C2082.87897,176.67915 2100.67114,163.572865 2126.61644,158.750319 C2136.25975,156.957679 2145.57247,153.366585 2155.02776,150.584741 C2169.06066,146.457692 2180.43977,138.7762 2188.21993,126.112662 C2192.64342,118.913414 2196.97361,111.627849 2201.92401,104.796589 C2208.12934,96.232014 2210.02734,87.4331919 2207.3782,76.978676 C2206.08888,71.8757054 2206.37787,65.7048923 2207.99503,60.674313 C2211.54583,49.6198033 2217.84199,40.4446725 2230.20715,37.3462096 C2235.66568,35.9744914 2241.84796,35.4384709 2246.29891,32.4419481 C2265.71552,19.3498394 2291.76778,16.4393485 2310.23975,12.1841838 C2325.89814,8.57714844 2342.59561,4.70616679 2385.7458,-4.26325641e-13 C2385.7458,-4.26325641e-13 1705.73506,-4.26325641e-13 345.713571,-4.26325641e-13 L0.90426243,-4.26325641e-13 Z" id="Path" fill="#1D1D1B"></path>
        <path d="M898.245832,1234.1527 C897.318463,1240.97204 893.681019,1250.04492 896.986549,1258.05469 C900.292079,1266.06445 908.53728,1271.74424 915.098469,1280.69811 C919.340266,1286.48095 920.353785,1293.3044 918.565964,1300.74468 C914.963852,1315.71907 912.048571,1330.86191 908.12938,1349.34771 C903.972542,1352.44513 897.302673,1357.41451 891.437495,1361.78384 C893.394807,1366.76439 893.773198,1369.94414 895.530654,1371.86192 C910.632253,1388.32056 914.567833,1405.67786 901.416888,1425.33572 C899.246767,1428.57446 898.514065,1433.17242 898.34644,1437.19388 C898.249572,1439.47597 900.112152,1442.57462 902.048794,1444.04508 C905.297743,1446.51455 909.206456,1449.31469 913.021573,1449.61304 C925.628969,1450.59947 938.320178,1450.80001 950.974554,1450.81211 C978.54477,1450.84751 1002.92657,1462.05173 1027.42096,1472.60283 C1033.92896,1475.40428 1038.55545,1481.19475 1040.30869,1488.49492 C1042.93243,1499.41094 1044.62295,1510.46843 1053.65621,1518.81543 C1062.43495,1526.93362 1064.74157,1537.93665 1065.23827,1549.60362 C1065.76384,1561.8822 1060.08828,1570.97725 1052.44854,1579.79864 C1046.92926,1586.17177 1046.52754,1589.58412 1052.10689,1593.96355 C1066.39494,1605.17801 1064.98424,1617.41404 1056.7514,1631.00134 C1056.04435,1632.17084 1055.90293,1633.67874 1055.49358,1635.02611 C1059.61905,1643.85185 1063.74451,1652.67759 1067.86994,1661.5076 C1081.9753,1667.69288 1090.52983,1682.39714 1106.31829,1686.28424 C1110.02547,1687.193 1113.08763,1690.98187 1116.28791,1693.63902 C1119.98481,1696.70665 1119.74439,1705.63964 1115.82125,1708.90155 C1112.63021,1711.55423 1109.49907,1714.69053 1105.77475,1716.23556 C1090.17811,1722.7003 1074.33861,1728.5815 1058.64147,1734.80596 C1045.05501,1740.1938 1034.45303,1748.96369 1028.12741,1762.49496 C1034.52026,1769.67317 1041.55605,1775.68132 1043.65525,1786.4474 C1046.56045,1801.36314 1047.80637,1801.15171 1063.3516,1802.53572 C1067.54227,1802.91003 1071.82879,1802.58832 1075.94815,1803.29547 C1088.90821,1805.51195 1096.5139,1818.22853 1093.49383,1832.15203 C1092.05508,1838.78308 1084.82528,1845.20968 1078.61026,1845.08704 C1074.39999,1844.999 1070.19256,1844.58607 1066.00238,1844.15618 C1034.09107,1840.89791 1008.03299,1851.78593 987.808586,1876.61058 C987.086929,1877.49352 987.185412,1879.4353 987.554905,1880.69542 C987.853777,1881.7198 989.076969,1883.13272 989.982637,1883.20903 C996.890721,1883.76524 1004.0466,1885.31972 1010.70037,1884.15509 C1030.1094,1880.75043 1049.27391,1875.97131 1068.6261,1872.21987 C1080.98942,1869.82252 1091.29653,1874.75623 1097.67509,1885.04236 C1102.76364,1893.24378 1106.21712,1902.64935 1109.20163,1911.90547 C1111.41593,1918.7907 1109.67205,1926.09456 1105.3922,1932.02107 C1100.46321,1938.84824 1095.0495,1945.37192 1089.39455,1951.61561 C1075.5033,1966.94482 1059.37446,1971.19893 1039.89921,1962.10671 C1028.45422,1956.76121 1016.0899,1953.39563 1004.49279,1948.33523 C994.978317,1944.18225 985.632211,1943.2713 975.715914,1945.97217 C958.068822,1950.78163 940.197082,1954.87945 922.791477,1960.43063 C912.009446,1963.86782 902.329591,1969.35815 900.292079,1982.87554 C899.511592,1988.05022 895.025844,1992.5855 892.737272,1997.64015 C891.063316,2001.34066 888.247126,2006.10854 889.327263,2009.21746 C897.426537,2032.48945 881.336873,2046.46135 869.173867,2061.17719 C860.290343,2071.92438 848.584496,2080.30415 838.465351,2090.08291 C836.766627,2091.72258 836.749943,2095.10408 835.689564,2098.54916 C846.442434,2100.41292 857.110852,2102.15623 867.729972,2104.1599 C871.870072,2104.93991 875.950944,2106.13837 879.953825,2107.45585 C883.96098,2108.77337 887.801327,2110.58963 891.782087,2111.99242 C903.217228,2116.01681 911.652595,2123.31117 913.54671,2135.53329 C914.906578,2144.30924 917.013992,2151.68519 924.803808,2157.02017 C928.093133,2159.27196 932.114811,2163.33426 932.298633,2166.76455 C933.040571,2180.70378 947.93765,2186.30599 950.113389,2199.56943 C951.432688,2207.60543 956.254101,2215.06491 959.55024,2222.9044 C960.427268,2230.67147 954.204556,2235.34977 951.50824,2241.56798 C948.838058,2247.73084 948.671669,2255.03991 947.803811,2261.89825 C947.041512,2267.92813 949.240885,2273.09462 954.601141,2276.12546 C971.741118,2285.82575 988.61942,2296.11801 1006.36014,2304.58374 C1021.59325,2311.85193 1037.96645,2316.33838 1055.19012,2316.93758 C1063.57973,2317.22883 1072.08552,2317.92296 1080.26992,2319.68307 C1099.87747,2323.90276 1100.29375,2324.20993 1106.2142,2305.66892 C1109.39183,2295.73552 1115.14793,2288.18879 1123.38985,2282.37809 C1144.06335,2267.81774 1165.16751,2253.87678 1183.83805,2236.62697 C1188.09621,2232.69678 1194.2928,2232.48153 1199.8922,2234.07372 C1203.89664,2235.21166 1207.75807,2237.0623 1211.4647,2239.0142 C1225.82736,2246.57832 1240.63705,2248.47748 1256.3802,2243.83952 C1261.72934,2242.26591 1267.51004,2242.1881 1273.05903,2241.22759 C1280.51762,2239.93745 1286.43117,2235.41464 1285.58913,2231.96578 C1284.1197,2225.94635 1279.25372,2223.10366 1274.42264,2220.67168 C1269.44264,2218.15718 1263.90554,2216.77501 1258.7996,2214.48599 C1254.984,2212.77255 1251.05036,2210.86997 1247.98754,2208.13707 C1246.26947,2206.60439 1245.32135,2203.06483 1245.68412,2200.68673 C1246.03766,2198.38551 1248.26147,2194.87363 1250.11107,2194.56058 C1258.34854,2193.17891 1266.73379,2192.49966 1275.09145,2192.04248 C1284.81784,2191.50746 1294.57406,2191.4729 1306.30352,2191.16484 C1303.49861,2185.82206 1302.54017,2180.52532 1299.79312,2179.32995 C1283.05966,2172.03585 1265.86363,2165.81933 1248.96006,2158.91278 C1243.71178,2156.76787 1239.70117,2152.9066 1237.00291,2147.5904 C1234.72924,2143.09874 1236.27451,2134.54908 1240.60483,2132.63739 C1245.70769,2130.38189 1250.82004,2127.52794 1256.20134,2126.67712 C1265.89367,2125.14569 1275.78891,2124.36846 1285.60985,2124.26606 C1299.68065,2124.1238 1309.50465,2116.8135 1317.64838,2106.57715 C1321.20582,2102.11072 1323.1835,2096.42919 1321.38646,2090.71899 C1316.33671,2074.64306 1310.74683,2058.73342 1305.56846,2042.69912 C1303.07911,2034.99921 1309.93158,2024.78152 1318.43537,2024.23583 C1333.86028,2023.2418 1349.34553,2023.17173 1364.77453,2022.19911 C1368.81251,2021.94364 1372.80985,2019.97774 1376.67952,2018.43398 C1380.4548,2016.92787 1382.55492,2005.54434 1379.31622,2003.36994 C1361.97097,1991.71838 1346.25565,1977.4903 1326.3792,1969.79255 C1321.21518,1967.78946 1316.2873,1965.18136 1311.34376,1962.89803 C1308.30644,1955.77476 1306.26711,1948.92525 1302.70211,1942.99014 C1282.94283,1910.10843 1289.5561,1913.09463 1313.27375,1890.6689 C1313.92689,1880.49116 1314.63065,1869.41181 1315.39815,1857.39675 C1311.0954,1853.69966 1307.08836,1849.91965 1302.73103,1846.5983 C1295.81718,1841.31371 1291.25239,1834.33101 1287.28242,1826.79346 C1280.80587,1814.50997 1280.75225,1799.58918 1271.50389,1788.45718 C1273.54346,1784.99072 1274.82714,1780.45315 1277.82104,1778.34597 C1280.99992,1776.10788 1285.81264,1776.23538 1289.89135,1775.23211 C1298.06167,1773.21713 1306.30279,1771.41653 1314.35681,1769.0115 C1324.9655,1765.84213 1327.50085,1757.49348 1320.29038,1750.43639 C1316.26759,1746.50234 1312.46564,1742.2453 1307.99754,1738.88023 C1296.71684,1730.38536 1285.30751,1722.42377 1279.61118,1708.4242 C1276.89482,1701.75262 1269.7397,1698.64199 1263.13188,1696.01067 C1252.47254,1691.75792 1242.79374,1685.85923 1236.03001,1676.60006 C1232.90795,1672.32757 1230.15742,1666.14306 1230.67947,1661.18843 C1231.85335,1650.126 1235.18851,1639.28764 1237.58153,1628.63344 C1247.01565,1617.98939 1260.89516,1619.19213 1272.44026,1614.53463 C1277.85027,1612.35448 1283.82471,1608.6915 1283.8974,1603.30116 C1284.08977,1589.09647 1293.19363,1583.96449 1304.05472,1579.3053 C1313.09208,1575.42536 1321.95388,1571.08646 1330.67227,1566.52399 C1339.42502,1561.94472 1341.84904,1548.71714 1334.98293,1540.90208 C1326.6648,1531.44123 1318.24489,1521.88544 1308.68817,1513.75618 C1295.57097,1502.60324 1286.26541,1488.71753 1277.10305,1474.58939 C1273.88864,1469.63207 1279.03116,1458.91209 1285.31755,1457.71433 C1292.15206,1456.41447 1299.15414,1455.99676 1305.93287,1455.20944 C1308.82256,1448.87749 1303.98881,1444.791 1301.95411,1439.86108 C1297.18981,1428.30649 1297.74123,1425.86591 1306.51092,1417.87521 C1308.56647,1416.0078 1311.10892,1414.68331 1313.21536,1412.86337 C1314.12425,1412.0804 1314.49134,1410.67708 1315.11691,1409.53679 C1305.24419,1402.34531 1304.41293,1390.80367 1300.78318,1379.06232 C1295.92457,1378.31452 1290.37881,1377.92411 1285.09397,1376.53986 C1276.95556,1374.40821 1268.94143,1371.7518 1260.97058,1369.03591 C1247.10468,1364.31483 1242.49526,1347.25946 1228.14147,1343.57726 C1215.44705,1340.31568 1205.04084,1334.00023 1195.31277,1325.42059 C1187.24774,1318.30901 1183.24852,1310.69425 1184.43466,1299.69606 C1185.33212,1291.4058 1179.72729,1287.49641 1171.85789,1285.89295 C1167.87625,1285.08013 1163.51262,1283.46024 1160.58162,1280.80971 C1155.28792,1276.0309 1151.6642,1269.96703 1153.45976,1262.12922 C1154.92627,1255.74638 1161.70602,1249.45265 1168.07039,1248.62751 C1174.43476,1247.80236 1169.66505,1247.00547 1175.38613,1244.09766 C1191.72351,1239.34766 1199.8922,1232.17839 1199.8922,1222.58984 C1199.8922,1208.20703 1263.84898,1219.00784 1265.50749,1213.64844 C1268.13362,1205.18516 1282.95215,1195.92188 1282.95215,1183.33754 C1282.95215,1170.7532 1273.12742,1124.29061 1277.14298,1114.84761 C1279.58733,1109.08893 1276.35493,1102.7634 1270.81477,1101.73177 C1258.18942,1099.37285 1246.73414,1095.2072 1236.04026,1087.56394 C1230.81864,1083.83318 1222.86757,1083.25933 1216.02435,1082.61818 C1202.02181,1081.30749 1187.92492,1081.00919 1173.88044,1080.09572 C1169.15054,1079.7851 1162.47078,1074.13062 1161.73873,1069.83625 C1160.76681,1064.1247 1161.32914,1058.47356 1165.65073,1054.13351 C1168.59649,1051.17515 1171.74829,1048.12027 1175.38613,1046.19827 C1195.31486,1035.65862 1215.29838,1025.20924 1238.50459,1023.66749 C1242.6325,1023.3957 1246.70736,1021.85373 1250.7405,1020.68333 C1260.15267,1017.94386 1263.25416,1009.3864 1257.70556,1001.4845 C1254.4921,996.907685 1250.54808,992.764834 1247.87571,987.910579 C1242.92643,978.936572 1246.55526,966.779751 1255.3829,962.436271 C1264.12036,958.13903 1273.27791,954.691937 1281.94798,950.278679 C1283.2148,949.631359 1283.90761,944.216499 1282.95215,943.477108 C1277.45722,939.222394 1271.38724,935.70654 1265.50749,931.948662 C1252.03469,923.332064 1251.87473,911.779178 1265.20319,902.152397 C1268.61061,899.689714 1272.2841,897.601291 1276.62612,894.838952 C1274.60659,889.63983 1272.04671,884.632651 1270.72926,879.324227 C1268.27187,869.43143 1274.67737,858.504437 1284.10012,856.021571 C1303.34419,850.943886 1323.03819,847.216805 1342.40052,853.571938 C1359.17522,859.079383 1372.72443,854.041778 1385.93344,844.875673 C1389.37011,842.490198 1392.47329,839.618718 1395.66917,836.901954 C1399.5025,833.643532 1399.52784,824.370925 1395.48519,821.732071 C1390.81765,818.685898 1385.53112,816.515008 1381.10554,813.17596 C1374.42037,808.14133 1367.9436,802.740855 1361.94514,796.908487 C1356.62919,791.74045 1357.34457,782.268658 1362.91042,778.396906 C1366.35999,776.002992 1370.20227,774.168277 1373.89241,772.131302 C1388.63138,764.008863 1388.2107,742.650753 1375.27408,732.850338 C1366.32546,726.073065 1356.45544,720.531823 1347.38577,713.907399 C1342.94227,710.662249 1339.08423,706.464572 1335.49146,702.243559 C1331.27658,697.294614 1334.56156,686.327563 1340.47647,684.587888 C1344.50117,683.40459 1348.53054,681.686937 1352.63692,681.432062 C1362.4623,680.820955 1372.37173,681.356325 1382.18128,680.599725 C1389.13308,680.066145 1395.98931,678.236356 1402.87136,676.877061 C1406.19036,676.217724 1409.75649,670.755261 1408.85618,667.126341 C1407.85677,663.094691 1405.87195,659.306677 1404.87686,655.270789 C1402.98565,647.614569 1405.5042,640.21059 1411.56919,636.950267 C1421.45698,631.637026 1431.3631,626.182865 1441.79543,622.156925 C1446.69416,620.267301 1453.20548,620.238622 1458.3316,621.68561 C1472.86135,625.77976 1483.13689,624.043939 1487.16182,607.15797 C1488.86607,599.986294 1495.64407,596.343154 1501.96231,592.965336 C1514.30665,586.373884 1527.40827,581.187018 1537.2252,570.27697 C1540.65723,566.46355 1546.72373,564.498615 1551.95715,562.958201 C1560.0195,560.578891 1568.45531,559.49394 1576.64265,557.487661 C1587.79048,554.754789 1598.17242,550.134161 1605.5494,541.049691 C1613.73886,530.963373 1624.45141,525.199887 1635.41063,518.604896 C1652.19764,508.495279 1666.59822,494.568491 1671.70005,473.814347 C1674.6388,461.860987 1683.44098,455.04624 1694.68992,451.014601 C1702.64526,448.159814 1710.65527,445.408109 1718.39704,442.042715 C1723.52531,439.813082 1729.2269,437.532876 1732.91632,433.619097 C1744.77865,421.025385 1757.11363,410.60758 1775.8435,410.074181 C1780.6072,409.940472 1786.60977,405.503935 1789.65611,401.306659 C1801.75483,384.649329 1818.61483,379.892853 1837.80314,379.735394 C1839.20978,379.722019 1840.6216,379.606085 1842.02059,379.490039 C1874.5874,376.708953 1883.04409,382.049754 1883.31654,338.582277 C1883.47266,313.834722 1895.56473,301.858637 1920.56835,294.227642 C1931.28053,290.956572 1941.66008,286.609535 1952.23934,282.892688 C1963.42322,278.96736 1971.68903,272.378791 1976.11653,260.801812 C1983.44911,241.61902 1999.63766,233.462204 2018.38516,229.927795 C2030.0455,227.729509 2015.15868,233.782464 2013.2497,222.071289 C2012.50101,217.47819 2014.21283,212.355469 2018.38516,206.703125 C2024.64367,198.224609 2035.21748,184.563477 2042.96259,175.854492 C2050.70771,167.145508 2067.63838,139.225586 2071.404,132.887695 C2075.16963,126.549805 2077.71374,112.543945 2077.71374,103.50885 C2077.71374,94.4736328 2050.8249,81.7148438 2044.61299,76.7851562 C2038.40107,71.8554687 2008.30244,71.7880859 1995.98994,69.3095703 C1983.67744,66.8310547 1968.06416,83.1308594 1956.74482,85.2197266 C1945.42549,87.3085937 1934.53291,85.2197266 1918.70674,85.2197266 C1902.88056,85.2197266 1894.7292,78.046875 1889.65888,74.2626953 C1884.58857,70.4785156 1886.11494,62.6630859 1881.10127,58.8242188 C1876.08759,54.9853516 1853.34638,68.2695313 1843.20771,71.7880859 C1833.06904,75.3066406 1802.58662,84.9443359 1792.08369,90.4755859 C1781.58076,96.0068359 1767.53779,108.770508 1758.25459,115.765625 C1748.97138,122.760742 1731.44111,145.426758 1724.29756,148.487305 C1717.154,151.547852 1674.95283,161.848633 1662.08271,164.587891 C1649.21259,167.327148 1623.20966,179.241211 1613.11103,184.563477 C1603.0124,189.885742 1601.13545,204.392578 1592.75361,212.710938 C1584.37177,221.029297 1563.66084,229.876953 1526.31806,246.256836 C1488.97529,262.636719 1513.81709,283.166016 1486.89228,297.460938 C1468.94241,306.990885 1457.40335,315.859049 1452.27509,324.06543 C1460.63854,332.252675 1431.48081,337.379545 1423.10097,344.78795 C1420.99419,346.646361 1418.64187,348.229019 1416.50967,350.061557 C1410.10861,355.580508 1403.80918,361.2115 1397.38274,366.700304 C1387.32523,375.295389 1380.38815,385.409737 1380.57031,399.318431 C1380.60594,402.093323 1379.96143,404.913581 1379.36893,407.653065 C1377.76991,415.013766 1373.54969,420.474796 1366.50646,423.157985 C1359.94369,425.652985 1353.20473,427.761683 1346.42957,429.609279 C1330.92936,433.843227 1318.05736,441.622846 1309.13448,455.40933 C1303.40113,464.268735 1294.26249,467.998153 1284.5234,470.478259 C1273.61035,473.251657 1262.51039,475.399249 1251.80969,478.824325 C1246.49364,480.526474 1242.38602,484.842743 1242.16274,491.321941 C1241.836,500.839877 1236.75604,506.840625 1228.28014,510.558726 C1214.20372,516.733198 1201.39766,525.774565 1185.21342,527.069782 C1180.16519,527.474619 1174.77495,531.309427 1170.70359,534.899234 C1152.36299,551.083126 1132.03428,562.876176 1107.51197,566.79198 C1096.14129,568.608022 1086.50376,574.6374 1077.18757,581.075722 C1071.39824,585.082329 1064.93889,588.46319 1060.08192,593.405643 C1047.59874,606.109367 1032.50247,613.044468 1015.1788,614.594801 C1001.70578,615.802525 991.374803,621.441086 982.048555,630.991638 C973.17523,640.080151 962.471234,646.822724 950.239704,651.264754 C943.750835,653.619319 937.751325,657.705319 932.055664,661.755495 C926.174991,665.940862 921.823135,671.789783 922.055894,679.410154 C922.401467,690.759452 921.976988,701.678788 916.788416,712.287214 C915.291049,715.347989 917.016288,720.467589 918.299624,724.296509 C920.062218,729.54469 922.811008,734.459465 925.332546,739.940853 C921.185998,749.207421 916.492622,757.939096 913.325161,767.197108 C908.951492,779.954501 899.301036,787.954616 889.873229,796.405566 C887.137108,798.857007 888.341047,804.925419 892.253283,806.832082 C905.211793,813.144156 916.080183,821.366087 922.864234,834.66547 C925.314719,839.470762 929.513814,843.778294 933.819363,847.154771 C943.793432,854.979858 945.715055,866.009447 946.604204,877.286535 C947.543404,889.196785 943.50577,899.699825 933.657136,906.89448 C920.035183,916.839336 906.445788,926.972583 891.980544,935.571954 C881.894452,941.563216 875.144879,950.276947 867.41293,958.396408 C861.337851,964.773237 857.319215,971.629729 856.625445,980.584416 C856.182245,986.300716 853.568338,991.403825 849.05057,995.19922 C842.17277,1000.97052 838.987413,1008.36013 838.178857,1017.24114 C837.805443,1021.32921 836.188275,1025.38078 834.692146,1029.27949 C826.870079,1049.68499 826.562685,1050.12692 841.73371,1058.63008 C857.661999,1067.55882 874.198279,1075.4027 890.378389,1083.88902 C898.315184,1088.05816 901.312014,1099.33227 896.986549,1109.99526 C896.235086,1111.84412 899.536386,1179.54394 898.34644,1183.33754 C892.265854,1202.72273 898.592842,1231.62055 898.245832,1234.1527 Z" id="Path" fill="#1D1D1B"></path>
        <path d="M882.77247,1164.53758 C879.048856,1155.2237 882.934059,1096.28188 871.910621,1094.06947 C850.320331,1089.7427 834.55314,1075.09092 817.018335,1063.60444 C813.587866,1061.35997 810.655099,1057.93135 808.368206,1054.46561 C805.224824,1049.69702 803.112866,1043.82162 806.078764,1038.55485 C812.983271,1026.29409 817.67927,1013.34285 822.433228,1000.1185 C828.03721,984.528865 840.345164,971.819336 845.160667,955.461836 C857.160988,943.711535 866.141949,929.147478 881.264152,920.220378 C895.741773,911.672417 909.196015,901.349883 922.860119,891.473797 C928.083123,887.697382 930.044123,872.170003 925.0873,867.979838 C914.146679,858.726962 907.18089,846.65724 898.839282,835.477571 C895.699564,831.269062 889.931132,828.961436 885.228604,826.004736 C881.686803,823.780669 877.754931,822.164546 874.308295,819.813054 C866.679767,814.61201 863.885392,801.693733 868.598538,793.146062 C870.596748,789.521062 872.668839,785.268257 875.91113,783.111944 C888.334217,774.845314 894.720611,762.678357 899.868489,749.384774 C902.610777,742.30766 902.171153,735.856878 898.153528,729.370597 C893.377064,721.659271 892.311078,713.009864 896.905841,705.290542 C902.329334,696.176198 902.775253,686.719154 902.190691,676.7914 C901.550586,665.879874 907.046012,657.830673 914.963919,651.427175 C920.388863,647.045449 926.273661,642.877219 932.587315,640.025207 C948.107501,633.012578 962.678929,624.98273 974.630728,612.424 C982.569847,604.079763 992.730244,599.371699 1004.41859,597.896166 C1022.9376,595.561084 1038.7419,588.32435 1053.39934,575.827708 C1070.43431,561.308287 1089.43411,549.439512 1113.25434,546.612023 C1123.872,545.35373 1135.6676,539.916058 1143.56275,532.69153 C1160.75787,516.96791 1180.4601,507.888396 1202.44749,501.983895 C1210.68361,499.777109 1218.07585,494.822579 1220.70181,485.88903 C1225.23581,470.435407 1236.93723,463.543358 1251.11751,459.674105 C1263.31365,456.347583 1275.67137,453.612444 1283.95714,451.594199 C1297.59547,439.772689 1307.65499,429.96775 1318.82582,421.660266 C1331.17559,412.486663 1348.18953,412.134947 1361.16152,401.226782 C1360.79874,380.091487 1370.88749,363.998039 1387.00828,350.868618 C1392.35174,346.516107 1396.91825,341.053824 1401.10899,335.541234 C1402.38908,333.863716 1402.00425,329.952859 1400.95044,327.746229 C1399.89659,325.543874 1397.28359,323.195382 1394.94984,322.64917 C1382.27853,319.678506 1369.70883,322.210862 1357.33554,324.770584 C1347.48491,326.805099 1338.24753,327.152002 1328.38313,323.906572 C1311.28024,318.285109 1295.22761,322.133746 1279.95284,331.397253 C1267.78981,338.768368 1256.90242,347.420338 1247.16728,357.775328 C1225.56956,380.753955 1199.74656,397.526648 1169.82038,407.32922 C1159.71493,410.639785 1152.80646,416.496321 1147.00524,424.803638 C1145.51597,426.936773 1142.57767,428.06115 1138.86558,430.653705 C1111.57138,427.893166 1084.64584,435.306456 1058.18773,445.494132 C1047.15063,449.745653 1038.99983,456.382252 1033.76988,467.323779 C1027.72553,479.976815 1020.20821,491.915869 1013.87857,504.43816 C1007.17476,517.70534 996.431011,526.063577 983.438462,532.469816 C967.062531,540.543768 950.980727,549.205985 934.755967,557.593343 C931.934453,559.052202 925.987725,556.110295 924.597145,552.323191 C923.645015,549.732684 923.46913,546.862515 922.585696,544.238405 C919.172944,534.085037 913.657296,530.244834 904.095789,532.461429 C895.947962,534.348349 887.745294,536.64093 880.102113,539.977259 C854.331661,551.21835 828.800099,563.008747 802.01745,575.113138 C789.36546,593.933147 775.618126,613.346394 766.96459,635.950614 C762.961528,646.411205 757.355529,656.353338 751.632111,666.03366 C748.121614,671.979702 744.027933,678.617507 738.431243,682.104225 C721.172753,692.842452 709.11188,708.102133 697.425125,724.091857 C694.218933,728.48012 689.413722,731.901068 684.81245,734.977507 C682.795614,736.327958 679.207123,736.514675 676.793982,735.758288 C674.308355,734.979892 671.8479,732.786637 670.30256,730.567168 C662.592695,719.499891 652.011407,719.039885 640.212406,721.437887 C629.73248,723.569515 622.337984,729.272179 618.021099,738.951951 C616.887295,741.502879 615.909981,744.247555 615.535457,746.993216 C613.850303,759.32518 607.12012,767.286652 595.781755,772.258047 C592.236899,773.813196 588.325204,777.233391 586.9951,780.723142 C578.288811,803.493633 561.601831,820.756471 547.990732,840.235035 C529.903232,866.117204 509.805173,888.711328 479.798671,899.389607 C476.252233,909.943961 472.798619,919.169549 470.061425,928.602322 C466.063724,942.36766 465.988383,956.389536 468.704512,970.435773 C470.909341,981.835498 475.630826,991.92761 484.757224,999.399011 C497.835628,1010.09845 510.987451,1020.71302 524.381462,1031.00907 C527.617437,1033.49553 531.772928,1035.45134 535.772481,1036.17027 C554.647683,1039.55847 572.412385,1038.41812 585.449236,1021.54667 C587.165857,1019.32574 588.7947,1016.38582 591.124032,1015.47844 C593.238838,1014.65896 597.414966,1015.2298 598.662464,1016.79685 C602.992779,1022.23417 606.509369,1028.32704 610.202644,1034.25899 C614.064525,1040.46603 619.20101,1045.62395 626.232661,1047.20727 C664.543976,1055.84398 701.142611,1072.61847 741.500426,1071.60689 C744.241417,1071.53676 747.389211,1071.88059 749.651935,1073.21708 C751.71051,1074.4321 753.743428,1077.11754 754.091031,1079.41633 C754.450973,1081.77081 753.526814,1085.77285 751.829561,1086.75415 C739.695157,1093.7835 728.016071,1101.05624 720.349338,1113.45998 C719.278232,1115.1949 715.235101,1116.0403 712.732247,1115.76622 C705.761794,1115.00854 698.91185,1113.17885 691.951214,1112.27589 C684.687401,1111.33182 676.896864,1112.44805 672.537278,1118.20285 C660.392892,1134.21424 642.281607,1143.2264 628.572095,1157.32595 C625.845702,1160.13232 621.505919,1162.63817 617.719778,1162.93859 C593.868982,1164.85948 571.330151,1175.16686 546.927524,1173.697 C543.056275,1173.46229 538.112465,1175.12921 535.195979,1177.67313 C518.390612,1192.33564 496.28651,1200.34677 483.020607,1219.46069 C479.825375,1224.0628 475.253415,1227.69954 472.066695,1232.30601 C464.502417,1243.25709 454.247949,1249.92663 441.62524,1253.6342 C420.001608,1259.98649 398.679721,1267.03399 379.104537,1278.70109 C371.158394,1283.4413 365.162024,1279.81921 360.187346,1268.85703 C358.48433,1265.10995 356.824175,1261.35042 354.761021,1256.74089 C332.262768,1249.66154 309.664157,1242.3248 288.44086,1231.21655 C276.444001,1224.93425 261.837159,1232.61322 259.172163,1246.50989 C254.679953,1269.91141 249.008522,1293.22995 250.998501,1317.49177 C251.794097,1327.24181 251.284525,1337.13436 250.903944,1346.94254 C250.457814,1358.38326 252.18225,1368.98361 257.215336,1379.62139 C268.028737,1402.47244 277.635873,1425.89012 288.495229,1450.82359 C286.652342,1458.69518 283.098802,1468.10373 282.446348,1477.71288 C280.360604,1508.51432 279.244688,1539.38836 277.983539,1570.2483 C277.635823,1578.74002 278.790738,1586.99689 283.482899,1594.57067 C291.720693,1607.84854 296.928066,1622.51931 301.150175,1637.41663 C311.162156,1672.73989 318.864645,1672.40524 291.658022,1706.63845 C282.027213,1718.75572 275.635044,1732.56429 280.431807,1749.7068 C282.583595,1757.38667 279.182697,1766.45026 279.85407,1774.75849 C280.637364,1784.44857 283.119112,1793.99956 284.865027,1803.60827 C297.367884,1818.04345 294.83642,1835.25454 293.181238,1851.99018 C292.356343,1860.2939 289.66439,1868.46162 287.327957,1876.55121 C285.225365,1883.80919 286.47676,1890.31836 289.844349,1896.82889 C294.35563,1905.53402 298.428789,1914.47473 303.021665,1923.13781 C305.747104,1928.27897 310.03298,1931.95026 316.005755,1932.88734 C329.86817,1935.06894 338.405601,1943.89471 344.497585,1955.66609 C348.373849,1963.16435 351.463937,1971.10037 355.718439,1978.3668 C360.676392,1986.83641 366.140828,1995.07531 372.083576,2002.88232 C378.279867,2011.02928 386.717615,2017.07104 397.229135,2016.21796 C412.874451,2014.95224 423.853085,2022.29873 434.617788,2032.11439 C442.986085,2039.74591 452.121943,2046.62314 456.078762,2057.62774 C457.385188,2061.26021 457.542905,2066.21222 456.118754,2069.70115 C454.047975,2074.78335 450.780354,2079.84228 446.784527,2083.5952 C432.08564,2097.4125 419.326261,2111.39209 422.384398,2134.2567 C423.186802,2140.28741 418.407602,2147.58615 414.89283,2153.53216 C410.423418,2161.09439 407.69041,2168.57773 408.899689,2177.46352 C411.576056,2197.04575 402.425897,2206.50378 384.545249,2210.15263 C380.43807,2210.98892 376.41191,2212.33894 372.445226,2213.73223 C365.103649,2216.31021 362.805295,2223.95552 366.798934,2230.74085 C373.383435,2241.92229 381.440727,2251.38941 393.933214,2256.23531 C410.976119,2262.85237 427.975269,2269.58447 445.048769,2276.12483 C462.701745,2282.88829 476.605848,2294.00962 486.99213,2309.95684 C502.411291,2333.62617 514.944517,2358.788 526.206759,2384.58429 C528.30247,2389.38221 528.917735,2395.79177 527.702184,2400.85151 C525.76346,2408.92747 522.491398,2416.94478 518.358407,2424.16793 C513.200924,2433.17344 504.819239,2438.83329 494.033019,2438.34157 C479.999005,2437.69753 465.998026,2436.20729 451.999644,2434.90946 C440.248185,2433.81934 429.399914,2436.02899 420.865548,2444.48773 C418.187521,2447.14061 416.883707,2451.53693 415.836995,2455.37544 C414.883114,2458.8642 418.777763,2463.27595 423.205173,2463.95587 C441.260591,2466.73411 459.329207,2469.46971 477.443555,2471.8637 C484.395492,2472.78368 491.526048,2472.34144 498.477872,2473.27424 C504.32802,2474.05635 508.721102,2477.6901 511.066886,2483.22553 C512.143472,2485.76154 512.961515,2488.53044 513.219853,2491.26025 C514.147745,2501.03709 520.14457,2505.5869 528.824695,2508.83909 C541.271726,2513.50504 553.426565,2513.93175 566.017054,2509.99732 C574.539306,2507.33559 582.453364,2508.72141 590.074462,2513.79413 C597.04104,2518.42507 604.448725,2522.47845 611.966452,2526.16939 C623.936931,2532.04533 635.626917,2532.83137 648.354762,2526.38434 C659.566799,2520.70217 672.232339,2517.96544 684.025201,2513.33148 C690.575858,2510.75514 696.118856,2506.56255 699.933068,2500.10614 C702.736209,2495.3638 706.239379,2490.74727 710.366421,2487.14512 C716.027093,2482.20541 718.986904,2476.65642 719.69375,2469.14258 C720.211883,2463.65779 721.22733,2457.52325 724.139118,2453.06829 C737.4587,2432.70222 743.850863,2409.58662 752.050072,2387.11524 C759.193864,2367.52039 786.027746,2362.28235 800.913425,2377.02904 C802.875887,2378.96999 803.963059,2381.76261 805.735413,2383.93276 C814.652013,2394.86948 827.685268,2395.5561 840.148259,2397.4134 C849.656682,2398.83023 855.364125,2392.45019 861.940374,2386.94132 C875.226361,2375.81359 888.041174,2377.03696 897.424727,2391.78266 C906.108245,2405.42353 917.386264,2415.2052 931.177219,2422.63608 C938.576988,2426.6167 946.052996,2430.67922 953.928945,2433.49261 C969.962161,2439.21589 985.792274,2444.69799 995.717113,2460.12389 C998.867924,2465.0208 1004.6524,2466.46926 1010.3336,2467.5064 C1022.98069,2469.82275 1035.60663,2469.6636 1048.15013,2467.19514 C1057.80719,2465.29574 1067.24458,2462.11615 1076.95739,2460.68751 C1092.82585,2458.3464 1106.68862,2452.64888 1117.92824,2440.86629 C1119.63682,2439.07708 1122.86404,2438.6478 1125.45785,2437.80685 C1128.5961,2436.79538 1131.35229,2437.92242 1132.19995,2441.21742 C1137.8852,2463.34397 1138.601,2485.66657 1132.19297,2507.66194 C1128.58785,2520.04127 1121.25015,2530.50269 1110.12312,2537.71184 C1104.21566,2541.53786 1097.90716,2544.77895 1092.18139,2548.85024 C1075.77419,2560.50651 1057.94869,2567.14418 1037.72468,2569.87908 C1014.14502,2573.0635 990.788391,2578.61404 967.681071,2584.50022 C934.864697,2592.85394 901.911687,2599.71871 868.134337,2603.06638 C844.378094,2605.41988 820.7569,2608.95451 797.71808,2616.29912 C781.049873,2621.61304 766.295031,2628.61525 756.175658,2643.319 C747.602136,2655.77468 735.995736,2656.67806 722.492625,2653.49493 C712.547677,2651.15085 703.994612,2646.56591 696.436302,2640.17699 C678.344697,2624.8893 658.096785,2623.99437 636.793676,2630.84966 C627.451871,2633.8548 618.139639,2637.39032 609.506515,2641.97918 C604.910765,2644.42295 600.17254,2648.98595 598.280163,2653.71059 C590.444332,2673.24383 584.108096,2693.38013 576.319102,2712.93515 C572.302111,2723.03223 573.363583,2732.19889 577.545053,2741.46546 C582.166874,2751.71061 587.132063,2761.80057 591.955585,2771.9577 C596.569282,2781.66411 597.482202,2791.19714 588.425516,2798.76209 C574.898645,2810.05873 573.035161,2825.18937 574.342397,2840.97613 C575.386849,2853.56277 578.737416,2865.94295 579.931524,2878.52663 C581.035519,2890.16898 584.983259,2900.25434 591.659965,2909.68804 C602.179655,2924.55481 612.492847,2939.5694 622.548057,2954.75275 C625.725413,2959.54729 627.022184,2965.26595 623.026646,2970.45533 C611.563333,2985.33546 605.381807,3001.95037 602.888173,3020.70512 C601.437733,3031.61551 596.30968,3042.14751 592.046524,3052.52888 C589.242352,3059.34894 583.391416,3063.55594 575.954981,3064.75649 C569.027961,3065.88026 561.904105,3066.04468 555.101226,3067.6398 C551.177156,3068.55891 547.095841,3070.84044 544.228154,3073.67122 C541.463995,3076.39603 539.432392,3080.41832 538.42869,3084.22729 C537.411678,3088.09171 543.777956,3096.35558 547.647563,3096.77839 C554.579506,3097.54001 561.824376,3099.18504 568.482903,3097.96488 C593.566906,3093.36995 609.028259,3103.87642 617.561829,3126.86149 C619.032176,3130.81602 620.978634,3134.59088 622.594735,3138.49966 C626.580516,3148.145 626.929866,3157.59189 621.057142,3166.74506 C619.540169,3169.11309 618.499405,3171.78026 617.007932,3174.16561 C611.419212,3183.10751 611.312386,3192.40933 613.403988,3202.57682 C619.867455,3233.99582 645.710484,3255.58861 676.380407,3253.15008 C686.18587,3252.37207 696.085199,3252.59527 705.943757,3252.59152 C711.557029,3252.59348 717.198247,3252.82227 722.780908,3253.39256 C728.876101,3254.01862 734.074084,3257.51832 734.74966,3263.38546 C736.243663,3276.38644 746.885915,3281.61806 754.637404,3289.38528 C763.211124,3297.97195 773.850737,3299.58675 785.523735,3300.35982 C802.170145,3301.46273 818.947641,3303.22088 834.973069,3308.36695 C845.618276,3311.7902 855.894324,3316.36452 866.425028,3320.17154 C881.737401,3325.7047 887.636914,3336.01658 884.88732,3353.23859 C884.444212,3356.00503 883.723202,3358.77331 882.77247,3361.41134 C878.382537,3373.5829 883.175837,3383.77396 890.5888,3392.61129 C894.972242,3397.83959 900.832384,3402.37538 906.905492,3405.53215 C919.549664,3412.10226 933.293935,3414.59492 947.671764,3415.03248 C982.829898,3416.10456 1017.91443,3418.26188 1051.63035,3429.79124 C1052.95599,3430.24315 1054.34927,3430.78116 1055.71302,3430.78451 C1061.30045,3430.80762 1067.24237,3431.85131 1072.41144,3430.33598 C1097.14254,3423.07027 1122.50745,3423.51821 1147.83701,3422.62772 C1157.57027,3422.28514 1167.85752,3421.65669 1176.77538,3418.24171 C1187.07452,3414.29156 1195.5122,3404.66485 1205.90702,3401.99808 C1217.75009,3398.95919 1230.94528,3401.66509 1243.38904,3400.33723 C1250.13728,3399.61377 1256.39672,3395.13672 1263.14548,3393.3744 C1270.23277,3391.52098 1277.95436,3392.42629 1282.4329,3398.51473 C1293.78141,3413.93595 1309.3397,3417.74409 1327.10517,3417.00562 C1332.72908,3416.76826 1338.41388,3416.41173 1343.98822,3416.9563 C1348.03335,3417.35071 1354.31158,3418.06815 1355.42728,3420.53183 C1357.97331,3426.14597 1352.99474,3430.32638 1349.14948,3434.46111 C1346.40472,3437.41267 1344.41721,3441.28144 1342.83666,3445.05544 C1340.22123,3451.31283 1344.37952,3460.29704 1350.99382,3462.18453 C1357.66783,3464.08964 1364.67979,3466.45942 1371.42029,3466.13348 C1384.11007,3465.51745 1395.81942,3461.63518 1406.89238,3454.25455 C1430.74971,3438.35822 1458.07882,3431.23916 1486.13367,3427.1789 C1499.50186,3425.24776 1512.58594,3428.92743 1519.98631,3440.18866 C1531.45809,3457.65021 1546.87806,3468.48979 1566.00158,3475.26608 C1568.55876,3476.17335 1570.65593,3478.35489 1572.98503,3479.92282 C1576.95047,3482.59093 1579.59623,3490.98478 1577.2736,3495.04302 C1573.12745,3502.30454 1568.48357,3509.28383 1564.3076,3516.53227 C1561.69431,3521.07533 1566.44817,3528.92754 1571.75912,3528.79006 C1582.97545,3528.49463 1594.24523,3526.97269 1605.3754,3527.73247 C1613.54468,3528.28686 1622.60234,3529.91779 1629.38032,3534.11529 C1648.6385,3546.03578 1665.33128,3560.93077 1676.67963,3581.26842 C1684.57214,3595.41114 1685.78044,3596.5717 1699.36505,3590.90596 C1712.46912,3585.43695 1723.97628,3589.04728 1736.36354,3591.25449 C1747.92275,3593.30911 1758.85917,3591.77572 1766.25324,3580.73337 C1774.60031,3568.26289 1786.15712,3561.28407 1801.36825,3560.29245 C1821.00668,3559.01455 1835.27377,3547.64742 1848.03373,3534.09108 C1852.83654,3528.9857 1856.71924,3523.0087 1860.92824,3517.36374 C1866.21447,3510.2618 1873.15526,3506.08996 1881.84131,3504.25477 C1887.2337,3503.11333 1892.41249,3500.97392 1896.55388,3499.64628 C1906.37308,3484.06778 1915.33864,3469.79857 1924.35948,3455.56405 C1928.88073,3448.42978 1934.08718,3441.65206 1937.85496,3434.14783 C1940.28697,3429.31247 1941.53488,3423.48348 1941.72776,3418.03861 C1941.92558,3412.51683 1940.02044,3406.94676 1939.29965,3401.36139 C1936.76484,3381.72482 1942.96617,3365.28963 1957.67693,3352.07095 C1959.77107,3350.19106 1961.90773,3348.33718 1964.15835,3346.65103 C1977.33092,3336.76211 1982.94152,3322.37385 1987.38608,3307.37261 C1991.39009,3293.86384 1994.47927,3280.83872 1989.50281,3266.16141 C1984.0135,3249.99614 1983.53788,3231.99356 1991.49513,3216.67241 C1997.62179,3204.87513 1998.40803,3192.67213 2001.58718,3180.60543 C2004.34184,3170.15105 2003.45373,3161.20393 1997.53963,3152.56352 C1979.92803,3126.8529 1966.70162,3098.82067 1954.89148,3070.16379 C1948.74153,3055.23683 1936.7203,3047.3383 1922.79485,3046.01118 C1900.49278,3043.88418 1878.28557,3038.72691 1855.57509,3041.2691 C1838.79577,3043.1491 1821.92924,3044.24598 1805.12628,3045.89491 C1792.24705,3047.15484 1787.57409,3053.05654 1789.72934,3065.23818 C1790.45847,3069.37863 1792.11252,3073.34759 1793.01713,3077.46391 C1796.61027,3093.89052 1782.96281,3107.73838 1771.43466,3108.4928 C1749.05427,3109.95198 1727.15795,3117.1783 1704.35384,3113.7943 C1698.41051,3112.91305 1695.35535,3116.16116 1692.82902,3123.4753 C1692.37295,3124.78807 1692.27064,3126.22363 1691.99779,3127.6064 C1688.75937,3144.01614 1678.09149,3151.02836 1662.06351,3151.56396 C1652.22349,3151.89278 1642.38933,3152.52946 1632.55975,3153.13198 C1622.60616,3153.7377 1613.1668,3156.16484 1604.48649,3161.26204 C1602.12733,3162.64798 1598.44528,3169.63566 1599.29218,3172.03714 C1600.22673,3174.68307 1601.45293,3177.2204 1602.49037,3179.83302 C1612.08292,3203.94315 1609.50339,3211.47485 1587.41286,3224.29994 C1577.83069,3229.86381 1566.43771,3232.76555 1559.96504,3242.57186 C1555.22707,3272.08899 1555.2189,3272.04617 1527.92625,3277.92575 C1522.42662,3279.109 1517.00923,3280.66491 1511.58798,3282.17376 C1499.62692,3285.50661 1489.50693,3281.6647 1480.07441,3274.48989 C1470.68006,3267.34961 1467.88316,3255.70103 1461.12628,3247.12594 C1453.56175,3237.53059 1437.3302,3238.36795 1430.62749,3226.03546 C1429.9585,3224.80265 1429.331,3223.22392 1428.23767,3222.6073 C1424.74489,3220.64445 1421.15957,3218.01814 1417.38847,3217.57481 C1411.88339,3216.93252 1406.1448,3218.55403 1400.57752,3218.18053 C1382.24783,3216.94751 1368.01531,3205.7378 1364.36463,3188.06662 C1361.82141,3175.76189 1361.77497,3162.95737 1360.37969,3150.40186 C1358.22756,3131.00377 1362.1806,3114.0274 1378.72205,3101.684 C1379.75052,3100.9149 1380.23876,3099.3459 1380.83973,3098.08569 C1382.88643,3093.80274 1382.06846,3090.04628 1378.69415,3086.75489 C1375.67167,3083.80858 1372.35664,3081.07347 1369.80333,3077.76358 C1365.60568,3072.31032 1366.38235,3063.16398 1371.19571,3058.31947 C1374.14585,3055.34833 1377.00403,3051.15796 1380.62507,3050.18062 C1399.56161,3045.07033 1411.36283,3031.15078 1423.33043,3017.27116 C1425.16161,3015.14956 1427.57294,3013.1741 1428.43256,3010.68919 C1429.17381,3008.54097 1428.38651,3005.67829 1427.67615,3003.30793 C1427.39786,3002.37351 1425.57915,3001.59666 1424.33332,3001.30791 C1405.71862,2996.9729 1387.70811,3002.27511 1370.33119,3006.9886 C1346.53059,3013.44587 1322.84553,3012.05068 1299.03373,3010.48337 C1290.2704,3009.9067 1283.32398,3003.94636 1280.84901,2995.088 C1278.2331,2985.72394 1274.51968,2976.22205 1278.02726,2966.20175 C1281.59171,2956.03232 1275.88267,2949.36882 1268.20752,2945.591 C1252.05687,2937.64788 1237.41719,2926.55433 1219.03955,2922.9781 C1209.4026,2921.1027 1204.48901,2913.42866 1205.00252,2904.55362 C1205.73209,2891.98674 1207.42929,2879.74466 1204.21073,2866.93383 C1201.37657,2855.63549 1205.5296,2844.64609 1214.34592,2836.21118 C1217.39817,2833.29651 1220.56491,2830.48971 1223.83302,2827.82488 C1228.5349,2823.99689 1231.51284,2818.82 1230.44219,2813.15462 C1226.79364,2793.76912 1230.87637,2777.11879 1245.30684,2763.19653 C1247.16077,2761.40859 1248.31723,2758.22086 1248.57555,2755.56397 C1250.11584,2739.74648 1261.17081,2730.99765 1272.57437,2722.47416 C1278.11692,2718.33287 1283.8031,2714.38949 1288.26435,2711.19212 C1289.39829,2706.66607 1290.79892,2703.91226 1290.63396,2701.26022 C1289.88311,2689.32169 1295.02788,2682.75291 1307.01614,2681.20305 C1316.27804,2680.0056 1322.09816,2674.43028 1324.95857,2665.57573 C1330.03794,2649.8447 1340.22756,2638.84813 1355.82123,2633.21274 C1367.33205,2629.05513 1369.49323,2620.47237 1368.08314,2609.61397 C1366.59689,2598.17349 1368.08528,2587.32329 1374.07915,2577.02543 C1377.59039,2570.99389 1379.43403,2564.01582 1382.35001,2557.61142 C1386.7348,2547.98782 1393.80157,2541.62819 1404.82844,2540.99764 C1410.58142,2540.66736 1415.50408,2538.9746 1420.41932,2535.68287 C1436.68731,2524.79064 1453.32252,2514.44029 1469.52611,2504.06907 C1470.99058,2496.45069 1471.51006,2489.34135 1473.95123,2482.96701 C1475.14557,2479.84802 1492.6607,2461.52091 1496.1999,2460.12389 C1501.2676,2458.12353 1501.90306,2460.27985 1504.43808,2455.45733 C1507.73771,2449.18026 1510.73894,2443.29391 1510.13858,2435.66605 C1508.04782,2409.23585 1517.55925,2385.81401 1531.40668,2364.2384 C1536.15682,2356.84107 1539.45687,2350.02534 1540.01258,2341.2148 C1540.71791,2329.9559 1541.09652,2318.90364 1539.8488,2307.56357 C1536.42195,2276.4917 1537.97311,2245.71124 1548.40469,2215.80774 C1551.176,2207.85447 1553.31661,2199.66911 1555.49536,2191.52256 C1561.85937,2167.71414 1557.82645,2147.30352 1537.20547,2131.35249 C1524.99255,2121.90468 1513.92109,2110.98762 1502.19259,2100.89849 C1493.65935,2093.55197 1485.31734,2085.848 1476.04392,2079.54671 C1471.82367,2076.684 1465.5014,2075.62416 1460.24487,2075.89465 C1453.32456,2076.24895 1446.35577,2078.24021 1439.68071,2080.37512 C1418.06929,2087.28757 1396.23295,2091.56027 1373.32681,2090.06927 C1365.13594,2089.54035 1356.78679,2091.47254 1349.91502,2092.14362 C1346.85624,2095.8064 1344.4842,2097.68814 1343.36412,2100.13659 C1331.09624,2126.869 1311.2791,2142.25765 1281.03075,2142.43829 C1279.71395,2142.4439 1278.40589,2143.40722 1275.80624,2144.42768 C1277.65034,2147.68434 1278.66125,2152.35737 1281.27983,2153.57727 C1291.4306,2158.30013 1302.23933,2161.60083 1312.52917,2166.06412 C1321.80534,2170.09104 1328.77783,2176.9836 1333.891,2185.79231 C1336.42232,2190.15369 1336.12987,2197.70107 1331.98483,2201.40567 C1327.88288,2205.07216 1323.3213,2208.49951 1318.40947,2210.91059 C1312.26543,2213.92226 1310.79314,2218.51804 1311.59555,2224.54874 C1311.96458,2227.33082 1313.02243,2230.05478 1313.11791,2232.8302 C1313.47723,2243.09372 1309.73315,2248.86244 1300.51612,2252.26627 C1295.25779,2254.2126 1289.95986,2256.28685 1284.4952,2257.38063 C1274.84643,2259.31003 1264.69643,2259.39673 1255.4066,2262.32537 C1242.56281,2266.38157 1230.50297,2265.35717 1218.18387,2261.21818 C1210.34479,2258.58895 1202.4224,2256.1984 1195.32817,2253.9476 C1177.16457,2266.99507 1160.52441,2279.872 1142.9183,2291.25274 C1131.34419,2298.74443 1125.56433,2307.54357 1123.7482,2321.65714 C1121.52876,2338.87522 1105.52868,2347.96994 1088.99278,2342.53299 C1074.15351,2337.65378 1059.51003,2334.34527 1043.80102,2333.6011 C1025.39984,2332.72229 1007.9801,2326.66627 991.679566,2317.77276 C978.08938,2310.36073 964.468785,2303.00402 950.717818,2295.88985 C915.738161,2277.79563 923.808101,2275.0359 926.784331,2246.05062 C927.326509,2240.74987 930.378314,2235.43683 933.262304,2230.73794 C935.925106,2226.40051 935.057437,2222.45979 933.280891,2218.8104 C929.610155,2211.27546 926.424692,2203.00087 920.893647,2197.00585 C913.859137,2189.38169 910.234075,2181.02204 907.535616,2171.31952 C904.550961,2160.60985 892.557892,2154.38315 891.977905,2141.97157 C891.498998,2131.69417 883.285501,2128.36909 875.43938,2125.07715 C862.15369,2119.51465 848.365932,2118.08613 834.04339,2119.64127 C828.587414,2120.23066 822.780634,2119.8679 817.438946,2118.62851 C811.645021,2117.28257 808.148171,2112.357 806.430414,2106.8698 C804.267785,2099.94226 804.197828,2092.7722 809.514268,2087.10698 C812.336424,2084.10479 816.101662,2081.79059 819.79957,2079.84346 C835.076607,2071.78984 846.634263,2059.326 858.011816,2046.92472 C866.661521,2037.49651 873.007023,2026.5861 868.576909,2012.49925 C866.867217,2007.0677 867.827449,2001.38156 870.805165,1996.23033 C875.015662,1988.94372 879.416811,1981.85543 880.327404,1973.03944 C881.462699,1961.9895 889.523585,1956.34823 898.573271,1951.54497 C921.302703,1939.48216 946.69353,1935.98008 970.91566,1928.73985 C986.303623,1924.14153 1001.09328,1924.9076 1016.04499,1932.08783 C1028.65944,1938.14466 1042.1959,1942.40543 1055.5785,1946.66057 C1060.96734,1948.37491 1067.1649,1947.0695 1071.31456,1942.83482 C1077.17239,1936.85796 1082.90053,1930.55506 1087.50992,1923.60967 C1092.80814,1915.62288 1089.79705,1907.45241 1085.40882,1899.83425 C1082.11555,1894.11527 1075.1468,1891.20292 1067.13533,1892.65069 C1053.27898,1895.16327 1039.38096,1897.5515 1025.64785,1900.63803 C1006.0291,1905.04979 986.441868,1903.89129 966.90952,1900.8522 C963.165263,1900.27231 959.334541,1897.35314 956.481787,1894.55367 C950.818543,1889.01066 951.938486,1876.78064 958.76548,1871.93233 C981.586709,1855.71914 1002.41396,1836.2779 1030.02552,1827.65645 C1033.42925,1826.59599 1036.17183,1823.405 1039.18346,1821.2253 C1030.99839,1808.76445 1023.40404,1797.19798 1015.95309,1785.85508 C1005.47238,1784.6478 995.69451,1783.73309 985.989407,1782.31882 C979.892214,1781.43195 974.142334,1773.07941 974.588385,1766.54658 C975.009928,1760.37264 978.573005,1756.23973 983.744643,1753.45043 C986.192977,1752.13367 988.90021,1751.03293 991.619321,1750.53081 C1005.85707,1747.91468 1018.3139,1742.14932 1028.5892,1731.62376 C1036.61712,1723.39145 1046.50788,1718.22787 1057.78421,1715.46619 C1064.69905,1713.778 1070.57491,1710.14408 1073.21171,1702.90787 C1069.00107,1692.08489 1064.10223,1682.23064 1050.51453,1680.90219 C1044.60706,1680.32051 1039.22091,1676.82773 1037.69188,1671.2695 C1034.39367,1659.25743 1031.8803,1646.96151 1030.1496,1634.62966 C1029.65461,1631.09406 1032.97755,1627.04455 1034.46041,1623.19702 C1035.93449,1619.37506 1037.29353,1615.50935 1039.47017,1609.56449 C1036.40812,1607.23346 1032.60432,1605.14818 1029.85629,1602.10594 C1018.1656,1589.15277 1018.53662,1580.9306 1030.91353,1570.60721 C1034.15204,1567.90365 1037.9027,1565.79025 1040.98859,1562.93999 C1047.88013,1556.57456 1049.24808,1543.35915 1043.66619,1535.84173 C1041.19856,1532.51122 1037.29831,1530.21134 1034.9638,1526.81359 C1031.06324,1521.11924 1025.3912,1515.11443 1024.89826,1508.89405 C1023.5313,1491.62328 1012.62602,1485.1795 998.548573,1480.20434 C978.51285,1473.12082 958.444187,1467.36233 936.78416,1469.0672 C928.416199,1469.72523 919.840667,1469.18439 911.487517,1468.14531 C906.051133,1467.46942 900.592264,1465.45093 895.589625,1463.08158 C880.620031,1455.99098 875.106845,1443.54062 879.94149,1428.41881 C881.220423,1424.42414 883.207077,1420.65369 884.873939,1416.78639 C885.990942,1414.20111 887.244255,1411.6726 888.220598,1409.03907 C890.304665,1403.41404 889.511691,1397.77246 886.630604,1392.83088 C883.816982,1387.99677 879.705532,1383.93368 876.698759,1379.18766 C868.213995,1365.79649 868.287667,1356.37467 880.348402,1345.53978 C897.049846,1330.53863 896.448529,1310.77358 898.258801,1291.45282 C898.48522,1289.02223 896.492268,1286.16613 895.003396,1283.84454 C893.510398,1281.50583 891.66244,1279.18111 889.453551,1277.55437 C876.92663,1268.32613 870.582341,1257.05274 875.838845,1241.1095 C877.784192,1235.21393 874.560596,1230.32921 871.275474,1225.63634 L882.77247,1173.697 L882.77247,1164.53758 Z" id="Path" fill="#1D1D1B"></path>
        <path d="M20.3557431,4482.72531 C69.1634181,4476.59157 89.1473892,4468.20408 271.840927,4440.67905 C275.938114,4440.06176 280.160077,4439.046 284.358127,4438.78522 C323.966002,4436.3271 361.957927,4426.19962 399.565102,4414.3878 C426.442027,4405.94467 454.297927,4401.94755 481.692127,4395.89842 C531.530077,4384.89885 578.961202,4367.6877 623.305777,4342.5849 C641.731027,4332.15817 660.382852,4322.30857 679.740052,4313.92957 C700.555027,4304.92215 719.963527,4293.66607 738.281902,4280.47342 C754.274677,4268.95657 770.545327,4258.26907 788.201077,4249.12485 C808.088377,4238.8221 826.646152,4225.56105 844.579777,4212.00502 C859.337077,4200.85582 874.175602,4190.6856 891.904027,4184.89297 C898.521727,4182.72982 904.895752,4179.40387 910.876477,4175.7744 C946.927552,4153.89922 983.876377,4133.49037 1016.44333,4106.15602 C1037.99788,4088.06422 1060.463,4070.92575 1083.55655,4054.8432 C1108.9244,4037.17035 1134.76678,4019.87797 1165.57243,4012.35397 C1170.97603,4011.033 1176.60193,4009.07077 1181.11633,4005.94575 C1202.54263,3991.09867 1227.60695,3985.15215 1252.04285,3979.911 C1290.92825,3971.57475 1327.41965,3957.24067 1364.13335,3942.92797 C1375.86395,3938.35372 1387.98358,3934.5276 1400.21435,3931.56075 C1412.91538,3928.4742 1424.6759,3923.22022 1433.65768,3914.34532 C1451.82215,3896.40315 1473.40663,3883.02667 1493.22553,3867.33315 C1504.36618,3858.50955 1515.08788,3849.52777 1523.28733,3837.92542 C1537.92493,3817.20022 1558.78265,3802.18642 1574.0957,3782.11102 C1589.63533,3779.15272 1591.89253,3766.14817 1595.70583,3754.02 C1606.29073,3720.36292 1623.05728,3689.2452 1636.25848,3656.64832 C1640.4437,3646.31137 1646.7194,3636.60712 1653.29435,3627.52702 C1659.83083,3618.49822 1667.9405,3610.6194 1674.7634,3602.91157 C1676.80685,3593.10472 1674.51118,3584.93947 1670.04808,3577.64205 C1661.06203,3562.94032 1648.74148,3551.25675 1633.64645,3543.17272 C1627.7555,3540.01777 1620.24005,3538.54717 1613.4941,3538.63695 C1599.48493,3538.8165 1585.54843,3541.69357 1571.48795,3538.27357 C1561.83073,3535.9266 1554.15283,3526.38052 1555.20448,3516.59932 C1555.64908,3512.43547 1556.25613,3508.2075 1557.46595,3504.21465 C1559.0648,3498.94357 1561.33055,3493.87342 1562.95933,3489.6198 C1560.80045,3482.51475 1555.87138,3479.394 1550.79695,3477.28215 C1536.89038,3471.48952 1527.75043,3461.81092 1523.018,3447.4512 C1519.86733,3437.88802 1511.2532,3435.6522 1502.60915,3435.72915 C1495.67083,3435.79327 1488.14255,3436.46445 1481.9267,3439.2261 C1462.71485,3447.759 1441.55788,3452.02972 1424.29115,3464.83762 C1415.00585,3471.72465 1404.30125,3475.30282 1393.34015,3477.82935 C1380.74173,3480.73207 1368.13048,3479.93692 1356.13483,3474.47775 C1343.95963,3468.94162 1334.85815,3460.94737 1333.3106,3446.55345 C1332.87028,3442.44517 1331.27998,3438.4566 1330.06588,3433.8225 C1320.78058,3430.8129 1311.17465,3428.56852 1302.35105,3424.5885 C1293.52745,3420.6042 1285.4819,3414.8928 1276.85923,3409.79272 C1263.09373,3414.2259 1249.51205,3417.60315 1235.21645,3414.62775 C1226.3159,3412.7724 1218.70213,3415.9872 1211.72105,3421.41645 C1196.60893,3433.1727 1179.30373,3437.21257 1160.31845,3437.32372 C1140.6278,3437.43915 1120.95425,3439.2945 1101.2636,3440.23072 C1088.61388,3440.8335 1075.86583,3442.26562 1063.30588,3441.34222 C1042.2857,3439.79467 1021.26125,3434.0106 1000.4591,3434.934 C978.985777,3435.88305 958.683802,3429.70567 937.552477,3429.77835 C923.188477,3429.82965 909.974452,3423.45135 898.632877,3414.85432 C882.152752,3402.35422 871.828627,3386.16052 873.765202,3364.33665 C874.261102,3358.74922 875.470927,3353.22165 876.001027,3347.63422 C876.445627,3342.96592 873.927652,3339.003 869.977552,3337.5153 C854.313952,3331.60725 839.107777,3324.26707 821.909452,3323.06152 C812.132527,3322.37752 802.500952,3319.23967 792.736852,3318.85065 C761.294227,3317.60662 742.022527,3298.134 722.276302,3273.58695 C711.289552,3270.19687 697.135027,3271.96672 683.408002,3272.90722 C655.047652,3274.85662 635.395477,3259.86847 617.149777,3241.48597 C614.294077,3238.6089 612.460102,3234.46215 610.925377,3230.59327 C608.852002,3225.3735 607.637902,3219.82027 605.859502,3214.47652 C600.767977,3199.13782 600.447352,3184.1625 608.185102,3169.41375 C610.754377,3164.5146 612.280552,3159.06397 614.666002,3152.8695 C611.023702,3144.10575 607.586602,3134.94442 603.414202,3126.12937 C600.896227,3120.80272 596.065477,3117.48532 589.982152,3117.49815 C580.145377,3117.51952 570.308602,3118.30612 560.467552,3118.31467 C551.665327,3118.32322 544.337977,3114.48855 537.549277,3108.93532 C521.565052,3095.87092 522.569677,3078.89062 536.283877,3065.0952 C541.059052,3060.29437 547.749427,3056.78032 554.204677,3054.4248 C562.023652,3051.57337 570.518077,3050.57302 579.012502,3048.70912 C587.870302,3040.83885 590.721727,3029.31772 592.102552,3018.6516 C594.496552,3000.14512 601.481902,2983.48117 608.702377,2967.0438 C604.777927,2954.21025 599.622277,2942.12055 591.555352,2932.93357 C574.823002,2913.87562 568.085602,2891.8038 565.640302,2867.48332 C565.080277,2861.93865 562.310077,2856.62055 561.741502,2851.08015 C559.689502,2831.11162 560.288002,2811.62617 573.980827,2794.94512 C576.605677,2791.74742 578.144677,2787.65625 580.303552,2783.766 C575.246227,2772.13372 570.244477,2760.53565 565.170052,2748.9675 C559.236352,2735.42857 559.005502,2722.03072 564.015802,2707.92322 C571.531252,2686.76625 581.902402,2666.65665 586.651927,2644.42237 C587.686477,2639.57025 592.547152,2634.38895 597.040177,2631.61875 C621.604327,2616.44677 648.096502,2607.66592 677.363152,2612.4411 C685.519852,2613.77062 693.565402,2617.09657 701.068027,2620.7346 C708.609127,2624.38972 715.261027,2629.8318 722.579827,2634.00847 C730.441552,2638.49722 740.132977,2637.89445 745.741777,2631.28957 C765.175927,2608.41405 791.548402,2599.2399 819.429952,2593.4601 C837.329377,2589.7494 855.532327,2587.25707 873.709627,2585.235 C901.787827,2582.11852 929.224777,2576.15062 956.584777,2569.33627 C983.850727,2562.5433 1011.20645,2555.81872 1038.86998,2551.07775 C1054.58915,2548.3845 1068.76933,2543.94277 1081.62853,2534.64465 C1088.45998,2529.70275 1096.01818,2525.75692 1102.84108,2520.79792 C1115.15308,2511.85035 1120.4669,2499.222 1120.34293,2484.23812 C1120.2959,2478.44977 1118.64148,2473.17015 1112.84885,2469.96817 C1100.91733,2472.37072 1088.19065,2473.81567 1076.195,2477.59477 C1054.25998,2484.4989 1031.81195,2484.67417 1009.28698,2485.21282 C1000.3394,2485.43085 992.558902,2482.97272 987.232252,2475.3333 C978.041002,2462.14065 965.870077,2453.80867 950.386027,2448.7941 C923.209852,2440.00042 899.453677,2425.46542 883.401052,2402.12392 C880.566727,2402.12392 878.578852,2401.5126 877.835002,2402.21797 C864.484177,2414.8335 848.854777,2417.8602 831.387127,2413.75192 C825.902302,2412.46515 820.438852,2410.83637 814.868527,2410.2165 C802.133302,2408.80575 796.186777,2398.79797 788.543077,2390.67547 C783.361777,2385.16927 774.217552,2387.24265 771.109627,2394.15105 C769.378252,2398.00282 767.646877,2401.86315 766.167727,2405.81325 C764.196952,2411.0886 762.820402,2416.6119 760.571752,2421.759 C756.070177,2432.04892 751.051327,2442.11655 746.434327,2452.35945 C744.134377,2457.46807 739.902127,2463.08542 740.564752,2467.91617 C744.091627,2493.57472 722.105302,2504.28787 710.387527,2520.7509 C706.668277,2525.97067 698.969002,2528.8563 692.560777,2531.54527 C678.295102,2537.53882 663.674602,2542.68165 649.242202,2548.27762 C638.195602,2552.56545 626.956627,2552.55262 616.230652,2548.1964 C603.247477,2542.92532 590.730277,2536.49572 577.447852,2530.30125 C569.603227,2531.08785 561.237052,2532.30622 552.832402,2532.68242 C536.856727,2533.4049 522.236227,2528.21505 508.876852,2520.10537 C504.422302,2517.40357 501.528127,2511.9102 498.351802,2507.38725 C495.218227,2502.9327 492.627577,2498.0934 490.340452,2494.31857 C469.140727,2491.53982 449.621077,2489.00902 430.109977,2486.40982 C425.929027,2485.8498 421.748077,2485.22565 417.631252,2484.3279 C398.000452,2480.0529 390.818452,2457.31845 403.724677,2441.05207 C416.229052,2425.2987 433.277752,2419.87372 452.318602,2420.30122 C463.506277,2420.55345 474.612727,2423.4006 485.817502,2424.25987 C501.378502,2425.45687 513.917077,2411.22967 508.996552,2397.14782 C503.439052,2381.2491 496.167277,2365.95315 489.579502,2350.4178 C489.036577,2349.14385 487.989202,2348.09647 487.271002,2346.88665 C462.698302,2305.52175 462.681202,2305.5645 415.634827,2288.208 C409.042777,2285.7798 402.916702,2281.83825 396.187852,2280.07695 C370.725952,2273.3994 356.857852,2254.29015 344.618527,2233.26997 C340.399102,2226.02812 344.622802,2211.16822 352.689727,2207.37202 C363.997102,2202.04537 375.766177,2197.71052 387.009427,2193.08925 C391.092052,2187.8823 389.741152,2182.16235 390.237052,2176.63477 C390.852652,2169.76912 391.006552,2161.89885 394.477852,2156.4525 C401.621377,2145.25627 405.011452,2133.82065 404.729302,2120.65365 C404.442877,2107.19595 410.876752,2096.76922 420.628027,2087.55232 C442.926427,2066.48512 438.954952,2062.83 417.332002,2046.17032 C410.167102,2040.65557 403.211677,2037.50062 394.370977,2037.6417 C377.330827,2037.9153 364.869202,2029.5363 355.451377,2016.09997 C349.000402,2006.90017 342.720427,1997.5593 336.859402,1987.97902 C331.733677,1979.60002 327.296227,1970.7978 322.037977,1961.2389 C317.288452,1959.40492 312.261052,1956.86557 306.934402,1955.53177 C295.105477,1952.5692 286.636702,1946.21655 282.806302,1934.31495 C281.515252,1930.29645 280.899652,1925.688 278.488552,1922.46465 C264.654652,1903.97527 260.657527,1884.53257 271.203952,1863.16612 C272.477902,1847.7804 274.401652,1832.7324 265.808902,1818.04777 C257.848852,1804.44045 255.848152,1788.86662 257.566702,1773.0363 C258.024127,1768.83825 259.665727,1764.264 258.584152,1760.48917 C251.624452,1736.2371 261.439852,1716.56782 274.709452,1697.66805 C277.941352,1693.06387 281.288677,1688.5281 284.345302,1683.8085 C287.590027,1678.79392 288.286852,1673.03977 286.260502,1667.6319 C278.368852,1646.5647 271.828102,1624.97167 260.969602,1605.0459 C257.716327,1599.07372 255.104302,1591.84042 255.087202,1585.1757 C254.976052,1543.0242 254.283502,1500.79575 261.974227,1457.87047 C252.274252,1435.56352 242.279302,1412.30325 232.036402,1389.15412 C227.436502,1378.75305 223.135852,1368.25365 223.952377,1356.68122 C226.034302,1327.26495 223.383802,1297.55797 229.441477,1268.38537 C230.300752,1264.26 230.625652,1260.02775 231.249802,1255.85107 C234.340627,1235.2584 247.918027,1223.94675 266.334727,1217.87197 C271.242427,1216.25175 278.069602,1216.48687 282.703702,1218.66712 C304.386502,1228.85445 326.069302,1238.60572 350.043502,1242.29077 C353.946577,1242.88927 358.525102,1245.12937 360.957577,1248.10905 C368.302027,1257.1122 376.339027,1259.30955 386.855527,1254.1197 C391.861552,1251.65302 397.346377,1249.92165 402.792727,1248.6306 C426.758377,1242.9363 447.547702,1232.75325 461.291827,1210.97212 C473.693602,1191.3114 494.867677,1181.44897 512.121577,1167.2346 C519.859327,1160.86057 529.854277,1157.40637 539.768002,1158.26137 C560.146927,1160.0184 578.268652,1150.6305 597.711352,1148.05267 C601.644352,1147.5354 605.731252,1145.3466 608.967427,1142.89275 C619.009402,1135.2918 630.363802,1128.55867 638.118652,1118.98695 C651.537877,1102.42132 667.316902,1092.8667 694.544377,1095.5172 C670.283752,1082.76915 650.225452,1077.07912 630.368077,1070.91457 C621.005827,1068.0033 611.010877,1066.69942 602.131702,1062.77925 C594.611977,1059.45757 588.289252,1053.42127 581.175652,1048.39815 C573.087352,1051.2453 565.396627,1055.05432 557.278402,1056.59332 C535.911952,1060.64602 515.370577,1059.8637 497.702002,1044.2001 C488.237152,1035.81255 477.823252,1028.48092 467.661577,1020.90562 C449.441527,1007.32395 441.378877,988.355774 438.724102,966.591749 C435.539227,940.475774 443.854102,916.535774 453.682327,893.078849 C455.135827,889.607549 459.205627,885.841274 462.783802,884.883674 C486.416002,878.548124 500.108827,860.704274 513.587902,842.445749 C519.436102,834.532724 524.566102,825.910049 531.354802,818.903324 C543.397477,806.475899 551.695252,792.133274 557.812777,776.140499 C559.770727,771.019049 562.335727,763.961024 566.478202,762.233924 C581.521927,755.945399 585.309577,742.594574 590.452402,729.602849 C594.881302,718.419449 603.465502,711.331499 614.785702,707.804624 C629.726827,703.149149 644.676502,699.626549 660.023752,707.086424 C663.469402,708.762224 668.039377,708.112424 673.404502,708.668174 C684.865777,694.847099 696.185977,680.577149 711.764077,670.436849 C717.300202,666.833024 721.331527,660.146924 724.666027,654.106349 C730.783552,643.025549 735.725452,631.303499 741.432577,619.987574 C746.485627,609.971249 751.538677,599.924999 757.245802,590.280599 C770.639377,567.635924 767.869177,560.436824 805.749952,547.475024 C825.620152,540.677774 844.195027,530.101424 863.432527,521.401799 C875.171677,516.096524 887.534977,513.206624 900.424102,514.882424 C905.836252,515.583524 912.466777,516.528299 916.027852,519.969674 C926.377627,529.964624 936.278527,527.091824 946.893352,521.555699 C953.139127,518.302424 959.530252,515.331299 965.814502,512.159249 C974.937352,507.550799 981.499477,500.475674 986.048077,491.344274 C991.691077,480.006974 997.919752,468.943274 1003.1951,457.434974 C1010.0693,442.438274 1021.475,432.755399 1036.47598,426.813149 C1057.48333,418.493999 1078.76855,411.183749 1101.6398,410.328749 C1108.89448,410.055149 1115.4053,408.687149 1120.58233,402.971474 C1127.45225,395.387624 1136.80595,392.018924 1146.17248,388.816949 C1173.36148,379.527374 1196.43365,363.632924 1216.4834,343.480574 C1228.4876,331.412249 1241.11595,320.528099 1255.82623,311.854124 C1270.9127,302.962124 1286.84135,298.635824 1304.2748,300.256049 C1309.86223,300.777599 1315.39408,301.923299 1320.97295,302.560274 C1335.9953,304.278824 1342.89088,302.060099 1342.18123,296.070824 C1340.91583,285.430349 1331.19448,284.600999 1324.3844,280.736399 C1319.58358,278.013224 1313.95768,276.341699 1308.49423,275.260124 C1276.76518,268.984424 1245.34393,260.964524 1212.76415,259.596524 C1195.96768,258.891149 1179.308,257.912174 1163.063,251.435549 C1151.4863,246.818549 1138.47748,244.822124 1125.93035,243.787574 C1089.8579,240.820724 1058.77865,224.062724 1026.82303,209.579024 C1011.45013,202.610774 996.132802,195.509999 980.811202,188.426324 C970.358827,183.595574 959.363527,181.744499 947.919352,182.210474 C935.261077,182.732024 922.602802,183.407474 909.940252,183.719549 C884.602327,184.347974 859.255852,185.194424 833.917927,185.155949 C810.948352,185.126024 789.838402,177.341249 769.715977,166.927349 C760.977877,162.404399 752.705752,156.975149 744.241252,151.917824 C724.435177,140.080349 703.137127,134.249249 679.932427,134.274899 C620.762152,134.347574 561.591877,133.915799 502.421602,133.693499 C486.924727,133.637924 471.415027,133.218974 455.930977,133.637924 C406.520527,134.975999 361.427827,120.573524 319.720927,95.3168241 C300.342352,83.5819491 279.856552,74.4462741 259.481902,64.9044741 C254.390377,62.5232991 249.196252,59.8428741 243.762727,58.7954991 C209.207902,52.1350491 176.033902,39.5024241 140.927602,35.2274241 C125.614552,33.3635241 74.5618055,26.9337407 51.3662484,23.6497044 C28.1706913,20.3656681 -8.77918466,24.4481568 -18.5705167,24.2600568 L20.3557431,4482.72531 Z" id="Path" fill="#1D1D1B" transform="translate(828.472919, 2252.546320) rotate(0.500000) translate(-828.472919, -2252.546320) "></path>
    </g>
</svg>