<?xml version="1.0" encoding="UTF-8"?>
<svg width="159px" height="159px" viewBox="0 0 159 159" version="1.1" xmlns="http://www.w3.org/2000/svg" xmlns:xlink="http://www.w3.org/1999/xlink">
    <title>site/border-hold</title>
    <g id="site/border-hold" stroke="none" stroke-width="1" fill="none" fill-rule="evenodd">
        <polygon id="Stroke-1" stroke="#1D1D1B" stroke-width="4.5" fill="#FFFFFF" stroke-linejoin="round" points="109.912 53.7814 115.285 45.3634 115.285 25.6034 109.912 20.6514 109.912 27.1684 90.569 27.1684 88.42 25.6034 86.54 18.7504 84.39 18.7504 74.988 18.7504 72.839 18.7504 70.958 25.6034 68.809 27.1684 49.466 27.1684 49.466 20.6514 44.093 25.6034 44.093 45.3634 49.466 53.7814 42.75 140.4094 74.988 140.4094 84.39 140.4094 116.628 140.4094"></polygon>
        <polygon id="Stroke-4" stroke="#1D1D1B" stroke-width="3.5" fill="#1D1D1B" stroke-linejoin="round" points="109.912 53.7814 115.285 45.3634 115.285 25.6034 109.912 20.6514 109.912 27.1684 90.569 27.1684 88.42 25.6034 86.54 18.7504 84.39 18.7504 79.689 18.7504 79.689 140.4094 84.39 140.4094 116.628 140.4094"></polygon>
        <path d="M91.4397,104.1644 L91.4397,67.7734 C91.4397,61.2944 86.1687,56.0224 79.6887,56.0224 C73.2097,56.0224 67.9387,61.2944 67.9387,67.7734 L67.9387,104.1644 L67.9387,105.9144 L69.6887,105.9144 L89.6897,105.9144 L91.4397,105.9144 L91.4397,104.1644 Z" id="Stroke-8" stroke="#1D1D1B" stroke-width="4.5" fill="#FFFFFF"></path>
    </g>
</svg>