<?xml version="1.0" encoding="UTF-8"?>
<svg width="159px" height="159px" viewBox="0 0 159 159" version="1.1" xmlns="http://www.w3.org/2000/svg" xmlns:xlink="http://www.w3.org/1999/xlink">
    <title>site/dark-hold</title>
    <defs>
        <polygon id="path-1" points="109.8647 53.7336 115.2377 45.3156 115.2377 25.5556 109.8647 20.6036 109.8647 27.1206 90.5217 27.1206 88.3727 25.5556 86.4927 18.7026 84.3427 18.7026 74.9407 18.7026 72.7917 18.7026 70.9107 25.5556 68.7617 27.1206 49.4187 27.1206 49.4187 20.6036 44.0457 25.5556 44.0457 45.3156 49.4187 53.7336 42.7027 140.3616 74.9407 140.3616 84.3427 140.3616 116.5807 140.3616"></polygon>
    </defs>
    <g id="site/dark-hold" stroke="none" stroke-width="1" fill="none" fill-rule="evenodd" stroke-linejoin="round">
        <g id="Stroke-4">
            <use fill="#1D1D1B" fill-rule="evenodd" xlink:href="#path-1"></use>
            <path stroke="#FFFFFF" stroke-width="9" d="M105.3647,10.3364776 L119.7377,23.583285 L119.7377,46.6293216 L114.467558,54.886171 L121.443074,144.8616 L37.8403258,144.8616 L44.8158416,54.886171 L39.5457,46.6293216 L39.5457,23.583285 L53.9187,10.3364776 L53.9187,22.6206 L67.05,22.62 L69.360419,14.2026 L89.9244639,14.2026 L92.233,22.62 L105.3647,22.6206 L105.3647,10.3364776 Z"></path>
            <use stroke="#1D1D1B" stroke-width="5" xlink:href="#path-1"></use>
        </g>
    </g>
</svg>