<?xml version="1.0" encoding="UTF-8"?>
<svg width="159px" height="159px" viewBox="0 0 159 159" version="1.1" xmlns="http://www.w3.org/2000/svg" xmlns:xlink="http://www.w3.org/1999/xlink">
    <title>site/darkhaven</title>
    <defs>
        <polygon id="path-1" points="67.9654067 52.3910588 78.9601644 14 90.4723977 52.6509463 129.020217 37.8648112 106.771508 71.0672708 142 92.0788099 101.596752 95.7108294 107.288983 136.176413 79.3480429 107.123918 51.9254908 137 56.841052 96.4886617 17 92.5976699 51.4080153 72.6238505 29.9359754 38.1237836"></polygon>
    </defs>
    <g id="site/darkhaven" stroke="none" stroke-width="1" fill="none" fill-rule="evenodd">
        <g id="Stroke-4" stroke-linecap="round" stroke-linejoin="round">
            <use fill="#1D1D1B" fill-rule="evenodd" xlink:href="#path-1"></use>
            <path stroke="#FFFFFF" stroke-width="7" d="M78.8942483,1.51769779 L92.7478424,48.0294833 L138.071875,30.644135 L111.732645,69.9510089 L153.057907,94.5988809 L105.575227,98.8673007 L112.260918,146.395306 L79.407572,112.234978 L47.1390448,147.390612 L52.9349658,99.6238341 L5.84687363,95.0250754 L46.5293674,71.4089274 L21.522377,31.2291007 L65.6446315,47.7821841 L78.8942483,1.51769779 Z"></path>
            <use stroke="#FFFFFF" stroke-width="1" xlink:href="#path-1"></use>
        </g>
        <path d="M79,106 C93.9117933,106 106,93.9119892 106,79.0004376 C106,64.088886 93.9117933,52 79,52 C64.0882067,52 52,64.088886 52,79.0004376 C52,93.9119892 64.0882067,106 79,106 Z" id="Stroke-6" stroke="#FFFFFF" stroke-width="7" fill="#1D1D1B"></path>
    </g>
</svg>