<?xml version="1.0" encoding="UTF-8"?>
<svg width="200px" height="200px" viewBox="0 0 200 200" version="1.1" xmlns="http://www.w3.org/2000/svg" xmlns:xlink="http://www.w3.org/1999/xlink">
    <title>site/end</title>
    <defs>
        <linearGradient x1="50%" y1="0%" x2="50%" y2="100%" id="linearGradient-1">
            <stop stop-color="#FFFFFF" offset="0%"></stop>
            <stop stop-color="#ABABAB" offset="100%"></stop>
        </linearGradient>
    </defs>
    <g id="site/end" stroke="none" stroke-width="1" fill="none" fill-rule="evenodd">
        <path d="M86.1597096,65.026015 L99.8663901,78.73251 L113.573263,65.026015 C119.040603,59.5586749 127.904913,59.5586749 133.372253,65.026015 L134.706958,66.3607197 C140.174298,71.8280598 140.174298,80.6923695 134.706958,86.1597096 L121.00039,99.86651 L134.950078,113.816383 C140.417418,119.283723 140.417418,128.148033 134.950078,133.615373 L133.615373,134.950078 C128.148033,140.417418 119.283723,140.417418 113.816383,134.950078 L99.8663901,121.00051 L85.9165898,134.950078 C80.4492497,140.417418 71.58494,140.417418 66.1175999,134.950078 L64.7828952,133.615373 C59.3155551,128.148033 59.3155551,119.283723 64.7828952,113.816383 L78.7323901,99.86651 L65.026015,86.1597096 C59.5586749,80.6923695 59.5586749,71.8280598 65.026015,66.3607197 L66.3607197,65.026015 C71.8280598,59.5586749 80.6923695,59.5586749 86.1597096,65.026015 Z" id="Combined-Shape-Copy-2" stroke="#1D1D1B" stroke-width="15" fill="url(#linearGradient-1)"></path>
    </g>
</svg>