<?xml version="1.0" encoding="UTF-8"?>
<svg width="159px" height="159px" viewBox="0 0 159 159" version="1.1" xmlns="http://www.w3.org/2000/svg" xmlns:xlink="http://www.w3.org/1999/xlink">
    <title>site/free-hold</title>
    <g id="site/free-hold" stroke="none" stroke-width="1" fill="none" fill-rule="evenodd">
        <polygon id="Stroke-1" stroke="#1D1D1B" stroke-width="4.5" fill="#FFFFFF" stroke-linejoin="round" points="109.912 53.7814 115.285 45.3634 115.285 25.6034 109.912 20.6514 109.912 27.1684 90.569 27.1684 88.42 25.6034 86.54 18.7504 84.39 18.7504 74.988 18.7504 72.839 18.7504 70.958 25.6034 68.809 27.1684 49.466 27.1684 49.466 20.6514 44.093 25.6034 44.093 45.3634 49.466 53.7814 42.75 140.4094 74.988 140.4094 84.39 140.4094 116.628 140.4094"></polygon>
        <path d="M89.6897,104.1644 L89.6897,67.7734 C89.6897,62.2504 85.2127,57.7724 79.6887,57.7724 C74.1657,57.7724 69.6887,62.2504 69.6887,67.7734 L69.6887,104.1644 L89.6897,104.1644 Z" id="Stroke-5" stroke="#1D1D1B" stroke-width="3.5" fill="#1D1D1B"></path>
    </g>
</svg>