<?xml version="1.0" encoding="UTF-8"?>
<svg width="200px" height="200px" viewBox="0 0 200 200" version="1.1" xmlns="http://www.w3.org/2000/svg" xmlns:xlink="http://www.w3.org/1999/xlink">
    <title>site/go</title>
    <defs>
        <linearGradient x1="50%" y1="0%" x2="50%" y2="100%" id="linearGradient-1">
            <stop stop-color="#FFFFFF" offset="0%"></stop>
            <stop stop-color="#ABABAB" offset="100%"></stop>
        </linearGradient>
    </defs>
    <g id="site/go" stroke="none" stroke-width="1" fill="none" fill-rule="evenodd">
        <path d="M127.059024,55.3392444 L128.393728,56.6739491 C133.861068,62.1412892 133.861068,71.0055989 128.393728,76.472939 L105.00051,99.8667393 L128.393728,123.260034 C133.861068,128.727374 133.861068,137.591684 128.393728,143.059024 L127.059024,144.393728 C121.591684,149.861068 112.727374,149.861068 107.260034,144.393728 L74.026015,111.15971 C70.9373578,108.071052 69.5935716,103.898271 69.9946565,99.8662715 C69.5937314,95.8342054 70.9375414,91.6617367 74.026015,88.5732631 L107.260034,55.3392444 C112.727374,49.8719043 121.591684,49.8719043 127.059024,55.3392444 Z" id="Combined-Shape-Copy-4" stroke="#1D1D1B" stroke-width="15" fill="url(#linearGradient-1)" transform="translate(101.209872, 99.866486) scale(-1, 1) translate(-101.209872, -99.866486) "></path>
    </g>
</svg>