<?xml version="1.0" encoding="UTF-8"?>
<svg width="200px" height="200px" viewBox="0 0 200 200" version="1.1" xmlns="http://www.w3.org/2000/svg" xmlns:xlink="http://www.w3.org/1999/xlink">
    <title>site/journey_2</title>
    <defs>
        <linearGradient x1="50%" y1="0%" x2="50%" y2="100%" id="linearGradient-1">
            <stop stop-color="#FFFFFF" offset="0%"></stop>
            <stop stop-color="#ABABAB" offset="100%"></stop>
        </linearGradient>
    </defs>
    <g id="site/journey_2" stroke="none" stroke-width="1" fill="none" fill-rule="evenodd">
        <path d="M126.059024,55.3392444 L127.393728,56.6739491 C132.861068,62.1412892 132.861068,71.0055989 127.393728,76.472939 L104.00051,99.8667393 L127.393728,123.260034 C132.861068,128.727374 132.861068,137.591684 127.393728,143.059024 L126.059024,144.393728 C120.591684,149.861068 111.727374,149.861068 106.260034,144.393728 L73.026015,111.15971 C69.9373578,108.071052 68.5935716,103.898271 68.9946565,99.8662715 C68.5937314,95.8342054 69.9375414,91.6617367 73.026015,88.5732631 L106.260034,55.3392444 C111.727374,49.8719043 120.591684,49.8719043 126.059024,55.3392444 Z" id="Combined-Shape-Copy-3" stroke="#1D1D1B" stroke-width="15" fill="url(#linearGradient-1)" transform="translate(100.209872, 99.866486) rotate(-90.000000) translate(-100.209872, -99.866486) "></path>
    </g>
</svg>