<?xml version="1.0" encoding="UTF-8"?>
<svg width="159px" height="159px" viewBox="0 0 159 159" version="1.1" xmlns="http://www.w3.org/2000/svg" xmlns:xlink="http://www.w3.org/1999/xlink">
    <title>site/shadow-hold</title>
    <g id="site/shadow-hold" stroke="none" stroke-width="1" fill="none" fill-rule="evenodd">
        <polygon id="Stroke-1" stroke="#1D1D1B" stroke-width="4.5" fill="#FFFFFF" stroke-linejoin="round" points="109.912 53.7816 115.285 45.3636 115.285 25.6036 109.912 20.6516 109.912 27.1686 90.569 27.1686 88.42 25.6036 86.54 18.7506 84.39 18.7506 74.988 18.7506 72.839 18.7506 70.958 25.6036 68.809 27.1686 49.466 27.1686 49.466 20.6516 44.093 25.6036 44.093 45.3636 49.466 53.7816 42.75 140.4096 74.988 140.4096 84.39 140.4096 116.628 140.4096"></polygon>
        <polygon id="Stroke-4" fill="#1D1D1B" points="46.4847 92.325 42.7497 140.496 74.9877 140.496 84.3907 140.496 116.6287 140.496 109.9117 53.868 115.2847 45.45 115.2847 25.69 114.1577 24.652"></polygon>
    </g>
</svg>