<?xml version="1.0" encoding="UTF-8"?>
<svg width="159px" height="159px" viewBox="0 0 159 159" version="1.1" xmlns="http://www.w3.org/2000/svg" xmlns:xlink="http://www.w3.org/1999/xlink">
    <title>site/shadow-hold</title>
    <defs>
        <polygon id="path-1" points="109.912 53.7816 115.285 45.3636 115.285 25.6036 109.912 20.6516 109.912 27.1686 90.569 27.1686 88.42 25.6036 86.54 18.7506 84.39 18.7506 74.988 18.7506 72.839 18.7506 70.958 25.6036 68.809 27.1686 49.466 27.1686 49.466 20.6516 44.093 25.6036 44.093 45.3636 49.466 53.7816 42.75 140.4096 74.988 140.4096 84.39 140.4096 116.628 140.4096"></polygon>
    </defs>
    <g id="site/shadow-hold" stroke="none" stroke-width="1" fill="none" fill-rule="evenodd">
        <g id="Stroke-1" stroke-linejoin="round">
            <use fill="#FFFFFF" fill-rule="evenodd" xlink:href="#path-1"></use>
            <path stroke="#FFFFFF" stroke-width="9" d="M105.412,10.3844776 L119.785,23.631285 L119.785,46.6773216 L114.514858,54.934171 L121.490374,144.9096 L37.8876258,144.9096 L44.8631416,54.934171 L39.593,46.6773216 L39.593,23.631285 L53.966,10.3844776 L53.966,22.6686 L67.097,22.668 L69.407719,14.2506 L89.9717639,14.2506 L92.28,22.668 L105.412,22.6686 L105.412,10.3844776 Z"></path>
            <use stroke="#1D1D1B" stroke-width="5" xlink:href="#path-1"></use>
        </g>
        <polygon id="Stroke-4" fill="#1D1D1B" points="46.4847 92.325 42.7497 140.496 74.9877 140.496 84.3907 140.496 116.6287 140.496 109.9117 53.868 115.2847 45.45 115.2847 25.69 114.1577 24.652"></polygon>
    </g>
</svg>