<?xml version="1.0" encoding="UTF-8"?>
<svg width="200px" height="200px" viewBox="0 0 200 200" version="1.1" xmlns="http://www.w3.org/2000/svg" xmlns:xlink="http://www.w3.org/1999/xlink">
    <title>icons/cancel_white</title>
    <g id="icons/cancel_white" stroke="none" stroke-width="1" fill="none" fill-rule="evenodd">
        <path d="M100.301148,51.4880463 C104.443283,51.4880463 107.801148,54.8459107 107.801148,58.9880463 L107.801148,140.988046 C107.801148,145.130182 104.443283,148.488046 100.301148,148.488046 C96.159012,148.488046 92.8011477,145.130182 92.8011477,140.988046 L92.8011477,58.9880463 C92.8011477,54.8459107 96.159012,51.4880463 100.301148,51.4880463 Z" id="Rectangle" stroke="#FFFFFF" stroke-width="5" fill="#FFFFFF" transform="translate(100.301148, 99.988046) rotate(45.000000) translate(-100.301148, -99.988046) "></path>
        <path d="M100.544268,51.4880463 C104.686403,51.4880463 108.044268,54.8459107 108.044268,58.9880463 L108.044268,140.988046 C108.044268,145.130182 104.686403,148.488046 100.544268,148.488046 C96.4021319,148.488046 93.0442675,145.130182 93.0442675,140.988046 L93.0442675,58.9880463 C93.0442675,54.8459107 96.4021319,51.4880463 100.544268,51.4880463 Z" id="Rectangle-Copy" stroke="#FFFFFF" stroke-width="5" fill="#FFFFFF" transform="translate(100.544268, 99.988046) rotate(-45.000000) translate(-100.544268, -99.988046) "></path>
    </g>
</svg>