<?xml version="1.0" encoding="UTF-8"?>
<svg width="200px" height="200px" viewBox="0 0 200 200" version="1.1" xmlns="http://www.w3.org/2000/svg" xmlns:xlink="http://www.w3.org/1999/xlink">
    <title>icons/siteList_white</title>
    <g id="icons/siteList_white" stroke="none" stroke-width="1" fill="none" fill-rule="evenodd">
        <path d="M100.266093,27.523101 C104.408229,27.523101 107.766093,30.8809654 107.766093,35.023101 L107.766093,100.023101 C107.766093,104.165237 104.408229,107.523101 100.266093,107.523101 C96.1239573,107.523101 92.7660929,104.165237 92.7660929,100.023101 L92.7660929,35.023101 C92.7660929,30.8809654 96.1239573,27.523101 100.266093,27.523101 Z" id="Rectangle" stroke="#FFFFFF" stroke-width="5" fill="#FFFFFF" transform="translate(100.266093, 67.523101) rotate(-90.000000) translate(-100.266093, -67.523101) "></path>
        <path d="M100.266093,59.523101 C104.408229,59.523101 107.766093,62.8809654 107.766093,67.023101 L107.766093,132.023101 C107.766093,136.165237 104.408229,139.523101 100.266093,139.523101 C96.1239573,139.523101 92.7660929,136.165237 92.7660929,132.023101 L92.7660929,67.023101 C92.7660929,62.8809654 96.1239573,59.523101 100.266093,59.523101 Z" id="Rectangle-Copy" stroke="#FFFFFF" stroke-width="5" fill="#FFFFFF" transform="translate(100.266093, 99.523101) rotate(-90.000000) translate(-100.266093, -99.523101) "></path>
        <path d="M100.266093,91.523101 C104.408229,91.523101 107.766093,94.8809654 107.766093,99.023101 L107.766093,164.023101 C107.766093,168.165237 104.408229,171.523101 100.266093,171.523101 C96.1239573,171.523101 92.7660929,168.165237 92.7660929,164.023101 L92.7660929,99.023101 C92.7660929,94.8809654 96.1239573,91.523101 100.266093,91.523101 Z" id="Rectangle-Copy-2" stroke="#FFFFFF" stroke-width="5" fill="#FFFFFF" transform="translate(100.266093, 131.523101) rotate(-90.000000) translate(-100.266093, -131.523101) "></path>
    </g>
</svg>