<?xml version="1.0" encoding="UTF-8"?>
<svg width="200px" height="200px" viewBox="0 0 200 200" version="1.1" xmlns="http://www.w3.org/2000/svg" xmlns:xlink="http://www.w3.org/1999/xlink">
    <title>icons/startYourney</title>
    <g id="icons/startYourney" stroke="none" stroke-width="1" fill="none" fill-rule="evenodd">
        <path d="M99.7660929,41.023101 C103.908229,41.023101 107.266093,44.3809654 107.266093,48.523101 L107.266093,108.523101 C107.266093,112.665237 103.908229,116.023101 99.7660929,116.023101 C95.6239573,116.023101 92.2660929,112.665237 92.2660929,108.523101 L92.2660929,48.523101 C92.2660929,44.3809654 95.6239573,41.023101 99.7660929,41.023101 Z" id="Rectangle" stroke="#1D1D1B" stroke-width="5" fill="#1D1D1B" transform="translate(99.766093, 78.523101) scale(-1, 1) rotate(45.000000) translate(-99.766093, -78.523101) "></path>
        <path d="M99.7660929,83.7098717 C103.908229,83.7098717 107.266093,87.0677361 107.266093,91.2098717 L107.266093,151.209872 C107.266093,155.352007 103.908229,158.709872 99.7660929,158.709872 C95.6239573,158.709872 92.2660929,155.352007 92.2660929,151.209872 L92.2660929,91.2098717 C92.2660929,87.0677361 95.6239573,83.7098717 99.7660929,83.7098717 Z" id="Rectangle-Copy" stroke="#1D1D1B" stroke-width="5" fill="#1D1D1B" transform="translate(99.766093, 121.209872) scale(-1, 1) rotate(-45.000000) translate(-99.766093, -121.209872) "></path>
    </g>
</svg>