<?xml version="1.0" encoding="UTF-8"?>
<svg width="159px" height="159px" viewBox="0 0 159 159" version="1.1" xmlns="http://www.w3.org/2000/svg" xmlns:xlink="http://www.w3.org/1999/xlink">
    <title>region/border land</title>
    <g id="region/border-land" stroke="none" stroke-width="1" fill="none" fill-rule="evenodd">
        <g id="Group" fill="#FFFFFF" stroke="#1D1D1B" stroke-width="4.5">
            <g id="Stroke-5">
                <path d="M79.7224,156.7422 C122.2594,156.7422 156.7424,122.2592 156.7424,79.7222 C156.7424,37.1862 122.2594,2.7032 79.7224,2.7032 C37.1854,2.7032 2.7024,37.1862 2.7024,79.7222 C2.7024,122.2592 37.1854,156.7422 79.7224,156.7422 Z"></path>
            </g>
        </g>
        <polygon id="Stroke-1" stroke="#1D1D1B" stroke-width="4.5" fill="#FFFFFF" stroke-linejoin="round" points="109.912 51.7814 115.285 43.3634 115.285 23.6034 109.912 18.6514 109.912 25.1684 90.569 25.1684 88.42 23.6034 86.54 16.7504 84.39 16.7504 74.988 16.7504 72.839 16.7504 70.958 23.6034 68.809 25.1684 49.466 25.1684 49.466 18.6514 44.093 23.6034 44.093 43.3634 49.466 51.7814 42.75 138.4094 74.988 138.4094 84.39 138.4094 116.628 138.4094"></polygon>
        <polygon id="Stroke-4" stroke="#1D1D1B" stroke-width="3.5" fill="#1D1D1B" stroke-linejoin="round" points="109.912 51.7814 115.285 43.3634 115.285 23.6034 109.912 18.6514 109.912 25.1684 90.569 25.1684 88.42 23.6034 86.54 16.7504 84.39 16.7504 79.689 16.7504 79.689 138.4094 84.39 138.4094 116.628 138.4094"></polygon>
        <path d="M91.4397,102.1644 L91.4397,65.7734 C91.4397,59.2944 86.1687,54.0224 79.6887,54.0224 C73.2097,54.0224 67.9387,59.2944 67.9387,65.7734 L67.9387,102.1644 L67.9387,103.9144 L69.6887,103.9144 L89.6897,103.9144 L91.4397,103.9144 L91.4397,102.1644 Z" id="Stroke-8" stroke="#1D1D1B" stroke-width="4.5" fill="#FFFFFF"></path>
    </g>
</svg>