<?xml version="1.0" encoding="UTF-8"?>
<svg width="159px" height="159px" viewBox="0 0 159 159" version="1.1" xmlns="http://www.w3.org/2000/svg" xmlns:xlink="http://www.w3.org/1999/xlink">
    <title>region/free domain</title>
    <g id="region/free-domain" stroke="none" stroke-width="1" fill="none" fill-rule="evenodd">
        <g id="Group" fill="#FFFFFF" stroke="#1D1D1B" stroke-width="4.5">
            <g id="Stroke-5">
                <path d="M79.7224,156.7422 C122.2594,156.7422 156.7424,122.2592 156.7424,79.7222 C156.7424,37.1862 122.2594,2.7032 79.7224,2.7032 C37.1854,2.7032 2.7024,37.1862 2.7024,79.7222 C2.7024,122.2592 37.1854,156.7422 79.7224,156.7422 Z"></path>
            </g>
        </g>
        <polygon id="Stroke-1" stroke="#1D1D1B" stroke-width="4.5" fill="#FFFFFF" stroke-linejoin="round" points="109.912 50.7814 115.285 42.3634 115.285 22.6034 109.912 17.6514 109.912 24.1684 90.569 24.1684 88.42 22.6034 86.54 15.7504 84.39 15.7504 74.988 15.7504 72.839 15.7504 70.958 22.6034 68.809 24.1684 49.466 24.1684 49.466 17.6514 44.093 22.6034 44.093 42.3634 49.466 50.7814 42.75 137.4094 74.988 137.4094 84.39 137.4094 116.628 137.4094"></polygon>
        <path d="M89.6897,101.1644 L89.6897,64.7734 C89.6897,59.2504 85.2127,54.7724 79.6887,54.7724 C74.1657,54.7724 69.6887,59.2504 69.6887,64.7734 L69.6887,101.1644 L89.6897,101.1644 Z" id="Stroke-5" stroke="#1D1D1B" stroke-width="3.5" fill="#1D1D1B"></path>
    </g>
</svg>