<?xml version="1.0" encoding="UTF-8"?>
<svg width="200px" height="200px" viewBox="0 0 200 200" version="1.1" xmlns="http://www.w3.org/2000/svg" xmlns:xlink="http://www.w3.org/1999/xlink">
    <title>region/playableHazard</title>
    <defs>
        <path d="M139.946809,26 C146.603602,26 152,31.4026534 152,38.0671642 L152,160.932836 C152,167.597347 146.603602,173 139.946809,173 L61.0531915,173 C54.3963976,173 49,167.597347 49,160.932836 L49,38.0671642 C49,31.4026534 54.3963976,26 61.0531915,26 L139.946809,26 Z" id="path-1"></path>
        <filter x="-37.0%" y="-25.9%" width="174.0%" height="151.8%" filterUnits="objectBoundingBox" id="filter-2">
            <feMorphology radius="8.1" operator="dilate" in="SourceAlpha" result="shadowSpreadOuter1"></feMorphology>
            <feOffset dx="0" dy="0" in="shadowSpreadOuter1" result="shadowOffsetOuter1"></feOffset>
            <feGaussianBlur stdDeviation="10" in="shadowOffsetOuter1" result="shadowBlurOuter1"></feGaussianBlur>
            <feComposite in="shadowBlurOuter1" in2="SourceAlpha" operator="out" result="shadowBlurOuter1"></feComposite>
            <feColorMatrix values="0 0 0 0 0   0 0 0 0 0   0 0 0 0 0  0 0 0 0.5 0" type="matrix" in="shadowBlurOuter1"></feColorMatrix>
        </filter>
    </defs>
    <g id="region/playableHazard" stroke="none" stroke-width="1" fill="none" fill-rule="evenodd">
        <g id="Path">
            <use fill="black" fill-opacity="1" filter="url(#filter-2)" xlink:href="#path-1"></use>
            <path stroke="#FFFFFF" stroke-width="8.1" d="M139.946809,21.95 C144.394118,21.95 148.420614,23.7543599 151.335143,26.6722675 C154.247975,29.5884759 156.05,33.6170694 156.05,38.0671642 L156.05,38.0671642 L156.05,160.932836 C156.05,165.382931 154.247975,169.411524 151.335143,172.327732 C148.420614,175.24564 144.394118,177.05 139.946809,177.05 L139.946809,177.05 L61.0531915,177.05 C56.6058817,177.05 52.579386,175.24564 49.6648571,172.327732 C46.7520255,169.411524 44.95,165.382931 44.95,160.932836 L44.95,160.932836 L44.95,38.0671642 C44.95,33.6170694 46.7520255,29.5884759 49.6648571,26.6722675 C52.579386,23.7543599 56.6058817,21.95 61.0531915,21.95 L61.0531915,21.95 Z" fill="#1D1D1B" fill-rule="evenodd"></path>
        </g>
        <path d="M137.142857,32 L137.433492,32.0042084 C142.743014,32.1581642 147,36.5167325 147,41.8709677 L147,41.8709677 L147,158.129032 L146.995797,158.420075 C146.842057,163.737043 142.489593,168 137.142857,168 L137.142857,168 L64.8571429,168 L64.566508,167.995792 C59.2569864,167.841836 55,163.483267 55,158.129032 L55,158.129032 L55,41.8709677 L55.0042025,41.5799253 C55.1579427,36.2629569 59.5104066,32 64.8571429,32 L64.8571429,32 L137.142857,32 Z M137.3,34 L64.7,34 L64.4352853,34.0044649 C60.3931346,34.1410228 57.1410228,37.3931346 57.0044649,41.4352853 L57.0044649,41.4352853 L57,41.7 L57,158.3 L57.0044649,158.564715 C57.1410228,162.606865 60.3931346,165.858977 64.4352853,165.995535 L64.4352853,165.995535 L64.7,166 L137.3,166 L137.564715,165.995535 C141.606865,165.858977 144.858977,162.606865 144.995535,158.564715 L144.995535,158.564715 L145,158.3 L145,41.7 L144.995535,41.4352853 C144.856009,37.3052617 141.463997,34 137.3,34 L137.3,34 Z" id="Combined-Shape" stroke="#FC0070" stroke-width="1.1" fill="#FC0070"></path>
        <path d="M96.3959245,83.1373658 C101.350496,82.5326077 106.26234,84.0057538 111.260477,85.9676988 L111.260477,85.9676988 L112.372647,86.4110868 L113.487973,86.8666916 L115.729349,87.7990507 C118.58154,88.9894416 121.247822,91.1675607 123.556119,93.3908159 L123.556119,93.3908159 L124.237696,94.0582039 L124.896762,94.7226445 C125.004673,94.8328248 125.111603,94.9426466 125.21753,95.0519922 L125.21753,95.0519922 L125.840892,95.7014076 L128.073088,98.0716508 L128.793167,98.8161354 C129.402982,99.4325355 129.930739,99.9204241 130.365427,100.219475 C130.891627,100.581485 131.534644,100.899118 132.22197,101.192699 L132.22197,101.192699 L132.744639,101.408693 L133.277126,101.617573 L134.606689,102.121153 L135.120008,102.320138 L135.612557,102.520584 L136.077536,102.724395 C137.19986,103.239717 138,103.804455 138,104.55258 C138,106.014629 136.056722,106.541924 133.903011,106.706589 L133.903011,106.706589 L133.421649,106.737445 L132.937585,106.757757 L132.455045,106.768921 L131.978255,106.772333 C130.555653,106.772333 128.237922,107.591924 125.92041,108.578789 L125.92041,108.578789 L125.053102,108.955431 L124.196307,109.340109 L123.360517,109.725181 L122.556225,110.103002 L120.140728,111.257905 L119.776899,111.423067 C119.711633,111.451505 119.64409,111.480383 119.574323,111.509676 L119.574323,111.509676 L119.129484,111.690222 L118.633903,111.879561 L118.090192,112.076525 L117.500964,112.279944 L116.868831,112.48865 L116.196405,112.701472 L115.486297,112.917242 L114.741121,113.134791 L113.963488,113.352948 L113.156011,113.570546 L112.321301,113.786413 L111.461972,113.999383 L110.580634,114.208284 L109.679901,114.411948 L108.762383,114.609205 L107.830695,114.798887 L106.887447,114.979823 L105.935252,115.150845 C105.775952,115.178458 105.616388,115.205608 105.456615,115.232273 L105.456615,115.232273 L104.495897,115.386231 L103.532762,115.527352 C102.729868,115.639278 101.927178,115.736615 101.131493,115.816316 L101.131493,115.816316 L100.180471,115.903297 C99.8648741,115.929339 99.550834,115.952365 99.2387856,115.972179 C96.6686029,116.135378 93.3614497,115.566267 89.951271,114.6407 L89.951271,114.6407 L89.0597389,114.391408 L89.0597389,114.391408 L88.6130017,114.261161 L87.7191478,113.990392 C87.5702342,113.944184 87.4213863,113.897457 87.2726564,113.850241 L87.2726564,113.850241 L86.3821078,113.56133 L85.496889,113.262179 L84.6195009,112.954269 C84.4740611,112.902303 84.3290517,112.850035 84.184525,112.797494 L84.184525,112.797494 L83.3235724,112.479227 L82.476703,112.15591 L81.6464178,111.829024 L80.8352177,111.500052 L80.0456037,111.170478 L79.2800768,110.841784 L78.541138,110.515452 L77.4880533,110.033629 L76.8265264,109.719691 L76.200341,109.413306 L75.332799,108.971133 C75.2414484,108.923317 75.1518309,108.875971 75.0639985,108.829125 L75.0639985,108.829125 L74.5588434,108.554294 C74.4783602,108.509571 74.3997664,108.46541 74.323114,108.421842 L74.323114,108.421842 L73.8869148,108.167792 L73.4998125,107.929451 L73.164308,107.708299 L72.8829022,107.505822 C72.7983947,107.441606 72.7233204,107.38075 72.6580963,107.3235 L72.6580963,107.3235 L72.4169147,107.120373 C70.8102784,105.823397 69.2335717,105.654798 67.9936264,105.675068 L67.9936264,105.675068 L67.6320525,105.685875 L66.8285991,105.725478 L66.5522429,105.731556 C65.2401532,105.731556 63,104.156326 63,101.54032 C63,99.9778184 64.2672607,99.1500564 65.7764749,98.4619124 L65.7764749,98.4619124 L66.1933073,98.2772513 L67.5399138,97.7076838 C67.9965095,97.5103908 68.4403237,97.3056074 68.8449125,97.0779847 C70.3284046,96.2433682 71.7777124,95.0788184 73.3306643,93.694226 L73.3306643,93.694226 L74.188836,92.9178319 C74.3338539,92.785016 74.4799355,92.6505467 74.6271843,92.5145065 L74.6271843,92.5145065 L75.9867341,91.2499613 C76.599157,90.6788256 77.6809826,89.9779168 79.0616187,89.2284581 L79.0616187,89.2284581 L79.7194315,88.8794026 L80.4159518,88.5252269 L81.1474525,88.1677056 L81.9102065,87.8086134 L82.7004867,87.4497248 L83.514566,87.0928143 C83.6520221,87.0335926 83.7903145,86.9745273 83.9293657,86.9156554 L83.9293657,86.9156554 L84.7721554,86.5650393 C84.9139306,86.5070886 85.0563093,86.4494051 85.1992137,86.3920259 L85.1992137,86.3920259 L86.0623278,86.0516971 C86.3517213,85.9396684 86.6425966,85.8291523 86.9343326,85.7204448 L86.9343326,85.7204448 L87.811501,85.4000433 C87.957919,85.3476459 88.1043968,85.2957746 88.2508569,85.2444662 L88.2508569,85.2444662 L89.1287824,84.9436685 C91.7581914,84.063319 94.3315196,83.3893484 96.3959245,83.1373658 Z M99.1745061,90.2401004 C99.1745061,88.7275817 97.8410787,87.5747573 96.0673879,88.1511695 L96.0673879,88.1511695 L95.7830383,88.2341908 C95.7306046,88.2481799 95.6757092,88.2622648 95.6184411,88.276475 L95.6184411,88.276475 L95.0413712,88.4085491 L92.6856812,88.8932539 L91.7403773,89.1002733 L91.0781766,89.2550486 L90.395364,89.4248886 L89.696214,89.6112117 C87.5785321,90.1963238 85.2979976,91.0231057 83.3739417,92.2638931 L83.3739417,92.2638931 L82.171096,93.0394101 L80.6349039,94.0395069 L79.7117322,94.6537338 L79.112881,95.0608045 L78.5311151,95.4650485 L77.9696982,95.8656983 L77.4318943,96.2619863 C75.4197414,97.7717491 74,99.1684511 74,100.257524 C74,101.659189 76.5805614,104.370388 79.9933088,106.721367 L79.9933088,106.721367 L80.6038411,107.132166 L81.2295153,107.533448 C82.3891602,108.25916 83.6143811,108.926606 84.8459705,109.47924 L84.8459705,109.47924 L87.5769475,110.708149 L88.6225001,111.168192 C92.4206518,112.81502 95.8703658,114 100.374632,114 C105.039764,114 108.864848,112.869992 112.65842,111.393116 L112.65842,111.393116 L113.692856,110.98232 C113.865335,110.912617 114.0379,110.842344 114.210628,110.771575 L114.210628,110.771575 L115.249555,110.341598 L116.250566,109.921452 L117.372795,109.439222 L118.012423,109.157549 L118.330624,109.015308 L119.274484,108.58393 L119.891188,108.293273 L120.790281,107.854293 C120.888151,107.805385 120.985285,107.756446 121.081623,107.70749 L121.081623,107.70749 L121.649626,107.413654 L122.195665,107.120047 L122.716878,106.827314 L123.2104,106.536101 C124.885927,105.520267 126,104.544202 126,103.732325 C126,103.001911 125.127508,101.478778 123.605302,99.7147466 L123.605302,99.7147466 L123.193614,99.2494627 C122.909524,98.9361142 122.60637,98.6169309 122.285322,98.2948154 L122.285322,98.2948154 L121.790477,97.8098059 C119.673926,95.7827937 116.881306,93.6979372 113.698714,92.2638931 C113.534829,92.1900481 113.372533,92.1173478 113.211825,92.0457923 L113.211825,92.0457923 L112.266644,91.6301961 L111.359593,91.242074 C111.211596,91.1796765 111.065187,91.1184237 110.920367,91.0583157 L110.920367,91.0583157 L110.070511,90.7114046 L109.258786,90.3919675 L108.485191,90.1000044 C108.359436,90.0536334 108.235269,90.0084071 108.112692,89.9643256 L108.112692,89.9643256 L107.396292,89.7135735 L106.718022,89.4902955 L106.077883,89.2944915 L105.475873,89.1261615 C104.698614,88.9200375 104.023036,88.7871776 103.449138,88.7275817 C103.921741,92.6571808 103.921741,96.2970033 103.449138,99.6470493 L103.449138,99.6470493 L103.282066,100.798486 L103.097307,102.003615 L102.896943,103.238715 L102.683055,104.48006 L102.452925,105.729069 L102.2726,106.644772 L102.149778,107.236111 L102.025202,107.80839 L101.835668,108.624029 L101.707943,109.134574 L101.579452,109.61479 L101.450479,110.06146 L101.321305,110.471362 L101.192214,110.841278 C100.912809,111.59712 100.635971,112.04872 100.374632,112.04872 C100.124978,112.04872 99.8048153,111.63006 99.4614217,110.925842 L99.4614217,110.925842 L99.301455,110.581027 L99.1392223,110.198567 L98.9757565,109.781371 L98.8120906,109.332347 L98.6492575,108.854402 L98.4882902,108.350444 L98.3302218,107.823383 L98.176085,107.276124 L98.026913,106.711578 C98.0025221,106.616208 97.9783811,106.520238 97.9545115,106.42373 L97.9545115,106.42373 L97.8147233,105.838704 C97.7920255,105.740284 97.7696422,105.641446 97.7475949,105.542252 L97.7475949,105.542252 L97.6195147,104.943288 L97.5005311,104.338669 L97.3916771,103.731301 L97.2939855,103.124093 L97.2084893,102.519953 L97.2084893,102.519953 L97.1706374,102.219942 L97.1053712,101.625856 C97.0956963,101.527622 97.0866371,101.429819 97.0782153,101.332508 L97.0782153,101.332508 L97.0355032,100.755019 C97.0123562,100.374603 97.0000941,100.003988 97.0000941,99.6470493 L97.0000941,99.6470493 L97.0000941,92.2638931 L97.2349843,92.2039946 C98.5279988,91.8470584 99.1745061,91.192427 99.1745061,90.2401004 Z" id="Combined-Shape" stroke="#FC0070" stroke-width="1.1" fill="#FC0070"></path>
    </g>
</svg>