<?xml version="1.0" encoding="UTF-8"?>
<svg width="159px" height="159px" viewBox="0 0 159 159" version="1.1" xmlns="http://www.w3.org/2000/svg" xmlns:xlink="http://www.w3.org/1999/xlink">
    <title>region/shadow-land</title>
    <g id="region/shadow-land" stroke="none" stroke-width="1" fill="none" fill-rule="evenodd">
        <g id="Group" fill="#FFFFFF" stroke="#1D1D1B" stroke-width="4.5">
            <g id="Stroke-5">
                <path d="M79.7224,156.7422 C122.2594,156.7422 156.7424,122.2592 156.7424,79.7222 C156.7424,37.1862 122.2594,2.7032 79.7224,2.7032 C37.1854,2.7032 2.7024,37.1862 2.7024,79.7222 C2.7024,122.2592 37.1854,156.7422 79.7224,156.7422 Z"></path>
            </g>
        </g>
        <polygon id="Stroke-1" stroke="#1D1D1B" stroke-width="4.5" stroke-linejoin="round" points="109.912 50.7816 115.285 42.3636 115.285 22.6036 109.912 17.6516 109.912 24.1686 90.569 24.1686 88.42 22.6036 86.54 15.7506 84.39 15.7506 74.988 15.7506 72.839 15.7506 70.958 22.6036 68.809 24.1686 49.466 24.1686 49.466 17.6516 44.093 22.6036 44.093 42.3636 49.466 50.7816 42.75 137.4096 74.988 137.4096 84.39 137.4096 116.628 137.4096"></polygon>
        <polygon id="Stroke-4" fill="#1D1D1B" points="46.4847 89.325 42.7497 137.496 74.9877 137.496 84.3907 137.496 116.6287 137.496 109.9117 50.868 115.2847 42.45 115.2847 22.69 114.1577 21.652"></polygon>
    </g>
</svg>