<?xml version="1.0" encoding="UTF-8"?>
<svg width="200px" height="200px" viewBox="0 0 200 200" version="1.1" xmlns="http://www.w3.org/2000/svg" xmlns:xlink="http://www.w3.org/1999/xlink">
    <title>region/turn</title>
    <g id="region/turn" stroke="none" stroke-width="1" fill="none" fill-rule="evenodd" stroke-linejoin="round">
        <path d="M127,15 L127.000902,42.0103407 C158.02897,42.5896411 183,67.4352355 183,98 C183,128.618667 157.940818,153.497973 126.836688,153.992498 L125.892308,154 L137.988131,142.062623 C129.469034,136.161722 125.140784,132.804422 125.003379,131.990723 L125,131.952756 C144.219509,131.952756 159.8,116.949007 159.8,98.4409449 C159.8,80.5795607 145.289264,65.9818842 127.000771,64.9835943 L127,98 L80,56.5 L127,15 Z" id="Combined-Shape" stroke="#1D1D1B" stroke-width="5" fill="#5CB2DE"></path>
        <path d="M64,46 L64.0009015,73.0103407 C95.0289704,73.5896411 120,98.4352355 120,129 C120,159.618667 94.9408181,184.497973 63.8366878,184.992498 L62.8923077,185 L74.988131,173.062623 C66.4690343,167.161722 62.1407836,163.804422 62.0033788,162.990723 L62,162.952756 C81.2195093,162.952756 96.8,147.949007 96.8,129.440945 C96.8,111.579561 82.2892635,96.9818842 64.0007714,95.9835943 L64,129 L17,87.5 L64,46 Z" id="Combined-Shape-Copy" stroke="#1D1D1B" stroke-width="5" fill="#5CB2DE" transform="translate(68.500000, 115.500000) rotate(180.000000) translate(-68.500000, -115.500000) "></path>
    </g>
</svg>