<?xml version="1.0" encoding="UTF-8"?>
<svg width="159px" height="159px" viewBox="0 0 159 159" version="1.1" xmlns="http://www.w3.org/2000/svg" xmlns:xlink="http://www.w3.org/1999/xlink">
    <title>region/wilderness</title>
    <g id="region/wilderness" stroke="none" stroke-width="1" fill="none" fill-rule="evenodd">
        <g id="Group" fill="#FFFFFF" stroke="#1D1D1B" stroke-width="9.5">
            <g id="Stroke-5">
                <path d="M79.7224,153.7422 C120.602545,153.7422 153.7424,120.602353 153.7424,79.7222195 C153.7424,38.8430466 120.602545,5.7032 79.7224,5.7032 C38.8422554,5.7032 5.7024,38.8430466 5.7024,79.7222195 C5.7024,120.602353 38.8422554,153.7422 79.7224,153.7422 Z"></path>
            </g>
        </g>
        <path d="M82.6205,17.7502 C82.6205,17.7502 71.6105,36.6792 65.6825,42.8952 L75.2975,42.3302 L58.0595,68.8872 L68.0985,68.6052 C68.0985,68.6052 58.0595,83.0142 50.7205,93.1842 L63.5815,93.1842 L50.1555,120.3072 L74.4335,120.0242 L74.4335,142.0612 L84.5965,142.0612 L84.5965,119.7422 L110.0045,119.7422 L97.4245,93.4672 L110.0045,93.4672 L92.9075,68.3222 L101.5345,68.0402 L85.8495,42.6122 L95.3245,42.3302 C95.3245,42.3302 88.5485,32.7242 82.6205,17.7502 Z" id="Stroke-3" stroke="#1D1D1B" stroke-width="4.5" fill="#1D1D1B" stroke-linejoin="round"></path>
        <line x1="36" y1="142.914" x2="123.591" y2="142.914" id="Stroke-5" stroke="#1D1D1B" stroke-width="5.5"></line>
    </g>
</svg>