<?xml version="1.0" encoding="UTF-8"?>
<svg width="159px" height="159px" viewBox="0 0 159 159" version="1.1" xmlns="http://www.w3.org/2000/svg" xmlns:xlink="http://www.w3.org/1999/xlink">
    <title>region/coastal-sea</title>
    <g id="region/coastal-sea" stroke="none" stroke-width="1" fill="none" fill-rule="evenodd">
        <g id="Group" fill="#FFFFFF" stroke="#1D1D1B" stroke-width="9.5">
            <g id="Stroke-5">
                <path d="M79.7224,153.7422 C120.602545,153.7422 153.7424,120.602353 153.7424,79.7222195 C153.7424,38.8430466 120.602545,5.7032 79.7224,5.7032 C38.8422554,5.7032 5.7024,38.8430466 5.7024,79.7222195 C5.7024,120.602353 38.8422554,153.7422 79.7224,153.7422 Z"></path>
            </g>
        </g>
        <path d="M120.483,98.9813 C119.566,93.7703 133.402,92.9913 134.298,90.3023 C135.007,88.1763 129.337,84.9163 116.798,86.2253 C104.259,87.5343 92.629,98.8063 86.534,103.0583 C81.311,106.7023 75.837,106.2583 74.137,103.8003 C72.436,101.3413 73.57,97.7053 78.672,94.5873 C83.774,91.4693 93.054,90.8693 93.054,88.6013 C93.054,86.3333 85.05,84.9503 72.861,85.5163 C61.097,85.8003 42.956,99.8313 39.27,102.6663 C33.944,106.7633 28.64,105.0753 27.79,102.8083 C26.764,100.0713 30.044,96.1943 32.609,94.3043 C37.995,90.3353 46.782,90.7613 47.349,89.0603 C48.049,86.9593 46.282,84.6333 31.825,83.7823 C22.777,83.2503 11.288,89.3803 3.956,94.0413 C11.13,129.1473 42.188,155.5583 79.414,155.5583 C112.454,155.5583 140.624,134.7493 151.561,105.5263 C145.588,105.3153 138.913,105.0373 135.715,104.7593 C129.196,104.1923 121.4,104.1923 120.483,98.9813 Z" id="Stroke-3" stroke="#1D1D1B" stroke-width="3.5" fill="#1D1D1B"></path>
    </g>
</svg>