<?xml version="1.0" encoding="UTF-8"?>
<svg width="159px" height="159px" viewBox="0 0 159 159" version="1.1" xmlns="http://www.w3.org/2000/svg" xmlns:xlink="http://www.w3.org/1999/xlink">
    <title>region/dark-domain</title>
    <g id="region/dark-domain" stroke="none" stroke-width="1" fill="none" fill-rule="evenodd">
        <g id="Group" fill="#FFFFFF" stroke="#1D1D1B" stroke-width="9.5">
            <g id="Stroke-5">
                <path d="M79.7224,153.7422 C120.602545,153.7422 153.7424,120.602353 153.7424,79.7222195 C153.7424,38.8430466 120.602545,5.7032 79.7224,5.7032 C38.8422554,5.7032 5.7024,38.8430466 5.7024,79.7222195 C5.7024,120.602353 38.8422554,153.7422 79.7224,153.7422 Z"></path>
            </g>
        </g>
        <polygon id="Stroke-2" stroke="#1D1D1B" stroke-width="4.5" fill="#1D1D1B" stroke-linejoin="round" points="109.912 51.7814 115.285 43.3634 115.285 23.6034 109.912 18.6514 109.912 25.1684 90.569 25.1684 88.42 23.6034 86.54 16.7504 84.39 16.7504 74.988 16.7504 72.839 16.7504 70.958 23.6034 68.809 25.1684 49.466 25.1684 49.466 18.6514 44.093 23.6034 44.093 43.3634 49.466 51.7814 42.75 138.4094 74.988 138.4094 84.39 138.4094 116.628 138.4094"></polygon>
    </g>
</svg>