<?xml version="1.0" encoding="UTF-8"?>
<svg width="200px" height="200px" viewBox="0 0 200 200" version="1.1" xmlns="http://www.w3.org/2000/svg" xmlns:xlink="http://www.w3.org/1999/xlink">
    <title>site/border-hold_shadow</title>
    <defs>
        <filter x="-24.5%" y="-24.5%" width="149.1%" height="149.1%" filterUnits="objectBoundingBox" id="filter-1">
            <feOffset dx="0" dy="0" in="SourceAlpha" result="shadowOffsetOuter1"></feOffset>
            <feGaussianBlur stdDeviation="10" in="shadowOffsetOuter1" result="shadowBlurOuter1"></feGaussianBlur>
            <feColorMatrix values="0 0 0 0 0   0 0 0 0 0   0 0 0 0 0  0 0 0 0.5 0" type="matrix" in="shadowBlurOuter1" result="shadowMatrixOuter1"></feColorMatrix>
            <feMerge>
                <feMergeNode in="shadowMatrixOuter1"></feMergeNode>
                <feMergeNode in="SourceGraphic"></feMergeNode>
            </feMerge>
        </filter>
        <polygon id="path-2" points="109.912 53.7814 115.285 45.3634 115.285 25.6034 109.912 20.6514 109.912 27.1684 90.569 27.1684 88.42 25.6034 86.54 18.7504 84.39 18.7504 74.988 18.7504 72.839 18.7504 70.958 25.6034 68.809 27.1684 49.466 27.1684 49.466 20.6514 44.093 25.6034 44.093 45.3634 49.466 53.7814 42.75 140.4094 74.988 140.4094 84.39 140.4094 116.628 140.4094"></polygon>
    </defs>
    <g id="site/border-hold_shadow" stroke="none" stroke-width="1" fill="none" fill-rule="evenodd">
        <g id="site/border-hold" transform="translate(20.000000, 21.000000)" filter="url(#filter-1)">
            <g id="Stroke-1" stroke-linejoin="round">
                <use fill="#FFFFFF" fill-rule="evenodd" xlink:href="#path-2"></use>
                <path stroke="#FFFFFF" stroke-width="9" d="M105.412,10.3842776 L119.785,23.631085 L119.785,46.6771216 L114.514858,54.933971 L121.490374,144.9094 L37.8876258,144.9094 L44.8631416,54.933971 L39.593,46.6771216 L39.593,23.631085 L53.966,10.3842776 L53.966,22.6684 L67.097,22.668 L69.407719,14.2504 L89.9717639,14.2504 L92.281,22.668 L105.412,22.6684 L105.412,10.3842776 Z"></path>
                <use stroke="#1D1D1B" stroke-width="5" xlink:href="#path-2"></use>
            </g>
            <polygon id="Stroke-4" stroke="#1D1D1B" stroke-width="3.5" fill="#1D1D1B" stroke-linejoin="round" points="109.912 53.7814 115.285 45.3634 115.285 25.6034 109.912 20.6514 109.912 27.1684 90.569 27.1684 88.42 25.6034 86.54 18.7504 84.39 18.7504 79.689 18.7504 79.689 140.4094 84.39 140.4094 116.628 140.4094"></polygon>
            <path d="M91.4397,104.1644 L91.4397,67.7734 C91.4397,61.2944 86.1687,56.0224 79.6887,56.0224 C73.2097,56.0224 67.9387,61.2944 67.9387,67.7734 L67.9387,104.1644 L67.9387,105.9144 L69.6887,105.9144 L89.6897,105.9144 L91.4397,105.9144 L91.4397,104.1644 Z" id="Stroke-8" stroke="#1D1D1B" stroke-width="4.5" fill="#FFFFFF"></path>
        </g>
    </g>
</svg>