<?xml version="1.0" encoding="UTF-8"?>
<svg width="159px" height="159px" viewBox="0 0 159 159" version="1.1" xmlns="http://www.w3.org/2000/svg" xmlns:xlink="http://www.w3.org/1999/xlink">
    <title>site/wizardhaven</title>
    <defs>
        <polygon id="path-1" points="67.9654067 52.3910588 78.9601644 14 90.4723977 52.6509463 129.020217 37.8648112 106.771508 71.0672708 142 92.0788099 101.596752 95.7108294 107.288983 136.176413 79.3480429 107.123918 51.9254908 137 56.841052 96.4886617 17 92.5976699 51.4080153 72.6238505 29.9359754 38.1237836"></polygon>
    </defs>
    <g id="site/wizardhaven" stroke="none" stroke-width="1" fill="none" fill-rule="evenodd">
        <g id="Stroke-4" stroke-linecap="round" stroke-linejoin="round">
            <use fill="#FFFFFF" fill-rule="evenodd" xlink:href="#path-1"></use>
            <path stroke="#FFFFFF" stroke-width="9" d="M78.8754151,-2.04867427 L93.3979695,46.7090653 L140.658063,28.5810847 L113.150113,69.6320769 L156.21731,95.3189012 L106.711934,99.7691496 L113.68147,149.31499 L79.4245803,113.695282 L45.7714888,150.359358 L51.8189412,100.519598 L2.6602661,95.7186198 L45.135468,71.0618065 L19.1184918,29.2591913 L64.9815529,46.4653628 L78.8754151,-2.04867427 Z"></path>
            <use stroke="#1D1D1B" stroke-width="5" xlink:href="#path-1"></use>
        </g>
        <path d="M79,107 C94.464082,107 107,94.4642851 107,79.0004538 C107,63.5366225 94.464082,51 79,51 C63.535918,51 51,63.5366225 51,79.0004538 C51,94.4642851 63.535918,107 79,107 Z" id="Stroke-6" stroke="#1D1D1B" stroke-width="5"></path>
    </g>
</svg>