<?xml version="1.0" encoding="UTF-8"?>
<svg width="159px" height="159px" viewBox="0 0 159 159" version="1.1" xmlns="http://www.w3.org/2000/svg" xmlns:xlink="http://www.w3.org/1999/xlink">
    <title>creature/balrog</title>
    <g id="creature/balrog" stroke="none" stroke-width="1" fill="none" fill-rule="evenodd">
        <path d="M97.4147736,121.522314 C97.8228647,122.205655 96.1905003,126.616311 95.8977393,127.468269 C95.4098043,128.932572 94.7000807,130.396874 94.0081001,131.781305 C92.5620382,134.674412 90.6280413,137.540894 87.5584866,138.872078 C85.10994,139.937026 82.3331463,139.84828 79.6716826,139.635291 C73.3551422,139.129441 65.9474018,136.813181 59.7107053,138.490472 C59.2138988,138.623591 58.6904776,138.801082 58.3622304,139.200437 C58.0339832,139.590918 58.0073686,140.283133 58.4420743,140.567119 C58.6461198,140.700238 58.9033947,140.726861 59.1517979,140.735736 C65.494953,141.126217 71.8292364,141.507823 78.1635199,141.898303 C81.3306616,142.093544 84.4978034,142.279909 87.6738167,142.47515 C90.3352803,142.634892 93.5733944,142.173415 95.9598401,143.602219 C96.7050499,144.045947 97.405902,144.809159 97.2905719,145.669991 C97.1929849,146.442078 96.4921329,146.974552 95.8090239,147.329534 C91.453095,149.61917 86.1656539,148.190366 81.2685608,148.651843 C81.2419462,147.649018 82.4573479,147.152043 83.4420895,146.983426 C85.6244896,146.637318 87.8068898,146.734938 90.0070331,146.734938 C90.4683535,146.743813 90.96516,146.734938 91.355508,146.486451 C91.745856,146.229089 91.9587731,145.643368 91.648269,145.288385 C91.4176088,145.022148 91.0272608,145.013274 90.6812706,145.013274 C84.9325091,145.039898 79.1837476,144.800284 73.4616008,144.303309 C68.1919028,143.841832 63.0641495,144.276685 57.7944515,143.442477 C55.8604546,143.131867 53.6780544,142.519523 52.826386,140.76236 C51.8416445,138.73896 53.2699633,136.209711 55.2749326,135.198011 C57.2799018,134.186311 59.6397329,134.275057 61.8842339,134.381551 C67.3224913,134.656663 72.7607487,134.931774 78.1990061,135.206885 C82.1024861,135.402126 86.5560019,135.393251 89.1997225,132.509019 C90.6812706,130.893849 91.94103,128.000743 92.428965,125.861974 C92.7128545,124.646159 92.8459277,123.403721 93.014487,122.170157 C93.2628903,120.395245 93.4846789,118.620333 93.7153391,116.854296 C93.7419538,116.632432 93.795183,116.392819 93.7330822,116.197578 C92.8547992,113.721576 91.9321585,111.263323 91.0804901,108.778446 C90.6102982,107.420639 89.8562168,105.450486 88.4722557,104.811518 C88.0552931,104.616278 87.5939727,104.527532 87.1503955,104.429912 C84.4534456,103.879689 81.7653674,103.320592 79.0772891,102.770369 C77.6755849,102.486383 76.1408075,102.619502 74.8012042,102.291143 C73.3107845,101.909537 71.9090803,100.871214 70.4186607,100.400862 C69.5847354,100.134625 68.3782052,100.312116 67.8813987,101.510182 C67.7483255,101.811917 67.5087938,102.069279 67.3136198,102.353265 C66.5595384,103.427087 66.586153,104.403288 67.4023352,105.530357 C69.3363321,108.174976 71.2082282,110.881717 73.0268951,113.606207 C77.4892824,120.297625 82.0581284,126.918046 86.2543694,133.769207 C87.549615,135.890226 87.7714037,138.667964 88.3214395,141.223837 C85.8462783,139.768409 83.255787,138.703462 81.5347072,136.289582 C80.23059,134.470297 78.5272533,132.926123 77.0368336,131.231083 C75.8480465,129.882149 74.668131,128.524342 73.5858024,127.104412 C69.8508818,122.21453 66.1691904,117.306898 62.4608844,112.399267 C62.3810405,112.292772 62.2302242,112.239525 61.9552063,112.062033 C61.316455,114.884143 59.4534305,116.818797 57.5904059,118.815573 C56.8363246,119.632033 56.6943798,121.00759 56.241931,122.11691 C55.0087862,125.098762 54.9466854,128.204858 54.8579699,131.390825 C54.8047407,133.165737 53.4917519,134.949523 52.6045974,136.653439 C52.2053778,137.416651 51.3891956,137.94025 50.8480314,138.650214 C48.4970718,141.729687 45.4186455,141.960425 42.0297152,140.939851 C40.0957182,140.363005 39.5101962,139.014071 40.3884792,137.185912 C40.7876988,136.351703 41.2401476,135.526369 41.8167981,134.816405 C44.8863528,131.000344 46.8292213,126.625186 48.044623,121.948293 C48.3018978,120.945468 48.1599531,119.58766 47.6720181,118.682455 C46.19047,115.931341 44.3718032,113.357719 42.8281543,110.633229 C38.6496563,103.285094 36.2986968,95.2269935 34.0808104,87.1511441 C33.4598022,84.8792568 33.3888299,82.456502 33.0605827,80.1047437 C32.7589501,77.9571002 32.4040883,75.8094567 32.1822997,73.6440641 C31.9161533,71.026069 31.5169338,68.3903248 31.6322639,65.7812042 C31.8274379,61.3261752 32.1201989,56.8356479 32.838794,52.4338663 C33.796921,46.6299042 35.7131748,41.0566807 38.4101246,35.8118158 C40.6457541,31.4366579 43.2894746,27.301113 47.068753,24.0618987 C50.4576834,21.1687922 54.9821716,18.5419225 59.5510175,18.470926 C59.85265,18.4620515 60.1986403,18.4886752 60.4115574,18.7105391 C60.7841623,19.1187689 60.438172,19.80211 60.633346,20.3168345 C62.1858665,19.9707266 63.8803317,20.2990853 65.1933204,21.1954159 C65.7167416,21.5592728 66.2224197,22.2337394 65.885301,22.766213 C64.536826,22.4733525 63.1173788,22.2869867 61.7866469,22.6685928 C59.6308614,23.2986866 59.6486045,25.4907028 57.7500938,26.2272913 C53.4473942,27.8957085 54.1659894,32.6347234 54.1482463,36.3176657 C54.1482463,36.8412648 54.1482463,37.3648638 54.2103471,37.8795883 C54.485365,40.06273 56.046757,42.0417568 58.1138271,42.8049689 C60.3849428,43.6480521 64.1021203,43.0268329 64.927174,40.3999632 C64.9981464,40.1692247 65.0425041,39.9029879 64.9183025,39.698873 C64.8473301,39.5657546 64.7231285,39.477009 64.5900553,39.397138 C63.4722406,38.7670442 61.9552063,39.175274 60.9083639,38.4386855 C59.9236224,37.7553444 59.7639346,36.3620385 59.9324939,35.1728475 C60.6244745,30.345087 65.610283,26.7331412 70.4541469,28.2773146 C70.6581924,28.3394365 70.862238,28.4193075 70.9953112,28.5879242 C71.252586,28.9251574 71.0485404,29.4487565 70.6848071,29.6706205 C69.8420102,30.1853449 68.3338475,30.3983344 67.3757206,30.788815 C66.3377498,31.1970447 65.2820359,31.6318982 64.4747252,32.3951103 C63.6674146,33.1583225 63.1617365,34.3475135 63.5077268,35.4035861 C63.6053138,35.687572 63.7650016,35.9715579 64.0134049,36.1401745 C64.3771382,36.3797877 64.8384586,36.3620385 65.2731643,36.3265403 C66.56841,36.2466693 69.4516622,37.0010068 70.4630184,35.989307 C71.5542185,35.1550984 72.4413731,34.8977362 73.6035455,35.7141957 C74.7213603,36.5129061 77.9151166,35.6609483 78.9974452,35.1905966 C82.5017056,33.690796 80.2394615,30.1498467 77.5158971,29.2890144 C75.9456335,28.8009136 74.2689114,28.854161 72.6365471,28.6500461 C72.5655747,28.2151927 72.8672072,27.7803392 73.2575552,27.5762244 C73.6390317,27.3632349 74.1003521,27.3277367 74.5350578,27.2922384 C75.4665701,27.221242 76.3892108,27.1591201 77.3207231,27.0881236 C78.9087297,26.9638797 80.6386811,26.8751341 81.9605414,27.7625901 C83.1582,28.5613005 83.7614651,29.9989792 84.0187399,31.4100342 C84.2582716,32.6968454 84.2405286,34.1079004 83.548548,35.2172203 C83.1315854,35.8828123 82.4928341,36.4064113 82.18233,37.1252507 C81.304047,39.1663994 84.9058945,40.9235623 86.4939011,40.8791895 C87.7980183,40.8436912 89.0755208,41.0744298 89.794116,39.4681345 C90.2997941,38.3233162 91.2135633,37.3737384 91.8256999,36.2644184 C92.3668642,35.2704677 92.9080285,34.2232696 93.1475602,33.1316988 C93.3959635,31.9957551 93.4758074,30.7533168 93.2806334,29.6173731 C93.0322301,28.1264471 92.6684968,26.5645245 91.9676447,25.2422151 C91.0893617,23.6092961 90.1401063,22.9170805 88.5964574,22.0384991 C88.135137,21.7722623 87.7625321,21.1599176 88.0730362,20.7339388 C86.4051856,20.0949705 84.5155465,20.0594722 82.8299528,20.6451932 C82.9452829,19.7133644 83.8324375,19.1010198 84.6841058,18.7194137 C86.2366263,18.0449472 87.9665777,17.7698358 89.6610428,17.9384524 C89.3948965,17.2639859 90.2731795,16.6427667 91.0006462,16.678265 C94.1145587,16.8557562 96.6163345,19.5358732 99.0116518,21.3107852 C99.1713396,21.4261544 99.2689266,21.6480184 99.437486,21.7101404 C103.42081,23.2454392 104.858,26.8485105 106.525851,30.2918397 C108.167087,33.6641724 110.207542,36.8856376 111.467302,40.3822141 C112.939978,44.4733862 113.986821,48.7597985 114.820746,53.0373363 C115.672414,57.4479926 116.275679,61.9296452 116.56844,66.4112979 C116.816844,70.2273586 116.479725,74.0877921 116.364395,77.9216019 C116.328909,79.1374166 116.213578,80.3532313 116.053891,81.5601715 C115.033663,88.9526797 113.880362,96.185446 111.884264,103.382714 C114.252967,104.962386 116.96766,106.116078 119.806554,106.284695 C124.455244,106.559806 128.074835,103.728822 129.290236,99.3004164 C130.74517,93.9934297 128.660357,88.1450948 126.069865,83.5214492 C125.102867,83.8054351 124.135869,84.089421 123.177742,84.3734069 C122.947081,79.8207577 122.725293,75.2681086 122.503504,70.7154594 C125.093995,73.5375694 127.684487,76.368554 130.28385,79.1995386 C130.736298,79.6965139 131.215362,80.2911094 131.100032,80.9478268 C130.28385,81.0188233 129.520897,81.5335478 129.157163,82.2612617 C129.015219,82.5452476 132.324305,87.7812379 132.625938,88.5267009 C133.575193,90.842961 134.506705,93.5763254 134.604292,96.1055749 C134.781723,100.53398 131.809755,105.503734 128.44744,108.254847 C123.488246,112.310521 115.885331,113.011611 110.526918,109.497286 C110.287386,113.526336 107.971913,117.67963 106.632309,121.49569 C105.895971,123.598961 107.022657,125.302877 107.971913,127.006792 C109.497819,129.740156 111.22777,132.375901 112.514144,135.21576 C112.89562,136.076592 112.398814,137.674013 111.786677,138.561469 C111.076954,139.564294 109.843809,139.963649 108.388875,139.413427 C106.632309,138.73896 105.159633,137.860379 104.024075,136.333954 C103.083691,135.073767 101.877161,134.017694 101.00775,132.722009 C100.475457,131.941047 100.315769,130.902724 100.085109,129.953146 C99.8367055,128.950321 99.7746047,127.903123 99.5084583,126.900297 C99.1713396,125.604612 98.7632485,124.326675 98.3107997,123.066488 C98.1244972,122.551763 97.7607639,122.09916 97.4147736,121.522314" id="Fill-8" fill="#1D1D1B"></path>
    </g>
</svg>