<?xml version="1.0" encoding="UTF-8"?>
<svg width="159px" height="159px" viewBox="0 0 159 159" version="1.1" xmlns="http://www.w3.org/2000/svg" xmlns:xlink="http://www.w3.org/1999/xlink">
    <title>creature/eagle</title>
    <defs>
        <polygon id="path-1" points="11 26 146 26 146 130 11 130"></polygon>
    </defs>
    <g id="creature/eagle" stroke="none" stroke-width="1" fill="none" fill-rule="evenodd">
        <mask id="mask-2" fill="white">
            <use xlink:href="#path-1"></use>
        </mask>
        <g id="Clip-2"></g>
        <path d="M14.6986379,122.022339 C12.7236095,120.262812 12.476731,118.024967 14.2048808,116.248357 C15.5839955,114.839028 17.0567537,113.489488 18.6401816,112.327858 C19.1679909,111.943495 20.2406356,112.037451 20.9642452,112.259527 C23.5437003,113.062418 26.0805902,114.036137 28.6515323,114.881735 C32.1589103,116.043364 32.7973893,115.667543 33.1719637,111.90933 C33.546538,108.074244 33.8359818,104.230618 34.0062429,100.378449 C34.1254257,97.6879106 30.7457435,94.4165572 28.0471056,94.3994744 C27.0510783,94.390933 26.0039728,94.587385 25.084563,94.3226018 C24.3864926,94.1176084 22.8881952,94.4507227 23.2202043,92.7424442 C23.2627696,92.5630749 22.4455165,91.9908016 22.0113507,91.9737188 C20.2746879,91.913929 18.1549376,93.7161629 17.6271283,95.629435 C16.0777526,93.4770039 16.5800227,91.4526938 17.5675369,89.3429698 C18.0868331,88.2411301 18.3166856,87.0111695 18.7167991,85.8495401 C19.2275823,84.3633377 19.6191827,83.0394218 21.6197503,82.5013141 C23.0925085,82.0998686 24.2417707,80.4684625 25.6975028,79.238502 C21.0493757,73.9001314 16.5289444,68.6984231 12,63.5052562 C12.0936436,63.3429698 12.1872872,63.1806833 12.2809308,63.0183968 C14.392168,64.1971091 16.5119183,65.3758213 18.4784336,66.4691196 C17.8740068,65.2306176 17.107832,63.6675427 16.0947787,61.5834428 C17.1248581,62.3521682 17.7037457,62.7792378 18.2145289,63.1636005 C18.5891033,55.0749014 18.9551646,46.977661 19.3297389,38.8804205 C19.6362089,38.803548 19.9341657,38.7352168 20.2406356,38.6668857 C20.8620885,40.2555848 21.4750284,41.8357424 22.053916,43.3219448 C22.3348468,42.1432326 22.6668558,40.7680683 23.0584563,39.1452037 C25.1441544,41.630749 24.5141884,44.346912 24.6503973,45.9441524 C26.9063564,40.2214192 29.4687855,33.7470434 32.1503973,26.9737188 C33.861521,31.1931669 33.4528944,35.5492773 31.9035187,36.9159001 C32.1929625,37.9152431 32.6696935,38.6412615 32.5249716,39.2049934 C31.5970488,42.8350854 30.515891,46.4310118 29.5028377,50.044021 C29.392168,50.4283837 29.400681,50.8554534 29.6560726,51.3593955 C32.107832,45.6537451 34.5595914,39.9480946 37.0028377,34.2509855 C37.1220204,34.2339028 37.2412032,34.2082786 37.3518729,34.1911958 C37.3518729,36.7194481 37.3859251,39.2477004 37.3433598,41.7759527 C37.3263337,42.6130092 36.9687855,43.4586071 37.045403,44.2785808 C37.2241771,46.1662286 36.8070375,47.6268068 34.5,48.3613666 C35.3427923,48.6603154 35.8791146,48.8567674 36.3643587,49.0275953 C36.0834279,52.7345598 35.8195233,56.2963206 35.5300795,60.1826544 C37.8371169,56.5952694 40.0334847,53.1787122 42.5703746,49.2411301 C42.8938706,50.8896189 43.3706016,52.1708279 43.3450624,53.434954 C43.3110102,54.8613666 42.9449489,56.3134034 42.5107832,57.6800263 C42.0851305,58.9954008 41.3870602,60.21682 40.8081725,61.4809461 C40.9358683,61.6261498 41.0720772,61.7628121 41.199773,61.9080158 C43.438706,59.9691196 45.677639,58.0302234 48.223042,55.826544 C47.0737798,58.7049934 47.7633371,62.1215506 44.0431328,63.3173456 C44.3836549,63.6333771 44.6986379,63.9152431 45.0561862,64.239816 C44.5113507,64.8462549 44.0090806,65.4099869 43.4472191,66.0335085 C45.8053348,66.0335085 45.8053348,66.0335085 44.392168,70.739816 C44.877412,70.7056505 45.2860386,70.6714849 45.9415437,70.6202365 C45.9074915,71.3718791 45.8649262,72.1491459 45.822361,73.0459921 C46.4438138,72.892247 47.0227015,72.7128778 47.6101022,72.6103811 C47.9761635,72.5505913 48.6231555,72.4908016 48.6827469,72.6274639 C49.3127128,74.1478318 51.253689,74.9336399 50.9812713,77.043364 C50.9216799,77.5131406 52.2922815,78.1708279 52.9733258,78.7089356 C52.0879682,79.2214192 51.1855846,79.7509855 50.2832009,80.2720105 C50.3683314,80.5367937 50.461975,80.8015769 50.5556186,81.0663601 C52.2412032,80.6990802 53.9353008,80.3232589 55.6549376,79.9474376 C55.7145289,80.3232589 55.8081725,80.9296978 55.9443814,81.7923784 C63.8785471,78.1366623 72.791714,77.4106439 79.9256527,72.0124836 C79.814983,72.499343 79.6958002,73.0545335 79.4744608,74.0538765 C83.6884222,72.260184 86.8127128,69.544021 90.0817253,66.2982917 C89.8433598,67.5538765 89.6816118,68.4336399 89.5198638,69.2706965 C93.1208854,67.2122208 98.0925085,59.6616294 100.050511,54.8955322 C102.41714,49.130092 102.885358,43.10841 102.791714,36.9586071 C106.895006,43.8600526 106.494892,50.9750329 103.660045,58.4402102 C107.96765,54.8613666 112.300795,43.544021 116.199773,26 C116.736095,27.6228647 117.366061,28.7417871 117.442679,29.9034166 C117.689557,33.9178712 117.485244,37.9323259 116.225312,41.8015769 C115.808173,43.0998686 115.169694,44.3212878 114.76958,45.6281209 C113.85017,48.5663601 113.024404,51.5302234 112.03689,54.8869908 C119.085698,45.9441524 123.725312,36.0532194 128.492622,26.1708279 C129.395006,29.3567674 129.097049,32.4658344 127.888195,35.4211564 C126.670829,38.3935611 125.240636,41.2890933 123.767877,44.1419185 C123.316686,45.021682 122.286606,45.5768725 121.716232,46.413929 C121.15437,47.2424442 120.933031,48.3015769 120.396708,49.1642576 C119.42622,50.7444152 118.387628,52.2904074 117.280931,53.7766097 C116.020999,55.4678055 114.667423,57.0735874 113.3479,58.7220762 C113.475596,58.8929041 113.594779,59.0722733 113.713961,59.2431012 C114.590806,58.739159 115.637911,58.3889619 116.327469,57.6885677 C124.048808,49.7877792 131.250851,41.4513798 137.295119,32.1583443 C137.482406,31.8764783 137.729285,31.6202365 137.984677,31.3127464 C138.733825,34.0459921 136.843927,38.7950066 131.574347,45.8074901 C128.330874,50.1208936 124.517026,54.0072273 121.179909,57.8337714 C122.218502,57.8508541 128.952327,53.0847569 132.893871,49.2496715 C136.57151,45.6708279 140.30874,42.151774 143.935301,38.6839685 C144.369467,41.4086728 140.385358,46.6701708 136.137344,50.8896189 C132.604427,54.39159 128.688422,57.5091984 125.078888,61.2588699 C132.383087,58.1583443 139.687287,55.0578187 147,51.957293 C145.041998,54.7076216 142.888195,57.0137976 139.627696,58.0387648 C138.750851,58.3206307 138.120885,59.3712221 137.141884,60.2936925 C139.797957,59.5164258 142.190125,58.8160315 144.582293,58.1070959 C142.777526,61.0197109 139.687287,61.9592641 137.039728,63.6675427 C137.831442,63.5308804 138.623156,63.3942181 139.406356,63.2490145 C139.517026,63.3942181 139.619183,63.5308804 139.721339,63.6675427 C137.295119,65.5466491 134.868899,67.4172142 132.068104,69.5781866 C135.515891,69.2621551 138.38479,68.9973719 141.245176,68.7411301 C141.296254,68.9632063 141.347333,69.1852825 141.389898,69.3988173 C132.451192,72.3285151 124.755392,78.5039422 114.752554,78.6662286 C114.820658,78.9053876 114.88025,79.1445466 114.948354,79.392247 C121.801362,80.0243101 128.65437,80.6478318 136.179909,81.348226 C133.498297,82.4842313 131.114642,83.8508541 128.203178,83.8850197 C126.040863,83.9106439 123.878547,84.064389 121.716232,84.0729304 C120.592509,84.0729304 118.643019,83.4579501 117.69807,84.3377135 C115.969921,85.9434954 119.085698,86.3363995 120.217934,86.6438896 C121.486379,86.9770039 122.712259,87.4724047 123.861521,88.1044678 C123.589103,88.847569 123.206016,89.5565046 122.729285,90.1800263 C121.860953,90.1458607 120.984109,90.1116951 120.115778,90.0689882 C119.187855,90.0348226 116.378547,89.1379763 115.671964,89.4283837 C114.471623,89.9237845 114.565267,91.3758213 115.288876,92.1616294 C114.599319,92.9901445 113.620318,94.0151117 112.522134,94.2884363 C110.232123,94.8607096 107.839955,95.0400788 105.873439,95.3219448 C104.945516,97.978318 102.476731,98.2345598 100.68899,99.4388962 C100.178207,98.9862024 99.6503973,98.5249671 99.1566402,98.0808147 C98.6032917,98.6787122 98.0414302,99.2766097 97.4710556,99.8830486 C97.9648127,100.250329 98.5607264,100.703022 99.4631101,101.386334 C98.4585698,102.001314 97.6328036,102.582129 96.7474461,103.034823 C95.7258797,103.555848 94.2786606,103.273982 93.7934166,104.879763 C93.7253121,105.10184 92.0227015,104.828515 90.9755959,104.785808 C91.3246311,105.161629 91.6821793,105.537451 92.2099886,106.092641 L81.0749149,106.092641 C81.091941,106.195138 81.1600454,106.596583 81.253689,107.12615 C78.3933031,107.698423 77.9421112,104.034166 75.4733258,103.931669 C75.9415437,104.708936 76.3927355,105.460578 77.0141884,106.477004 C75.5925085,107.023653 74.2900114,107.519054 72.4597049,108.219448 C74.2814983,109.526281 75.8393871,110.918528 77.6186152,111.883706 C87.2724177,117.11958 96.9772985,122.244415 106.65664,127.411958 C106.818388,127.505913 106.903519,127.736531 106.860953,127.676741 C103.472758,127.830486 99.9568672,128.112352 96.4409762,128.086728 C95.1980704,128.086728 93.9551646,127.36071 92.431328,126.87385 C92.7633371,127.446124 93.0017026,127.847569 93.2570942,128.300263 C90.1328036,128.89816 89.4177072,128.641919 88.8984109,127.113009 C88.4216799,127.224047 87.8513053,127.557162 87.5703746,127.386334 C85.9018161,126.421156 84.3183882,125.302234 82.6753689,124.302891 C82.1390465,123.969777 81.5005675,123.80749 80.9046538,123.568331 C80.8195233,123.739159 80.7343927,123.901445 80.6492622,124.072273 C82.8371169,125.46452 85.0164586,126.865309 87.5107832,128.454008 C85.5953462,128.34297 83.816118,127.676741 82.7690125,128.28318 C80.3683314,129.683968 78.0017026,128.419842 75.6520999,128.701708 C74.4262202,128.838371 72.9960272,127.198423 71.4977299,126.25887 C72.0085131,127.480289 72.5107832,128.667543 73.0641317,130 C70.561294,128.855453 67.7860386,128.40276 66.6197503,125.353482 C66.3388195,124.610381 65.0448354,124.260184 64.2190692,123.739159 C63.7763905,124.439553 63.3081725,125.122865 62.899546,125.848883 C62.6441544,126.301577 62.4738933,126.805519 62.0822928,127.719448 C61.4182747,124.533509 60.8564132,121.817346 60.2690125,118.998686 C59.9540295,119.596583 59.707151,120.06636 59.3751419,120.698423 C59.2048808,120.117608 59.0856981,119.716163 58.915437,119.152431 C58.1833144,120.237188 57.5618615,121.151117 56.8978434,122.133377 C56.6679909,120.98883 56.4551646,119.946781 56.1912599,118.708279 C55.6123723,119.323259 55.3059024,119.810118 54.8717367,120.091984 C53.3819523,121.057162 52.9562997,121.731932 54.6929625,123.149803 C57.0510783,125.080158 55.8422247,128.547963 52.2837684,129.897503 C52.683882,129.248357 53.0329171,128.855453 53.1861521,128.394218 C53.3819523,127.830486 53.6884222,127.044678 53.4500568,126.651774 C52.6242906,125.27661 51.577185,124.029566 50.3853575,122.423784 C49.5851305,123.038765 48.7253121,123.841656 47.7292849,124.413929 C46.8779796,124.900788 45.8649262,125.122865 44.9284904,125.46452 C44.7667423,125.285151 44.6135074,125.105782 44.4602724,124.926413 C44.1538025,126.01117 43.8558456,127.104468 43.5578888,128.206307 C42.1702611,125.772011 42.4086266,124.328515 44.5028377,122.295664 C42.6469921,121.407359 41.5828604,122.218791 41.0295119,124.934954 C39.3354143,122.355453 40.9188422,119.553876 44.2814983,119.272011 C45.3286039,119.178055 46.4012486,119.280552 47.4568672,119.306176 C48.9040863,119.3318 50.1725312,119.135348 51.0749149,117.726018 C52.3518729,115.735874 52.3007946,115.197766 50.2746879,113.882392 C48.9296254,113.002628 47.584563,112.105782 45.8393871,110.944152 C45.2349603,112.336399 44.707151,113.557819 44.077185,115.001314 C43.5408627,113.984888 43.0130533,113.002628 42.4937571,112.020368 C42.3660613,112.071616 42.2383655,112.131406 42.1191827,112.182654 C42.6810443,113.463863 43.2343927,114.745072 43.8643587,116.162943 C42.0340522,117.469777 40.2973893,118.955979 39.4120318,121.586728 C40.7826334,123.841656 37.9052213,123.482917 36.7729852,124.550591 C37.053916,124.875164 37.368899,125.233903 37.692395,125.601183 C37.6413167,125.720762 37.5902384,125.848883 37.53916,125.968463 C36.3813848,125.601183 35.2236095,125.233903 33.9892168,124.84954 C34.1679909,125.481603 34.3297389,126.036794 34.4914869,126.583443 C34.3041998,126.711564 34.1169126,126.839685 33.9381385,126.967806 C31.469353,123.909987 29.0005675,120.852168 26.5317821,117.79435 C26.3530079,117.785808 26.1742338,117.777267 25.9869467,117.768725 C26.3274688,121.04862 25.3569807,123.756242 22.6753689,125.455979 C21.9687855,125.908673 20.7343927,125.52431 19.7553916,125.285151 C22.4965948,124.345598 22.9562997,123.457293 21.7474461,121.134034 C22.1475596,120.664258 22.6753689,120.237188 22.9307605,119.681997 C23.169126,119.169514 23.3819523,118.28975 23.1180477,117.98226 C22.7434733,117.538108 21.9091941,117.230618 21.3132804,117.298949 C20.8365494,117.350197 20.3172531,117.973719 20.0278093,118.46912 C19.4914869,119.357424 19.1083995,120.339685 18.5039728,121.629435 C18.5295119,121.663601 18.8189557,122.107753 19.1083995,122.560447 C18.9211124,122.671485 18.7338252,122.782523 18.546538,122.893561 C18.0272418,122.013798 17.4653802,121.151117 17.0312145,120.237188 C16.8694665,119.886991 17.0141884,119.39159 17.0056754,118.96452 C16.9971623,118.537451 16.9631101,118.118922 16.946084,117.683311 C14.4602724,118.28975 14.1197503,118.973062 14.6986379,122.022339" id="Fill-1" stroke="#1D1D1B" stroke-width="2" fill="#1D1D1B" stroke-linecap="round" stroke-linejoin="round" mask="url(#mask-2)"></path>
    </g>
</svg>