<?xml version="1.0" encoding="UTF-8"?>
<svg width="159px" height="159px" viewBox="0 0 159 159" version="1.1" xmlns="http://www.w3.org/2000/svg" xmlns:xlink="http://www.w3.org/1999/xlink">
    <title>creature/hobbits</title>
    <g id="creature/hobbits" stroke="none" stroke-width="1" fill="none" fill-rule="evenodd">
        <path d="M102.659491,147.072557 C97.146555,150.192255 88.7733509,150.171864 84.7251489,147.072557 C84.4137488,146.827875 79.1199462,143.086276 78.0358123,141.618183 C74.8872108,142.861984 71.8885426,144.289297 68.670741,145.21705 C65.9258064,146.012267 63.2731384,145.104904 61.0702706,143.606226 C59.1211363,142.280864 53.2968001,138.785232 54.6692675,137.949235 C58.2907359,135.726705 60.2514036,136.602199 64.1381388,134.716107 C68.7168744,132.483382 67.9291989,129.839766 67.3294653,126.760848 C66.8565984,124.365002 66.6233692,120.746431 65.4354353,118.503511 C64.9049017,117.494197 62.7080048,113.275891 62.4542713,112.460283 C60.8972705,107.495274 59.0634696,108.64726 54.6692675,107.107801 C49.6637983,105.34405 48.2682643,105.864 49.5599983,99.2881666 C50.7017989,93.5075502 51.1054657,87.6351779 51.8205327,81.803586 C52.2933996,77.9702319 52.8585333,74.1470729 53.1122667,70.3035237 C53.1930001,69.1514784 52.8354666,67.6120197 51.9127995,66.8371928 C47.8415308,63.4422276 46.5843968,59.2418503 47.1149304,54.8987416 C47.6339307,50.6779741 49.2255315,46.5285721 50.4595987,42.3689751 C50.6441322,41.7572697 51.2784658,41.1047839 51.9473995,40.7377606 C55.9494681,38.5050357 60.0207368,36.3538716 64.1381388,34.1313418 C63.4346051,33.4584658 62.6618714,33.0098818 62.4312046,32.4389568 C61.1279373,29.1561375 59.1326697,25.8733183 59.0173363,22.5497188 C58.9250696,19.8072394 60.5858704,16.0463723 62.4312046,13.5893555 C64.484139,10.8672662 67.5939121,8.83430842 72.0688477,8.46728516 C77.0281834,8.04928644 80.378816,9.87590883 83.8964844,12.1494141 C85.5226852,13.2097035 87.0779501,15.9025196 87.7699504,17.6764654 C89.2692845,21.4792342 87.6892171,25.2412227 86.97415,28.9930161 C86.7550166,30.1552564 86.224483,31.2767164 85.9938162,31.9699826 C88.9694177,34.0905615 91.668219,36.0887992 94.4938871,37.9646959 C95.3127541,38.5152308 96.5468214,39.0453755 97.5271552,38.984205 C99.7876897,38.8210835 100.99869,39.7896172 101.782957,41.1557593 C105.300626,47.3441794 108.875961,53.5325995 112.139896,59.8127753 C114.112097,63.6053491 112.520496,67.0512898 109.118161,69.8753299 C107.399693,71.2924475 105.231426,72.0672744 102.659491,70.894839 C101.598424,70.4258648 100.352823,70.2321581 98.8073559,69.8141593 C99.1072227,70.6501568 99.118756,71.4555689 99.6031563,71.9347382 C102.025157,74.3407796 99.4878229,76.9609179 100.260557,79.438325 C101.852157,84.5358703 103.201558,89.6843912 104.862359,94.7615463 C105.808093,97.646757 107.376627,100.389236 108.264694,103.284642 C108.518427,104.110445 107.711094,105.670293 106.788426,106.129072 C103.951225,107.54619 100.837224,108.60648 97.5156219,109.921646 C97.5156219,111.338764 93.1906198,120.412395 92.9830197,121.115856 C91.633619,125.622086 89.9151515,130.128316 89.3846179,134.716107 C88.877151,139.161166 98.1384222,140.557894 101.782957,143.606226 C102.444202,144.156761 102.73638,145.312204 102.659491,147.072557 Z" id="Fill-1" fill="#1D1D1B"></path>
    </g>
</svg>