<?xml version="1.0" encoding="UTF-8"?>
<svg width="159px" height="159px" viewBox="0 0 159 159" version="1.1" xmlns="http://www.w3.org/2000/svg" xmlns:xlink="http://www.w3.org/1999/xlink">
    <title>creature/human</title>
    <g id="creature/human" stroke="none" stroke-width="1" fill="none" fill-rule="evenodd" stroke-linejoin="round">
        <path d="M86.1717649,22.6448022 C86.5082554,22.7138995 87.2092772,22.8520941 88.1252791,23.0396439 C87.695319,23.6319066 87.3868694,24.0464904 87.041032,24.5104295 C89.9198949,26.1786359 92.3594509,27.9652949 95.9954174,28.656268 C101.11755,29.6335013 104.136618,33.2166903 103.744045,37.4908524 C103.295391,42.4263744 105.669519,46.8880863 106.46401,51.5965743 C106.89397,54.1531747 106.8005,56.7690014 106.875276,59.3552149 C106.922011,61.4873604 107.174379,63.649119 106.791154,65.7319093 C106.220989,68.8610303 105.781682,72.157959 104.127271,74.9415934 C102.856084,77.093481 102.351349,78.9097531 103.043023,81.0912538 C103.977719,84.032825 103.108452,85.8490971 100.238936,87.4975614 C97.1077054,89.2842204 94.9018234,91.2288161 96.1262748,94.8909734 C97.3413793,98.5531307 97.5563594,102.432451 98.2760751,106.20319 C98.7153821,108.503143 99.4818326,110.773483 99.7155066,113.073436 C99.9211396,115.087129 99.5846492,117.140307 99.4724857,119.173742 C99.4724857,119.292194 99.3042404,119.469873 99.3603222,119.529099 C102.706533,123.043191 101.360571,127.495032 103.02433,131.334868 C103.108452,131.522418 103.201922,131.700097 103.342126,131.996228 C102.005511,132.262746 100.743672,132.519393 99.0892604,132.855009 C99.4257509,134.94767 99.8650579,137.089687 100.061344,139.241574 C100.117426,139.96216 99.5472613,140.71236 99.2761996,141.452688 C98.3321568,144.048773 98.7621169,146.615244 99.173383,149.260684 C99.4631387,151.155924 98.8836273,153.149875 98.6966882,155.094471 C95.6869678,156.002607 89.910548,156.249383 83.3583307,155.736089 C82.2647366,152.034447 82.2647366,152.034447 86.0315606,150.109594 C89.2001792,148.490742 90.2376915,145.776205 88.6954435,142.972829 C88.0224625,141.748819 87.6018494,140.653133 88.0131156,139.172477 C88.4430756,137.573368 87.8822582,135.79658 87.7420538,133.940824 C87.5083799,133.901339 86.9662563,133.8125 86.4428267,133.723661 C86.6391128,122.835899 81.068326,113.004339 78.7128927,102.61013 C78.4511779,102.639743 78.19881,102.669356 77.9370952,102.698969 C77.6286456,105.709638 77.1986856,108.710435 77.0584812,111.730974 C76.9743586,113.468278 77.6660335,115.245066 77.4510534,116.962628 C77.0771751,119.923941 77.8249317,122.717447 78.3577083,125.599791 C78.8530971,128.284715 78.0772996,131.107834 77.8529726,134.029663 C77.2080325,134.138244 76.441582,134.256697 75.4881923,134.404763 C75.4881923,136.3691 75.6283967,138.293954 75.4508045,140.208937 C75.2638653,142.311469 74.7497827,144.394259 74.4693739,146.496792 C74.3572104,147.306217 74.4787209,148.135385 74.5161087,148.964553 C74.5908844,150.632759 75.0208444,152.350321 74.6376192,153.94943 C74.3759044,155.015503 73.2355755,155.972994 71.2259796,155.923639 C65.6738868,155.785444 60.1031,155.913768 54.5416602,155.854541 C53.0648409,155.834799 51.5880216,155.528797 50.0831614,155.360989 C48.8026282,152.202255 49.4195274,151.669219 54.3547211,150.948632 C57.8037484,150.445209 60.7199992,148.974424 62.1313898,146.338855 C62.748289,145.174072 62.3650638,143.614447 62.2622472,142.242372 C62.1500837,140.574165 61.8603281,138.905959 61.6266541,137.247623 C61.4584089,136.072969 61.2527758,134.908186 61.0097549,133.427529 C60.7947749,133.111656 59.8320382,132.371328 59.88812,131.690226 C60.2152635,128.304457 60.5050192,124.869334 61.4023271,121.552663 C62.0753081,119.035547 60.542407,117.002112 60.112447,114.751514 C58.9440773,108.75979 57.3924823,102.817422 56.345623,96.815827 C55.8782752,94.140774 56.2708474,91.3670107 56.2708474,88.6228604 C51.8684303,89.3434466 49.5971196,87.6061429 49.07369,84.2796011 C48.5596073,81.0320276 50.8683059,78.6827191 51.8777773,75.9286978 C52.0366756,75.4943719 52.373166,74.8330119 52.1394921,74.5961069 C50.2233658,72.6416402 51.5225929,70.5687209 51.7469199,68.57477 C52.1488391,65.1791309 52.7003096,61.7834917 53.2330861,58.3977236 C53.709781,55.4166683 53.8873732,52.3566447 54.8688037,49.4742998 C55.9997856,46.147758 54.9809672,42.9495397 54.579048,39.7809346 C53.6350053,32.2888122 57.1307675,29.0511097 65.0756815,27.5901952 C66.1131938,27.4026454 67.0759304,26.7314144 67.9265036,26.1391517 C68.6649132,25.6159864 69.0200976,24.628882 69.823936,24.3130086 C72.5439007,23.2568069 71.2072857,22.0624106 70.0108751,21.0851772 C66.7674808,18.4496084 65.7767033,14.096478 67.9545445,10.7403231 C69.2911594,8.70688799 70.5156108,6.56487144 72.2915328,4.78808351 C74.2637409,2.82374575 77.2641143,2.9027141 80.2270999,3.09026394 C84.5173534,3.35678213 86.592378,5.58763808 88.143973,8.42062771 C89.5460166,10.9772281 91.3032447,13.5634417 90.0227115,16.4260444 C89.0693218,18.5581899 87.5177268,20.5126566 86.1717649,22.6448022" id="Path" stroke="#1D1D1B" stroke-width="2" fill="#1D1D1B"></path>
        <path d="M94.0543934,80.8108407 C94.3873934,80.8705752 94.7113934,80.9402655 95.0443934,81 C95.8273934,79.6061947 97.1863934,78.2522124 97.2943934,76.8285398 C97.5913934,72.7865044 97.3213934,68.7245575 97.3753934,64.6825221 C97.4023934,63.0597345 97.4833934,61.3971239 97.9153934,59.8340708 C98.5273934,57.5840708 97.2493934,55.8617257 96.2773934,54 C95.6473934,56.0011062 95.7373934,58.1415929 94.8103934,59.9037611 C93.3703934,62.6515487 92.2093934,65.25 93.4513934,68.2367257 C93.5233934,68.425885 93.3973934,68.664823 93.4783934,68.8440265 C93.6403934,69.2024336 93.8923934,69.5409292 94.0993934,69.8893805 C94.5403934,70.6559735 95.3953934,71.4524336 95.3323934,72.1891593 C95.0623934,75.0663717 94.5043934,77.9336283 94.0543934,80.8108407" id="Path" stroke="#1D1D1B" stroke-width="2" fill="#1D1D1B"></path>
        <path d="M54.5425,85.2972367 C54.2095,85.3241225 53.8765,85.3599701 53.5435,85.3868559 C54.3265,85.9245706 55.1005,86.4533234 55.9015,87 C56.7475,84.8491412 57.6385,82.9581777 58.2145,81.0224048 C58.7815,79.0955937 59.0515,77.1060493 59.4565,75.1433906 C59.2225,75.098581 58.9885,75.0537715 58.7545,75 C58.2595,75.5556385 57.4585,76.0664675 57.3055,76.6758775 C56.6935,79.2389843 56.3155,81.8289768 55.7395,84.3920836 C55.6585,84.7415982 54.9565,84.9925317 54.5425,85.2972367" id="Path" stroke="#1D1D1B" stroke-width="2" fill="#1D1D1B"></path>
    </g>
</svg>