<?xml version="1.0" encoding="UTF-8"?>
<svg width="159px" height="159px" viewBox="0 0 159 159" version="1.1" xmlns="http://www.w3.org/2000/svg" xmlns:xlink="http://www.w3.org/1999/xlink">
    <title>creature/majar</title>
    <g id="creature/majar" stroke="none" stroke-width="1" fill="none" fill-rule="evenodd">
        <path d="M18.0880653,132.066083 C18.0880653,130.603509 17.9727895,129.140935 18.1341756,127.701394 C18.2148687,127.067996 18.7451374,126.411565 19.2292958,125.916363 C25.8807094,119.08718 32.8548953,112.545905 39.1604816,105.417297 C48.0482458,95.3635417 55.0109041,84.0660228 58.0541853,70.7876953 C59.1954157,65.7780922 59.598881,60.5957441 60.5902529,55.5285593 C62.0312004,48.2387229 64.8439299,41.4440888 68.682614,35.0755588 C74.1927973,25.9546261 82.0430793,20.3346575 92.6599805,18.6763061 C104.567971,16.8106608 115.726668,18.7108551 125.778718,25.5515546 C139.554176,34.9143302 144.660894,52.1082095 138.274615,67.0794374 C133.778858,77.6283948 123.807502,84.3078657 112.856301,84.1120881 C102.28551,83.9163105 93.5591317,77.3174539 91.1152848,67.6667701 C88.9365721,59.0755886 93.3631629,49.9431396 101.063586,47.1446717 C109.121365,44.2080077 117.398167,48.8030231 118.839115,57.0026494 C119.219525,59.2022683 118.643146,61.1715605 117.294419,62.8874936 C115.357786,65.3289553 112.787135,65.2022757 111.057998,62.5995853 C110.723698,62.1043832 110.458564,61.5515994 110.101209,60.906685 C108.660262,61.4825014 107.265424,62.0468015 105.720729,62.657167 C107.115566,66.0314514 109.121365,68.6571745 112.798663,69.3251215 C116.29152,69.970036 119.104249,68.4613969 121.179213,65.7435432 C123.772919,62.3462261 124.441519,58.5112885 123.15043,54.4114753 C121.040883,47.7320045 116.752623,43.1945708 109.755382,41.8241276 C102.308565,40.3615538 95.8531202,42.6533033 91.0691745,48.4805658 C84.8327537,56.0928594 84.2679022,64.6264593 88.0143657,73.609196 C88.4293586,74.5880839 88.5676896,75.8779128 88.3256104,76.9028661 C86.4005045,85.0564271 82.1698827,92.1274532 77.5357955,98.9681527 C67.0341701,114.446099 54.2155011,127.862622 40.1749087,140.162062 C39.6676951,140.599682 38.8953473,140.92214 38.2267476,140.956689 C36.2785866,141.060336 34.318898,140.991238 32.151713,140.588166 C35.8751213,137.190849 39.5985297,133.782016 43.3104104,130.373182 C43.2527725,130.258019 43.183607,130.131339 43.1144416,130.016176 C40.2325466,131.524815 37.2930136,132.964356 34.4687565,134.576642 C31.9557441,136.004667 29.488842,137.524823 27.1372156,139.217723 C25.3619683,140.496035 23.5521383,141.210048 21.3388429,140.945172 C20.3128883,140.830009 19.2638785,140.933656 18.2840342,140.933656 C17.4079381,138.941331 18.7336098,138.123672 19.8863678,137.202365 C29.5580075,129.555523 38.5841026,121.206184 46.8609051,112.050703 C52.7860812,105.509428 56.1867173,97.6898401 58.7919504,89.2598872 C54.7111871,94.534366 50.9301408,99.8318774 46.7110465,104.760866 C42.4343143,109.758953 37.8924478,114.549746 33.1891952,119.144761 C28.4859425,123.739777 23.44839,127.966269 18.5491685,132.365507 C18.39931,132.26186 18.2379239,132.169729 18.0880653,132.066083" id="Path" fill="#1D1D1B"></path>
        <path d="M103,28.3903908 C97.5379042,24.4626703 91.8102097,23.870026 85.9323941,27.0191747 C78.818967,30.8074496 73.8072343,36.6874099 70.3198074,43.8921043 C68.2527564,48.1684391 68.7839538,52.4796353 70.7355272,57 C71.301368,55.0710012 71.7286355,53.4092733 72.2713807,51.7824068 C74.5924828,44.8798447 78.2184829,38.8255772 83.8768908,34.1890078 C89.4313688,29.6337816 95.782643,27.5537166 103,28.3903908" id="Path" fill="#1D1D1B"></path>
        <path d="M125.562838,41 C128.758054,47.2899477 129.459163,51.1059271 129.010913,59.5664318 C128.677599,65.8447098 125.654786,70.3491992 120.091891,73.1032394 C119.77007,73.2666147 119.471237,73.4883382 119,73.7917494 C124.643351,74.842019 130.286701,71.8312463 132.298079,66.7549434 C134.723226,60.6167014 134.527835,54.4667896 131.895803,48.4219049 C130.608522,45.4811501 128.71208,43.0071818 125.562838,41" id="Path" fill="#1D1D1B"></path>
    </g>
</svg>