<?xml version="1.0" encoding="UTF-8"?>
<svg width="159px" height="159px" viewBox="0 0 159 159" version="1.1" xmlns="http://www.w3.org/2000/svg" xmlns:xlink="http://www.w3.org/1999/xlink">
    <title>creature/opponent-may-play</title>
    <g id="creature/opponent-may-play" stroke="none" stroke-width="1" fill="none" fill-rule="evenodd">
        <path d="M116,13 C122.075132,13 127,17.9248678 127,24 L127,136 C127,142.075132 122.075132,147 116,147 L44,147 C37.9248678,147 33,142.075132 33,136 L33,24 C33,17.9248678 37.9248678,13 44,13 L116,13 Z M113,18 L47,18 C42.0294373,18 38,22.0294373 38,27 L38,27 L38,133 C38,137.970563 42.0294373,142 47,142 L47,142 L113,142 C117.970563,142 122,137.970563 122,133 L122,133 L122,27 C122,22.0294373 117.970563,18 113,18 L113,18 Z M113,20 C116.865993,20 120,23.1340068 120,27 L120,27 L120,133 L119.995941,133.24065 C119.869099,136.995217 116.785452,140 113,140 L113,140 L47,140 L46.7593502,139.995941 C43.0047834,139.869099 40,136.785452 40,133 L40,133 L40,27 L40.004059,26.7593502 C40.1309013,23.0047834 43.2145483,20 47,20 L47,20 Z M76.2789716,65.124878 C70.4558206,65.837556 60.1665427,70.2633493 57.7746389,72.4999649 C55.3827352,74.7365804 53.3780744,76.6255662 51.2993873,77.7981679 C50.9325602,78.0050977 50.5301686,78.1912644 50.1161885,78.3706217 L49.6992335,78.548226 L49.2798807,78.7243914 C47.604778,79.43031 46,80.1761157 46,81.8548363 C46,84.2330238 48.0310722,85.6650507 49.2207002,85.6650507 C50.4103282,85.6650507 52.5686214,85.1865966 54.756674,87.1122726 C56.9447265,89.0379485 71.3590153,95.4520504 78.8564989,94.9747081 C86.3539825,94.4973658 95.1195842,91.9698235 97.807593,90.6890044 C100.495602,89.4081853 106.041247,86.6112114 108.540284,86.6112114 C111.039322,86.6112114 114,86.3162079 114,84.5932542 C114,82.8703005 109.344158,82.2172903 107.077987,80.6540684 C104.811816,79.0908465 99.7557112,71.8517725 93.8079431,69.3627734 C87.8601751,66.8737742 82.1021225,64.4122 76.2789716,65.124878 Z M78.7538805,71.067785 C78.7538805,71.9468557 78.1695374,72.5511309 77.0008512,72.8806104 L76.7885466,72.9359013 L76.7885466,79.7511224 C76.7885466,84.2814936 78.8839448,91.1988182 79.8386093,91.1988182 C80.4927312,91.1988182 81.2542746,88.0020574 81.8750496,84.4971619 L81.9250693,84.212363 L82.0231403,83.6400823 L82.0711328,83.3532849 L82.0711328,83.3532849 L82.1183907,83.0665058 L82.2105853,82.4943706 C82.3615659,81.5435339 82.498834,80.6101086 82.6174898,79.7511224 C83.0446509,76.6587723 83.0446509,73.2989361 82.6174898,69.6716139 C84.4978337,69.8710309 87.5858472,70.9591267 91.8815303,72.9359013 C98.3250549,75.9010633 103,81.8805481 103,83.5221459 C103,84.8782484 99.7028634,86.7306092 96.0680644,88.3987455 L95.780459,88.5300453 L95.2023335,88.7900509 L94.6224792,89.0461017 C94.3325513,89.1730392 94.0429459,89.2982705 93.7551192,89.4214606 C89.3417764,91.3103758 85.2051427,93 79.8386093,93 C74.4720759,93 70.7617435,91.0993618 65.8030887,88.8269912 C60.844434,86.5546205 56,82.1792955 56,80.3146374 C56,78.7411276 59.1437869,76.4719294 62.5639012,74.1957488 L62.8417566,74.0111919 L63.3854137,73.6517632 L64.2016056,73.1143037 L64.4726011,72.9359013 C68.5303857,70.2634362 74.3423801,69.6716139 75.9455237,69.1395411 C77.5486673,68.6074683 78.7538805,69.6716139 78.7538805,71.067785 Z" id="Combined-Shape" fill="#1D1D1B"></path>
    </g>
</svg>