<?xml version="1.0" encoding="UTF-8"?>
<svg width="159px" height="159px" viewBox="0 0 159 159" version="1.1" xmlns="http://www.w3.org/2000/svg" xmlns:xlink="http://www.w3.org/1999/xlink">
    <title>creature/orc</title>
    <g id="creature/orc" stroke="none" stroke-width="1" fill="none" fill-rule="evenodd" stroke-linejoin="round">
        <path d="M92.223672,94.322 C92.169672,95.078 92.106672,95.924 92.052672,96.77 C92.007672,97.499 92.403672,97.931 93.069672,98.084 C93.591672,98.201 94.779672,98.309 94.878672,98.354 C94.752672,98.399 94.671672,98.426 94.554672,98.471 C94.671672,98.543 94.770672,98.597 94.905672,98.678 C94.923672,98.534 94.950672,98.453 94.950672,98.363 C94.968672,97.346 93.006672,94.511 92.223672,94.322" id="Path" stroke="#1D1D1B" fill="#1D1D1B"></path>
        <path d="M35.9995,33.5775 L34.2265,33.5775 C35.0005,34.2525 35.3155,35.2425 36.3415,35.4225 C36.4855,35.1435 36.6115,34.8915 36.7735,34.5855 C36.4135,34.6485 36.1435,34.6935 35.8645,34.7385 C35.8555,34.7025 35.8465,34.6665 35.8375,34.6305 C36.0175,34.5315 36.2065,34.4325 36.3865,34.3335 C36.3775,34.3065 36.3685,34.2795 36.3595,34.2525 C36.1345,34.2705 35.9005,34.2885 35.5405,34.3155 C35.7115,34.0455 35.8105,33.8745 35.9995,33.5775" id="Path" stroke="#1D1D1B" fill="#1D1D1B"></path>
        <path d="M81.239,118.337 C81.311,118.355 81.383,118.382 81.455,118.4 C81.554,117.815 81.662,117.23 81.761,116.645 C81.689,116.627 81.626,116.618 81.554,116.6 C81.446,117.185 81.338,117.761 81.239,118.337" id="Path" stroke="#1D1D1B" fill="#1D1D1B"></path>
        <path d="M88.4832906,78.6391252 C88.9692906,78.6294046 89.5092906,78.8335358 89.8692906,78.4058323 C89.2212906,77.0060753 88.1502906,73.7691373 89.9682906,72.7776428 C90.6072906,72.4277035 90.8322906,71.9416768 90.8052906,71.2126367 C90.7962906,70.9404617 90.8682906,70.6682868 90.9042906,70.3961118 C91.0122906,69.5698663 91.3722906,68.6658566 91.1742906,67.9465371 C90.8232906,66.6439854 90.1302906,65.4386391 89.4912906,64 C89.1762906,64.5443499 88.8792906,64.8748481 88.8072906,65.253949 C88.5732906,66.4398542 88.4382906,67.6452005 88.2672906,68.8408262 C88.1952906,69.326853 88.0962906,69.6670717 87.4752906,69.5893074 C86.8722906,69.5115431 86.7192906,69.181045 86.7102906,68.6464156 C86.7012906,68.0534629 86.7102906,67.4605103 86.7102906,66.7800729 C86.3232906,67.1202916 86.0262906,67.3730255 85.7112906,67.654921 C85.4772906,66.8481166 85.2702906,66.1482382 85.0632906,65.4483597 C85.0002906,65.4580802 84.9282906,65.4580802 84.8562906,65.4678007 C84.5052906,66.7023086 84.1452906,67.9465371 83.7672906,69.2393682 C84.4782906,69.1713244 84.9912906,69.1130012 85.4682906,69.0643985 L85.4682906,69.0643985 C85.6392906,70.9599028 85.4682906,73.3414338 86.1252906,75.1300122 C86.2242906,75.3924666 86.5122906,75.4799514 86.5932906,75.7618469 C86.6742906,76.0145808 86.5752906,76.5297691 86.5752906,76.8019441 C86.5662906,77.5018226 86.2782906,79.5042527 86.7372906,80 C86.4312906,79.9708384 86.3052906,79.9416768 86.1522906,79.7764277 C86.7462906,79.8250304 87.5382906,78.872418 88.1682906,78.6780073 C88.2672906,78.6488457 88.3752906,78.6391252 88.4832906,78.6391252" id="Path" stroke="#1D1D1B" fill="#1D1D1B"></path>
        <path d="M94.8434706,95.6381361 C94.8434706,94.4771361 94.9604706,93.4331361 95.1044706,92.3171361 C95.1494706,91.9751361 95.0774706,91.5701361 95.0864706,91.2191361 C95.0864706,91.0661361 95.2844706,90.3461361 95.2754706,90.2381361 C95.2304706,89.8691361 95.5454706,89.9861361 95.1944706,89.6171361 C94.3574706,88.7351361 92.5304706,90.3731361 92.1254706,90.9851361 C92.1254706,90.9851361 92.1254706,90.9851361 92.1254706,90.9851361 C91.8644706,91.3811361 91.8194706,90.9401361 91.6934706,91.6331361 C91.5674706,92.3441361 91.6934706,93.2171361 91.6934706,93.9461361" id="Path" stroke="#1D1D1B" fill="#1D1D1B"></path>
        <path d="M44.4761447,28.6117957 C44.4469397,28.3386855 44.4274698,28.1338529 44.3885298,27.8022192 C44.9142195,27.8997586 45.3717642,27.9875439 45.809839,28.0753293 C45.654079,27.7534496 45.4885841,27.4120619 45.3230892,27.0706742 C46.4036736,27.402308 47.2798231,28.5727799 48.3019975,27.5973866 C48.4772274,27.0121506 48.5940473,26.6024855 48.7400723,26.1050349 C49.246292,26.3293753 49.7427767,26.4854383 50.2295264,26.7097787 C50.5994562,26.8755956 50.891506,27.1194439 51.2809058,27.255999 C51.5924256,27.3828001 51.9331504,27.3047686 52.2836102,27.4998473 C52.7411549,27.7632035 52.7606249,27.9387743 53.1013497,28.2899159 C53.1013497,28.2899159 53.1013497,28.2899159 53.1013497,28.2899159 L53.1013497,28.2899159 C53.8022693,29.0117069 54.386369,29.8310373 55.0483486,30.5918441 C55.8076782,31.469698 55.9829081,31.0892946 56.9369375,31.5477295 C57.2679273,31.7135464 57.4723622,32.2207509 57.822822,32.3963217 C58.8547314,32.8840183 59.7503509,32.2695205 60.6362354,31.8403475 C61.8044347,31.2843733 63.3912388,31.3721587 64.8125479,31.1185564 C66.1170372,30.8844621 66.7595468,30.0456238 68.112711,30.1431631 C69.796865,30.2602103 71.4907541,30.6406137 73.1846431,30.4065193 C73.8758277,30.30898 74.6254222,29.9090688 75.073232,29.284817 C75.3360768,28.9141676 75.1997869,28.5922878 75.3847518,28.2801619 C75.7741516,27.6266484 76.2803713,27.7827114 76.4653362,26.9926428 C76.6308311,26.2903596 76.5529511,25.4612753 76.6113611,24.7394843 C76.718446,23.325164 76.9034109,21.6865032 78.0229353,20.6720942 C79.4247745,19.4040829 80.0770191,20.1648897 81.3036284,21.0329897 C82.6957326,22.0181369 84.1559817,22.0961684 85.6746408,22.8959909 C85.6746408,22.8959909 85.6746408,22.8959909 85.6746408,22.8959909 C85.6843758,22.8277134 85.6941108,22.7594359 85.6941108,22.7009123 C85.9861607,22.5643572 86.2879455,22.3497707 86.5799953,22.3497707 C86.7162852,22.3497707 86.8233702,22.7886977 86.9888651,23.0032842 C87.11542,23.1593471 87.3003849,23.3056561 87.4853498,23.3934415 C87.6313747,23.471473 87.8552796,23.4031954 88.0013045,23.4909808 C88.4393792,23.7738449 88.819044,24.2030179 89.2960587,24.3590809 C89.7243985,24.4956359 90.2403532,24.3298191 90.8244529,24.2908033 C90.6881629,24.6419449 90.610283,24.8662854 90.512933,25.1296416 C94.7476556,27.1584596 98.5735084,29.7139901 101.484272,33.4497464 C101.445332,33.5277779 101.406392,33.6058094 101.357717,33.6838408 C100.851497,33.4692543 100.345277,33.2644217 99.8487926,33.0400812 C99.5275378,32.8937723 99.216018,32.7084475 98.9044982,32.5328767 C98.2911935,32.201243 97.6778889,31.7428082 97.1132592,32.493861 C97.405309,32.7182015 97.6778889,33.0205734 98.0283487,33.1863902 C98.3690735,33.3522071 98.7779432,33.3912228 99.3523079,33.518024 C99.0018481,33.6350712 98.8168832,33.6935948 98.5345684,33.7813802 C98.9531731,33.9862128 99.274428,34.1422757 99.5859478,34.2983386 C99.5762128,34.3276004 99.5664778,34.3666161 99.5567428,34.3958779 C99.2938979,34.3471083 99.0407881,34.3080925 98.7779432,34.2593229 C98.7682083,34.2983386 98.7584733,34.3276004 98.7487383,34.3568622 C99.245223,34.5616948 99.7417077,34.7762813 100.257662,35.0006218 C100.121372,35.410287 100.004553,35.7321668 99.8877326,36.0833083 C100.666532,36.6978061 101.464802,37.3220578 102.448036,38.0926185 C102.039166,38.0536028 101.844466,38.0438489 101.455067,38.0048332 C101.961286,38.4827759 102.350686,38.8631793 102.749821,39.2338287 C102.701146,39.2923523 102.652471,39.3606298 102.603796,39.4191534 C102.379891,39.2923523 102.146251,39.1557972 101.844466,38.9704725 C101.863936,39.1557972 101.873671,39.3021062 101.893141,39.4484152 C101.396657,39.5849703 100.900172,39.7215254 100.325807,39.8775883 C100.549712,41.1748614 100.851497,42.5209041 100.987787,43.8767008 C101.133812,45.310529 101.085137,46.7736189 101.182487,48.2074471 C101.221427,48.7146516 101.416127,49.2218561 101.630297,49.6900449 C101.980756,50.4703595 102.496711,51.1823966 102.788761,51.9919731 C102.973726,52.4991776 102.827701,53.1234293 102.934786,53.6794035 C103.304716,55.639944 103.87908,57.5809767 104.083515,59.570779 C104.24901,61.2582094 105.193305,62.5067129 105.952634,63.8722635 C106.692494,65.1987984 107.247388,66.5545951 107.510233,68.0469468 C107.549173,68.2712873 107.646523,68.4858738 107.773078,68.8565233 C108.425323,68.2127637 108.980217,67.7153131 109.476702,67.1690928 C111.511316,64.9451961 113.74063,62.8871163 115.171674,60.1657689 C115.463724,59.6097948 116.018618,59.2488992 116.748743,58.9855431 C118.948852,58.2149823 121.14896,57.3663902 123.193309,56.2446879 C125.880168,54.771844 128.421001,53.0453979 131.000775,51.3872292 C132.967243,50.1289719 134.300938,48.2562167 135.595692,46.3737077 C136.218732,45.4665919 136.763891,44.5009525 137.347991,43.564575 C137.416136,43.4670356 137.542691,43.408512 137.640041,43.3402345 C138.55513,44.8618481 137.435606,46.2469065 137.445341,47.7002426 C137.445341,48.8609606 137.260376,50.0216786 137.104616,51.1726427 C137.007266,51.8261562 136.900181,52.5089315 136.608131,53.0941675 C136.170057,53.9915294 135.615162,54.8401215 135.040797,55.649698 C134.359348,56.6055834 134.281468,57.68827 134.515108,58.7221869 C134.768217,59.863397 134.310673,60.7510049 133.707103,61.4825499 C132.830954,62.5262207 132.665459,63.8625096 131.984009,64.9549501 C131.721164,65.3743692 131.341499,65.7255108 131.01051,66.1059142 C130.883955,66.2619771 130.67952,66.3985321 130.650315,66.5741029 C130.221975,68.8175075 129.345826,70.9926346 129.55026,73.3530864 C129.56973,73.557919 129.121921,73.8993066 128.829871,74.0261078 C127.389092,74.6601134 125.919108,75.2453494 124.468593,75.8598472 C124.196014,75.9768944 123.962374,76.1914809 123.709264,76.3670517 C121.61624,77.8496495 119.464806,79.2542158 117.449662,80.8441069 C116.417753,81.6634373 115.687628,82.8534171 114.733599,83.7897947 C114.431814,84.0824127 113.876919,84.2092138 113.42911,84.2579835 C112.33879,84.3652767 111.248471,84.3457689 110.167887,84.4433082 C109.905042,84.47257 109.535112,84.6871565 109.457232,84.911497 C109.087302,85.8966442 108.590818,86.9012993 108.551878,87.9157084 C108.503203,89.1934736 108.620023,90.5590242 109.690872,91.5636793 C109.856367,91.7197422 109.924512,92.2464546 109.807692,92.3537479 C109.077567,93.0462771 109.223592,93.9826547 109.145712,94.7824772 C108.960747,96.6942481 108.989952,98.6157729 108.522673,100.508036 C108.347443,101.229827 108.435058,102.019895 108.259828,102.75144 C107.948308,104.116991 107.169508,105.160662 105.894224,105.853191 C105.300389,106.165317 104.81364,106.672522 104.258745,107.072433 C104.025105,107.248004 103.76226,107.394313 103.479946,107.491852 C102.925051,107.696685 102.360421,107.950287 101.776322,108.018564 C101.231162,108.086842 100.627592,108.047826 100.101902,107.872255 C99.0505231,107.530868 98.1841086,106.516459 96.9185593,107.150464 C97.1521992,107.501606 97.424779,107.882009 97.7557688,108.369706 C97.7460338,108.398968 97.6778889,108.584292 97.6000089,108.798879 C97.8141788,108.92568 98.0186137,109.042727 98.2911935,109.19879 C97.9699387,109.345099 97.7362989,109.452392 97.444249,109.588948 C97.6486839,109.852304 97.8141788,110.057136 98.0964936,110.398524 C97.6097439,110.476555 97.2300791,110.544833 96.8212094,110.61311 C97.531864,111.247116 96.9769693,112.466358 97.8920588,113.285688 C98.4664234,113.783139 98.6805933,114.700008 99.0602581,115.421799 C99.118668,115.538847 99.157608,115.69491 99.254958,115.743679 C100.024023,116.114329 99.7514427,116.962921 100.092167,117.528649 C100.189517,117.684712 100.199252,117.909052 100.306337,118.055361 C100.676267,118.543058 101.065667,119.011247 101.445332,119.498943 C101.776322,119.928116 102.087841,120.386551 102.448036,120.786463 L102.448036,120.786463 C103.869345,122.356846 105.18357,123.498056 105.845549,125.526874 C106.254419,126.775377 106.887194,128.014127 107.052688,129.330908 C107.227918,130.715966 107.013748,132.637491 106.264154,133.827471 C105.20304,135.514901 103.869345,134.695571 102.282541,135.056467 C101.445332,135.241791 100.870967,135.475886 99.9558776,135.466132 C96.7433294,135.417362 93.2582014,135.085728 90.0943283,135.670964 C89.2181788,135.827027 88.3614993,135.602687 87.8650146,134.988189 C87.3879998,134.402953 87.203035,133.554361 87.0180701,132.793554 C86.8817801,132.179056 86.9791301,131.515789 86.8915151,130.891537 C86.7162852,129.516233 86.1905955,128.199452 86.2684755,126.785131 C86.2976805,126.199895 86.2100655,125.614659 86.1808605,125.000162 C85.9180157,125.029423 85.6454359,125.058685 85.2560361,125.097701 C85.7038458,124.210093 86.0445706,123.390763 86.5021154,122.649464 C86.9012501,121.986196 86.8428402,120.874248 86.3171505,120.289012 C86.3171505,120.289012 86.3171505,120.289012 86.3171505,120.289012 C86.1711256,120.113441 86.3171505,119.859839 86.2392705,119.684268 C86.1029806,119.381896 85.9277507,119.469682 85.7233158,119.245341 C85.382591,118.884446 85.1002762,118.816168 84.8374313,118.357733 C84.4285616,117.635942 84.4382966,116.475224 83.5232071,116.065559 C82.8417575,115.763187 80.3301289,115.724171 80.6708537,116.865382 C80.1062241,116.377685 79.7849693,116.436208 79.3176895,115.792449 C79.1813996,115.607124 78.7335899,114.534192 78.6557099,114.485422 C77.8671754,113.978217 76.776856,114.612223 76.3582512,113.431997 C76.1051414,112.71996 76.6795061,112.12497 76.728181,111.471457 C76.796326,110.583849 76.8839409,111.071545 76.3679862,110.671634 C75.9591165,110.349754 74.4793973,109.852304 74.0607926,110.544833 L74.0607926,110.544833 C73.6421878,111.237362 73.1164981,111.471457 72.4253135,111.295886 C71.7341289,111.130069 71.4810191,110.583849 71.558899,109.881565 C70.7411595,110.11566 69.7871301,110.496063 69.3393203,109.657225 C69.0278005,109.081743 69.2809103,108.194135 69.2809103,107.365051 C68.6481357,107.7357 67.6746363,107.267511 67.1684166,108.359952 C66.9737167,108.769617 66.2533271,108.954942 65.7568424,109.218298 C65.5913475,109.29633 65.2603577,109.286576 65.2408877,109.374361 C65.1922127,109.559686 65.2506227,109.823042 65.3577076,109.988859 C65.5134675,110.203445 65.7665774,110.359508 65.9612773,110.554587 C66.1170372,110.71065 66.2630621,110.886221 66.506437,111.149577 C66.1559772,111.169085 65.9807473,111.178839 65.6010825,111.198346 C66.6621969,111.85186 67.9569511,111.598258 68.6286657,112.866269 C67.9764211,112.788238 67.4409964,112.71996 66.7887518,112.651682 C67.1002716,113.305196 67.3728515,113.880678 67.6649013,114.485422 C67.5675513,114.651239 67.4312614,114.895087 67.2755015,115.177951 C66.9542467,115.060904 66.6427269,114.934103 66.3312071,114.817056 C66.2922671,114.856071 66.2533271,114.895087 66.2143871,114.934103 C66.5161719,115.343768 66.7790168,115.802203 67.1294766,116.153344 C67.6064913,116.621533 67.5870213,116.982429 67.0515966,117.343324 C67.1878866,117.577419 67.3144415,117.821267 67.4409964,118.065115 C67.4117914,118.123639 67.3825864,118.182162 67.3436465,118.25044 C67.0613316,118.143147 66.7108718,118.094377 66.486967,117.909052 C66.0099522,117.489633 65.5134675,117.304309 64.8709579,117.528649 C64.9098979,117.684712 64.9585729,117.840775 65.0169828,118.016346 C64.1895083,118.347979 64.2089783,117.362832 63.6151436,117.158 C63.6443486,117.626188 63.6638186,118.035853 63.6930236,118.52355 C63.4399137,118.484534 63.2062739,118.445519 62.7876691,118.367487 C62.7584641,119.060016 62.7195241,119.742792 62.6805842,120.552368 C62.4956193,120.347536 62.2814494,120.201227 62.1840995,119.98664 C61.9601946,119.508697 61.8531097,118.972231 61.5902648,118.513796 C61.4150349,118.211424 61.0645751,117.996838 60.7725253,117.782251 C60.7433203,117.762743 60.4707405,117.948068 60.4415355,118.065115 C60.2468356,118.962477 60.0910757,119.859839 59.8963758,120.757201 C59.8574358,120.971787 59.7308809,121.196128 59.584856,121.352191 C59.0396963,121.927673 58.9715513,122.600694 59.2636012,123.273716 C59.7211459,124.356402 60.2565706,125.409827 60.7627903,126.492513 C60.7043803,126.492513 60.5291504,126.512021 60.2273656,126.541283 C60.3928605,126.736362 60.4902104,126.93144 60.6265004,126.989964 C61.4247699,127.321598 62.2230394,127.62397 63.031044,127.916588 C63.8682535,128.21896 64.3160632,128.979766 64.1408333,129.867374 C64.0921584,130.091715 63.9558684,130.442856 64.0434834,130.520888 C64.3550032,130.803752 64.734668,131.028092 65.1143328,131.193909 C65.4258526,131.32071 65.7860474,131.330464 66.2630621,131.408496 C66.0586272,131.652344 65.9612773,131.827915 65.8152524,131.935208 C63.8682535,133.271497 66.1559772,138.36305 63.4009738,138.889762 C62.1062195,139.143365 60.4804754,138.880008 59.1565162,138.880008 L49.5772818,138.880008 C46.6665185,138.880008 43.989395,138.489851 41.1078367,138.265511 C40.2316872,138.197233 39.1608378,136.812175 39.2484528,135.944074 C39.2971277,135.534409 39.3458027,135.134498 39.5599726,134.802864 C39.7546725,134.383445 40.0175173,133.983534 40.1343372,133.544607 C40.621087,131.730375 41.0591617,129.896636 41.5167064,128.072651 C41.5556464,127.955603 41.6140564,127.770279 41.7016713,127.750771 C42.6167608,127.497169 42.5291459,126.726608 42.5583508,126.053586 C42.6070258,124.766067 43.0451006,123.595595 43.5415853,122.434877 C43.6389352,122.210537 43.7168152,121.966688 43.8044301,121.732594 C43.1229805,121.079081 42.4025909,120.679169 41.4485615,120.601138 C41.0786317,120.571876 40.7476419,120.006148 40.2024822,119.508697 C40.8936668,119.342881 41.3512115,119.16731 41.8184913,119.147802 C42.3928559,119.138048 42.9672206,119.245341 43.5415853,119.333127 C44.1256849,119.420912 44.6221696,118.84543 44.3982648,118.269948 C44.3009148,117.996838 44.1743599,117.70422 43.97966,117.479879 C43.2495354,116.592271 43.5902602,115.753433 44.1646249,115.031642 C44.7389896,114.319605 44.6124346,113.724615 44.1451549,113.071102 C42.1689511,113.353966 40.591882,114.40739 39.1413678,115.665648 C38.4696532,116.24113 37.8952885,116.943413 37.184634,117.440864 C36.8049692,117.70422 36.2013995,117.684712 35.7049148,117.743236 C35.5004799,117.772497 35.2765751,117.684712 35.0137302,117.645696 C34.5756555,116.953167 34.4783055,116.914151 33.7579159,117.499387 C32.3658117,118.611336 30.9931775,119.742792 30.0780881,121.361945 C29.7763032,121.898411 29.1337936,122.3666 28.549694,122.581186 C28.1894992,122.717741 27.6053995,122.347092 27.1770598,122.112997 C26.5248151,121.752102 25.9115105,121.342437 25.2982058,120.913264 C24.938011,120.659661 24.5778163,120.376797 24.2955014,120.045164 C23.4680269,119.050263 22.6697574,118.035853 21.8520178,117.031198 C21.6962579,116.826366 21.2484482,116.680057 21.7644029,116.367931 C21.8033429,116.348423 21.6962579,116.065559 21.637848,115.909496 C21.4626181,115.460815 21.2095082,115.031642 21.1121583,114.573207 C21.0440133,114.222066 20.7811685,113.734369 21.4139431,113.490521 C21.521028,113.451505 21.521028,113.090609 21.579438,112.827253 C22.3874425,112.583405 23.2051821,112.320049 24.0326566,112.095708 C25.5513157,111.695797 27.0991798,111.412933 28.5788989,110.915482 C30.0294131,110.427786 31.4312523,109.764518 32.8233565,109.111005 C33.5340111,108.779371 34.1570507,108.262413 34.8579703,107.911271 C36.3279544,107.18948 37.8174086,106.496951 39.3263327,105.853191 C39.8130824,105.648359 40.0369873,105.424018 39.9980473,104.877798 C39.9785773,104.575426 40.1538072,104.2633 40.2608922,103.912158 C39.5989126,103.414708 38.897993,103.404954 38.1191934,103.746342 C37.8076736,103.892651 37.4182738,103.863389 37.058079,103.912158 C37.019139,103.843881 36.9899341,103.775603 36.9509941,103.707326 C37.9439635,102.30276 38.9466679,100.888439 39.9396374,99.4838729 C38.4015082,100.205664 37.106754,98.9571605 35.6367698,99.0644538 C35.9093497,97.8939818 36.7660292,97.4648088 37.7005887,97.142929 C37.8855535,97.0844054 38.0899884,97.0551436 38.2846883,96.99662 C39.5599726,96.6064627 39.7254675,96.0407346 38.9369329,94.958048 C38.771438,94.7337075 38.7130281,94.4118277 38.6254131,94.1289637 C38.4696532,93.5827434 38.3333633,93.0267693 38.2262783,92.5878423 C37.6227087,93.0462771 37.155429,93.4169266 36.6686793,93.7680682 C36.3279544,94.0216704 35.9580247,94.236257 35.6951798,94.5776446 C35.36419,94.7629693 34.7411504,94.3533041 34.4101606,95.1531267 C34.4880405,93.9143772 34.5951255,92.6756277 34.6243304,91.4368782 C34.6730054,89.8469871 34.7703554,88.2473421 34.6438004,86.6672049 C34.5659205,85.6918116 34.5269805,84.5896172 33.641096,83.8483183 C33.572951,83.7897947 33.572951,83.6629936 33.5437461,83.5654542 C33.1932863,82.151134 32.8525615,80.7465676 32.5118367,79.3322473 C32.3074018,78.4934091 33.0764663,78.0349742 33.2809012,77.3521989 C33.3101062,77.2351517 33.4658661,77.1571203 33.4950711,77.049827 C33.699506,76.3670517 34.0986407,76.171973 34.7508854,76.4743449 C34.8579703,76.5231146 35.0039952,76.4938528 35.2084301,76.5036067 C35.4712749,75.3428887 35.8509397,74.2504482 35.4226,72.9921909 C34.6827404,70.8073099 34.1473157,68.5443974 33.3782512,66.3595164 C32.9304414,65.0915051 32.9012364,63.8625096 33.0375264,62.5749904 C33.0959363,61.9507387 33.0667313,61.326487 33.1056713,60.7022353 C33.1543463,60.1169993 33.2419612,59.5220094 33.3101062,58.8684959 C33.1056713,59.2586532 32.9109714,59.6293026 32.7162715,59.9901982 C32.6675966,59.9706903 32.6091866,59.9511824 32.5507766,59.9219206 C32.5994516,59.6975802 32.6481266,59.4732397 32.6870666,59.287915 C31.849857,59.0343127 32.8720315,58.4198149 32.3171368,58.0979352 C32.1321719,58.5076003 32.005617,59.0440667 31.6940971,59.4147161 C31.3533723,59.8146274 30.8374176,60.0779836 30.3993429,60.3998633 C30.3311979,60.3413397 30.263053,60.2730622 30.194908,60.2145386 C30.3604029,59.7073341 30.5258978,59.2001296 30.7303327,58.5661239 C30.4772228,58.7319408 30.3311979,58.8294801 30.204643,58.9075116 C29.8347132,58.0003958 30.4188129,57.385898 30.8568876,56.6933688 C31.0515875,56.3909969 31.0515875,55.9618238 31.1976124,55.4058496 C29.5037234,56.0301014 27.9461243,56.6153373 26.1646203,57.2786048 C26.9726249,55.1815092 27.7319544,53.1819529 28.549694,51.0555955 C27.9363893,51.5140304 27.4204346,51.9139416 26.9142149,52.3040989 C26.8752749,52.2650832 26.8460699,52.2163135 26.80713,52.1772978 C27.0212998,51.9822192 27.2257347,51.7871405 27.4788446,51.5530461 C27.2549397,51.2994438 27.0310348,51.0458416 26.78766,50.7727315 C27.2938797,50.3728202 27.8682444,49.9046314 28.530224,49.3681651 C28.2479091,49.2901336 28.1018842,49.241364 27.8779793,49.1730864 C28.1992342,48.8219449 28.481549,48.509819 28.8417438,48.1294156 C28.0824142,48.3049864 27.4204346,48.4610493 26.758455,48.6171123 C26.72925,48.5683426 26.700045,48.5195729 26.67084,48.4805572 C28.0045343,47.7197504 29.3284935,46.9686976 30.8666226,46.0908436 C30.4090779,45.9250268 30.155968,45.8079796 29.8833882,45.749456 C28.8709488,45.5348694 28.432874,44.4131671 29.0753837,43.5743289 C29.1629986,43.4572817 29.3771685,43.3597424 29.3674335,43.2524491 C29.3479635,42.0136996 30.146233,41.9454221 31.3436373,42.1307468 C30.8471526,41.7893592 30.3409329,41.6040344 31.1197325,41.2041232 C30.6037778,41.1748614 30.2922579,41.1553535 29.9710031,41.1260917 C29.9515331,41.0968299 29.9417981,41.0578142 29.9223282,41.0187985 C30.165703,40.9212591 30.4090779,40.8139659 30.7790077,40.648149 C30.4577529,40.5603636 30.253318,40.5115939 30.0488831,40.4530703 C30.0488831,40.3945467 30.0488831,40.3457771 30.0488831,40.2872535 C30.4188129,40.2579917 30.7887427,40.2287299 31.2462874,40.1897141 C30.9639726,39.7995568 30.7400677,39.487431 30.4285479,39.048504 C30.9152976,38.9412107 31.3241673,38.8534253 31.7233021,38.7753939 C31.7233021,38.7363781 31.7233021,38.6973624 31.7135671,38.6583467 C31.4896623,38.6290849 31.2657574,38.5998231 31.0321175,38.5608073 C31.0321175,38.5315455 31.0321175,38.4925298 31.0321175,38.4535141 L32.4923667,38.4535141 C32.4047517,38.4535141 32.2587268,38.0536028 32.2392568,37.9853253 C34.1862557,37.8195084 34.9455852,37.9365556 36.0651096,36.1125701 C36.0651096,36.1125701 36.0651096,36.1125701 36.0651096,36.1125701 C36.7854992,34.9420982 36.3084845,34.5031712 36.3571594,33.2839296 C36.3960994,32.2207509 37.087284,32.0159183 37.9536985,31.5574834 C37.6519137,31.4501902 37.3306589,31.3721587 37.0094041,31.2843733 C37.0094041,31.2843733 37.0094041,31.2843733 37.0094041,31.2843733 C37.3598638,31.2551115 37.6227087,31.2258497 37.9342285,31.186834 C37.3209239,30.8064306 36.7660292,30.4650429 36.1332546,30.0748856 C37.4377438,29.3726024 38.5767381,29.6944822 39.8520224,30.0748856 C39.6573225,29.8505452 39.5697076,29.7627598 39.4626226,29.6359586 C39.7059975,29.5286654 39.9299024,29.44088 40.1732772,29.3335867 C39.6475875,27.5876327 38.2846883,27.7241878 36.8828491,27.8997586 C37.7979386,27.6266484 38.6643531,27.2657529 39.5599726,27.8119732 C39.6183825,27.841235 39.6962625,27.9095125 39.7546725,27.8900046 C40.7671119,27.6461563 41.6140564,28.1436069 42.5194109,28.4362249 C43.1132455,28.6215496 43.7849601,28.5532721 44.4761447,28.6117957" id="Path" stroke="#1D1D1B" fill="#1D1D1B"></path>
    </g>
</svg>