<?xml version="1.0" encoding="UTF-8"?>
<svg width="159px" height="159px" viewBox="0 0 159 159" version="1.1" xmlns="http://www.w3.org/2000/svg" xmlns:xlink="http://www.w3.org/1999/xlink">
    <title>creature/pukel-creature</title>
    <g id="creature/pukel-creature" stroke="none" stroke-width="1" fill="none" fill-rule="evenodd">
        <path d="M90.0296614,37.8844721 C90.1803723,37.2677178 90.3687608,36.6130093 90.5948271,35.8729042 C91.4143173,33.1781623 91.7251584,31.4417617 90.4629551,29.0316757 C89.3043655,26.8208487 88.2399702,24.5910447 85.6402083,24.1355954 C80.5913952,23.2626508 76.4185889,26.8018717 72.1986855,29.1075839 C69.9945395,30.3126269 67.7338769,31.4892044 65.3601812,32.400103 C64.2581082,32.8270868 63.0900992,33.1971394 62.0916399,33.8423592 C61.6489268,34.1270151 61.1967943,34.7627464 60.7729201,34.9809826 C60.1512379,35.294104 59.3505866,35.0663793 58.7100655,35.5028516 C57.5608954,36.2903994 57.6268313,37.6282818 57.7492839,38.8523019 C57.9188336,40.6551222 57.7775422,42.6192474 57.4101845,44.3841136 C57.1841183,45.4468287 57.2406348,45.8548354 56.7508246,46.7941996 C56.3740475,47.5343048 56.0255287,47.8758918 55.4980408,48.473669 C54.2829346,49.8779711 54.1981598,52.2690801 54.5937757,54.0813889 C54.7727449,54.9163793 55.01765,55.8557436 55.3755882,56.6148258 C55.8371402,57.5731671 55.9501733,57.4498162 55.4415242,58.3417378 C54.6126146,59.7934826 53.1526034,60.3438172 51.9186584,61.4255094 C51.2122013,62.0327751 50.8542631,62.7728803 50.5151637,63.6078707 C50.3644529,63.9874118 50.0065146,64.5282579 50.0536118,64.9457531 C50.0912895,65.2968287 50.4209694,65.2683631 50.5245831,65.590973 C50.8354242,66.4923832 50.7223911,66.957321 51.5607201,67.6499835 C52.3613715,68.3141805 53.8025438,68.4090658 54.819842,68.2382723 C55.5639768,68.1054329 56.1574007,67.6120294 56.9015354,67.47919 C57.6268313,67.3558392 58.2673524,67.7069147 58.7665821,66.957321 L58.7665821,66.957321 C58.7665821,68.3426461 57.3819262,68.8550266 56.9768909,70.1644434 C56.4494029,71.900844 55.1589414,73.2102608 54.047449,74.6430285 C52.3802103,76.7684587 49.6862541,79.0172398 48.9609582,81.6740275 C48.5653422,83.1067952 48.7443114,84.7483105 49.6203181,85.9343765 C50.0441923,86.5036881 50.5999385,86.9591375 51.2027819,87.3291901 C53.388089,88.7145151 56.053787,89.1035447 58.5876129,88.8188889 C60.4338207,88.6101413 62.4778364,87.8700361 64.342883,88.353951 C66.1608325,88.8188889 66.6506428,90.1852369 66.612965,91.9785686 C66.5847068,93.297474 66.7825147,96.5330619 65.6145057,97.4060065 C64.4559162,98.278951 63.6741037,97.4060065 62.6097084,97.2447015 C59.1998757,96.713344 55.987851,95.4513698 52.5309212,95.3185304 L52.5309212,95.3185304 C50.7035522,95.2521107 49.0739913,95.346996 47.2937195,95.7834683 C43.99692,96.5710161 39.193012,97.5957771 39.0328818,101.580959 C38.9386875,103.991045 39.7864359,106.306246 41.1239946,108.279859 C42.1695511,109.835978 44.9577016,111.648287 45.3344787,113.43213 C46.2104854,117.597594 38.995204,114.561265 39.0423012,118.565423 C39.06114,120.539037 39.2401092,121.74408 39.0234623,123.594343 C38.8915903,124.685524 39.3531423,125.425629 39.4755948,126.364993 C39.6074668,127.370777 39.4284977,128.405027 39.5132726,129.420299 C39.6451445,130.957441 40.1443742,132.864635 41.19935,134.079166 C42.4615533,135.511934 43.9027257,135.521422 45.7300946,135.511934 C46.6343596,135.511934 47.5480441,135.521422 48.4523091,135.511934 L48.4523091,135.511934 C50.0630312,135.502445 51.6266561,135.995849 53.2467976,135.995849 C64.9551458,135.995849 76.5787192,135.777613 88.2870674,135.919941 C95.6248013,136.005337 102.802405,136.005337 110.1213,135.995849 C112.834095,135.995849 115.923667,136.062268 118.466913,134.942622 C122.12165,133.339061 120.746414,126.754023 120.746414,123.414061 C120.746414,121.895897 121.236224,119.514276 120.793511,118.081508 C120.31312,116.544367 118.099555,115.178019 116.658383,114.732058 C115.21721,114.286097 112.334865,114.969271 111.176276,113.669343 C111.044404,113.517527 110.601691,111.126418 110.601691,110.813296 C110.601691,110.025748 111.298728,108.678377 111.44002,107.75799 C111.675505,106.182895 111.684925,104.607799 111.722603,103.004238 C111.816797,99.3132006 111.854475,95.6221633 111.807377,91.931126 C111.703764,84.55854 111.232792,77.1859539 110.036525,69.9177417 L110.036525,69.9177417 C109.509037,66.7106193 108.80258,63.4275887 106.956372,60.7708009 C105.562297,58.7687216 103.621895,57.2410686 101.709751,55.7418812 L101.709751,55.7418812 C101.700332,54.4799071 97.4898479,52.411408 96.4819692,51.6713028 C95.3893156,50.8742665 93.7880129,50.5706336 92.8554896,49.659735 C91.6969001,48.5400887 90.8397322,45.8833009 90.3405025,44.374625 C89.4644958,41.6988602 89.4927541,40.0573449 90.0296614,37.8844721" id="Fill-1" fill="#1D1D1B"></path>
    </g>
</svg>