<?xml version="1.0" encoding="UTF-8"?>
<svg width="159px" height="159px" viewBox="0 0 159 159" version="1.1" xmlns="http://www.w3.org/2000/svg" xmlns:xlink="http://www.w3.org/1999/xlink">
    <title>creature/spider</title>
    <g id="creature/spider" stroke="none" stroke-width="1" fill="none" fill-rule="evenodd" stroke-linejoin="round">
        <path d="M57.6000211,148.908894 C56.4985259,145.713169 55.3899699,142.524453 54.2884747,139.328728 C52.8339362,135.11682 51.2240586,130.953968 50.0095895,126.678986 C49.2258333,123.931784 48.7103901,121.023394 48.6397814,118.178078 C48.449138,110.721388 48.660964,103.250681 48.5197467,95.786982 C48.4844423,93.740597 49.2328942,92.5071594 50.8004066,91.3648281 C57.2257952,86.6903802 63.587636,81.9318342 69.9706594,77.1943128 C70.2742767,76.9630433 70.5002244,76.6266512 70.5072853,75.7015731 C67.6335126,76.5145205 64.7385572,77.2714026 61.8789063,78.1544318 C58.2849252,79.2687305 54.7968571,80.9927397 51.1322673,81.5323687 C45.0669829,82.4294141 42.2355754,86.515176 39.3618027,91.1055259 C34.9417002,98.1417263 30.1756152,104.960674 25,111.576384 C25.8402431,110.06262 26.6875471,108.555864 27.5136685,107.035091 C31.8984667,99.003731 36.2126562,90.9303217 40.7104282,82.9620349 C41.4235757,81.7005647 42.8004447,80.4040536 44.1490702,79.9625391 C52.4667711,77.24337 60.8621415,74.7624786 69.2222075,72.1834728 C69.4975813,72.0993748 69.7094073,71.8330644 70.2460332,71.4335989 C64.0465923,68.5812746 58.0166122,65.88313 52.0713626,63.0308057 C50.3202676,62.1898256 48.5974162,61.1035595 47.178182,59.786024 C43.5559574,56.4080871 40.1738023,52.770848 36.5586386,49.3718867 C34.7016307,47.6198447 33.7201703,46.1341131 34.4474395,43.2187153 C35.7678216,37.941565 36.2691431,32.4611778 37.7307425,27.1139457 C37.7307425,32.3770798 37.6107078,37.6472219 37.808412,42.910356 C37.8578381,44.2979732 38.5568639,45.9098518 39.4747765,46.9821014 C41.4518192,49.2877886 43.9725486,51.1449531 45.9001651,53.4856812 C52.3184929,61.2577392 62.1260366,62.8696178 70.2389723,67.5370576 C70.4649201,67.3268125 70.6908678,67.1165675 70.9168155,66.9063225 C68.5655469,61.79036 66.6238086,56.4221035 63.7288533,51.6285167 C60.8974458,46.9400524 61.7447498,42.1955228 62.0624888,37.4159524 C62.4437756,31.80241 63.2628361,26.2239084 63.8135837,20.6243824 C64.1525053,17.1062821 64.3431487,13.5671574 65.0986614,10.042049 L65.0986614,15.136987 C65.0986614,22.8039226 65.2045744,30.4848745 65.0562962,38.15181 C64.9715658,42.6860946 65.2681222,46.9680851 67.5770256,51.1029041 C69.9847811,55.3919028 71.8206064,59.996269 73.9035621,64.4604719 C74.2354228,64.4534637 74.5602227,64.4464556 74.8920834,64.4394474 C75.7464483,61.3698699 76.6008131,58.3002924 77.455178,55.2237068 C77.5540301,55.2377231 77.6599431,55.2517394 77.7658561,55.2657558 L77.7658561,62.0356459 C79.0226904,62.0917112 80.1241856,62.1477765 81.5010546,62.2108501 L81.5010546,55.2307149 C81.6422719,55.2166986 81.7834892,55.2026823 81.9247066,55.1886659 C82.8426192,58.3283251 83.7605319,61.4749924 84.6784445,64.6216598 C84.9820618,64.6076434 85.2927399,64.5866189 85.6034181,64.5726026 C88.4842516,58.3073006 91.3933287,52.0490068 94.2035536,45.7556721 C94.5212926,45.040839 94.3235883,44.0947363 94.3235883,43.2537562 C94.3306492,33.1619946 94.3306492,23.0702329 94.3306492,12.9784713 L94.3306492,10.0070082 C94.4789274,10.0070082 94.6272056,10.0070082 94.7754838,10 C95.2626836,15.8167793 95.714579,21.6265504 96.244144,27.4363215 C96.7595873,33.0358475 97.4444914,38.6213573 97.8752042,44.2348997 C97.9740563,45.5944842 97.5998304,47.1082485 97.0349611,48.3767268 C94.2953448,54.5439145 91.4215721,60.6410205 88.1594518,67.6912373 C91.7816763,66.1284159 94.5565969,64.6146516 97.5221609,63.7035898 C107.477983,60.6340123 113.97398,53.1352728 120.808899,46.085056 C121.479681,45.3912474 121.642081,44.0106383 121.663264,42.9383886 C121.740933,37.6892709 121.698568,32.4401533 122.249316,27.0999294 C122.898915,31.0385197 123.548515,34.97711 124.191054,38.9157003 C124.226358,39.1189372 124.127506,39.3712312 124.212237,39.5394272 C127.276653,45.5594434 123.251959,48.8112332 119.601491,52.7638399 C113.479719,59.3655339 106.510644,64.3413331 97.9952389,67.3338207 C95.0226141,68.3780377 92.2688761,70.0319653 88.7878689,71.7069174 C97.2114828,74.3349803 105.01374,76.8719371 112.879546,79.1706161 C115.859231,80.0466371 118.033978,81.1539276 119.587369,84.2235051 C124.007472,92.9276495 128.957139,101.372492 133.680859,109.929465 C133.963293,110.441061 134.125693,111.015731 133.878563,111.842694 C131.061277,107.644802 128.243991,103.446909 125.440827,99.2350005 C123.294324,96.0252597 120.950116,92.9206413 119.100169,89.5497126 C116.699475,85.1485832 113.282015,82.7377735 108.339409,81.546385 C101.808107,79.9695472 95.4674487,77.6077947 89.0420601,75.5824342 C88.9008428,75.8277201 88.7525646,76.0800141 88.6113472,76.3323082 C90.5177812,77.7409499 92.4100935,79.1846324 94.3447709,80.5652415 C99.3862297,84.1394071 104.477114,87.643491 109.462086,91.2877382 C110.154051,91.7993345 110.782468,92.906625 110.789529,93.740597 C110.88132,103.201623 111.029599,112.669658 110.733042,122.116668 C110.648312,124.800797 109.207895,127.456892 108.311165,130.098971 C106.171722,136.45538 103.982854,142.790763 101.236177,149 C102.147029,144.760058 102.697776,140.407986 104.025219,136.3012 C108.388835,122.817485 106.736592,108.969346 106.990783,95.2333367 C107.004905,94.5465363 106.510644,93.6004336 105.952836,93.200968 C100.28296,89.108198 94.5636578,85.0925179 88.8161124,81.0978623 C88.3853995,80.8035192 87.6934346,80.8736009 86.9096784,81.1048704 C96.1241093,86.1928002 100.169986,93.6424826 98.4753779,103.937481 C96.7313438,114.540839 87.7004954,117.687506 79.5804988,121.95548 C76.4595958,120.210447 73.2539624,118.276192 69.9212333,116.594232 C57.6776906,110.427044 56.6044389,89.3254512 71.3545893,82.2682263 C71.7711804,82.0649894 72.1383454,81.75663 72.533754,81.504336 C72.4349018,81.2520419 72.3431106,81.0067561 72.2513193,80.7614702 C71.6158413,80.9366744 70.8603286,80.9506907 70.3660679,81.3151155 C64.7385572,85.4919835 59.1251683,89.6968841 53.5965097,93.9998992 C52.9327883,94.5185036 52.4455885,95.6888676 52.4385276,96.5648886 C52.3537972,104.967682 51.8807192,113.419532 52.5515015,121.773268 C53.0669447,128.129676 55.0863526,134.359937 56.4349781,140.646264 C57.0139692,143.351417 57.5858994,146.05657 58.1578296,148.761722 C57.974247,148.810779 57.7836036,148.859837 57.6000211,148.908894" id="Fill-1" stroke="#1D1D1B" stroke-width="2" fill="#1D1D1B"></path>
    </g>
</svg>