<?xml version="1.0" encoding="UTF-8"?>
<svg width="159px" height="159px" viewBox="0 0 159 159" version="1.1" xmlns="http://www.w3.org/2000/svg" xmlns:xlink="http://www.w3.org/1999/xlink">
    <title>creature/troll</title>
    <g id="creature/troll" stroke="none" stroke-width="1" fill="none" fill-rule="evenodd">
        <path d="M84.0310663,15.5220479 C84.6506859,14.9856905 85.0789524,14.5584227 85.5710033,14.2038813 C86.0174939,13.8675216 86.5095448,13.5766158 87.0107077,13.3220733 C87.4845345,13.0675308 88.0403697,13.1311664 88.2499469,13.612979 C88.4139639,13.985702 88.4048518,14.5584227 88.2317228,14.9311456 C88.0221456,15.3856858 87.5118706,15.6856824 87.229397,16.122041 C86.9651474,16.5038548 86.8193546,16.9765766 86.6462256,17.4129352 C86.208847,18.5038317 85.7714684,19.5947282 85.361426,20.6947155 C85.2247452,21.0492568 85.0425042,21.4492522 85.1062886,21.7947028 C85.7988046,25.7401118 87.9856974,28.6400783 91.2113643,30.976415 C93.0793352,32.3309448 94.7650651,34.0036527 96.2685539,35.7490871 C99.029506,38.9672318 100.669676,42.8308236 102.127604,46.7762326 C103.284835,49.8852876 104.442066,53.0125242 105.845322,56.0124896 C106.519614,57.4579274 107.685957,58.7124584 108.797627,59.894263 C111.540355,62.8305927 113.927713,66.0487374 116.233063,69.3214269 C118.775326,72.9213853 121.19002,76.603161 123.63205,80.2667551 C124.105877,80.966747 124.871289,81.0031102 125.536469,81.2485619 C128.516111,82.3758216 131.468416,83.5485353 133.873998,85.7212375 C134.876324,86.630318 135.459495,87.693942 135.732857,89.0575627 C136.516493,92.9938809 136.662286,96.9938347 136.981208,100.975607 C137.090553,102.311955 136.543829,103.530123 135.322814,104.139207 C133.746429,104.921016 132.069811,105.502827 130.429642,106.157365 C130.010487,106.330091 129.573109,106.420999 129.163066,106.593724 C128.02406,107.066446 126.957949,106.993719 125.910063,106.339181 C124.351902,105.366465 123.376912,103.9483 122.711733,102.284683 C122.483931,101.711962 122.638836,101.221059 123.130887,100.911971 C123.72317,100.548339 124.379238,100.284706 125.144651,99.9119828 C124.780169,99.6119863 124.424799,99.3028989 124.051204,99.0119932 C122.784629,98.0120047 121.59095,96.9392899 121.244692,95.2847635 C121.016891,94.2029578 120.861986,93.0938797 120.843762,91.9938924 C120.83465,91.1575384 120.497504,90.6575442 119.832324,90.2757304 C117.982577,89.2121063 116.141942,88.1393914 114.292195,87.0757674 C112.424224,86.0030525 110.601814,84.8394295 109.29879,83.1212676 C108.469593,82.0303711 107.886422,80.7303861 107.312362,79.4667643 C105.88177,76.3304369 104.496738,73.166837 103.12993,70.0032372 C101.462424,66.1669178 99.8678149,62.2942352 98.1456368,58.4851883 C97.4713449,56.9761148 96.4416829,55.6306758 95.7400548,54.1397839 C94.8015133,52.1579886 94.0269887,50.1034669 93.1886798,48.0853084 C93.042887,47.7398578 92.8970941,47.4034981 92.6237325,47.0944107 C92.7330772,47.6489498 92.8241977,48.2216704 92.9608785,48.7671187 C93.4073691,50.5034623 93.8720838,52.2307151 94.3367986,53.9579678 C94.6830566,55.2215896 95.0110905,56.503393 95.430245,57.7488332 C95.7218307,58.6033688 96.1592092,59.4124503 96.5145793,60.2488043 C96.9428458,61.2487928 97.3711123,62.2487812 97.7902668,63.2396789 C98.7288082,65.4578351 99.6946859,67.6669005 100.605891,69.8941475 C101.599105,72.3395738 102.601431,74.7850001 103.467076,77.2758805 C104.077584,79.0122241 104.186928,80.8303849 103.685765,82.6576365 C103.576421,83.0758135 103.640205,83.5848986 103.758662,84.0121664 C104.259825,85.7848732 104.833884,87.5303076 105.344159,89.3030144 C105.83621,91.0211764 106.23714,92.7666108 106.774751,94.4665911 C107.476379,96.6756565 107.512828,98.8756311 106.792975,101.066515 C106.619846,101.584691 106.346485,102.184684 105.608408,101.848324 C104.852108,103.239217 105.016125,104.684655 105.435279,106.030094 C106.045787,107.939163 105.772425,109.820959 105.562848,111.711847 C105.389719,113.302737 105.116358,114.893628 104.779212,116.457246 C104.323609,118.602676 104.059359,120.91174 102.492086,122.548085 C100.159401,125.011693 98.8199288,127.984386 97.5260172,131.002533 C96.8517253,132.584333 96.29589,134.220678 95.6853824,135.82975 C95.6307101,135.975203 95.5942619,136.157019 95.6215981,136.311563 C95.8676235,138.129723 95.8949597,140.01152 96.7332686,141.693319 C97.0795266,142.393311 97.6353619,142.993304 98.1456368,143.602388 C99.020394,144.666012 99.4122122,145.784181 98.8746011,147.147801 C98.5739033,147.884156 98.0180681,148.338697 97.325552,148.484149 C96.29589,148.711419 95.2297798,148.756874 94.072549,148.893236 C94.6739445,146.484172 94.0998852,144.456923 92.5143879,142.675126 C92.5508361,143.429662 92.6055084,144.19329 92.6146205,144.956917 C92.6237325,145.756908 92.7148531,146.593262 92.5417241,147.36598 C92.0952334,149.256868 91.3480451,149.884133 89.1976005,149.311413 C87.7578961,148.929599 86.4639845,148.0387 85.0971765,147.393253 C83.9672819,146.865986 82.8373873,146.356901 81.6892686,145.875089 C81.2245538,145.675091 80.8782958,145.456912 80.7962873,144.893282 C80.5775981,143.329663 80.3680208,141.766045 80.058211,140.211518 C79.7575133,138.666081 79.374807,137.129735 78.9829887,135.60248 C78.7005151,134.529765 78.3360329,133.484323 78.0262231,132.429789 C77.9897749,132.266155 78.0444472,132.047975 78.1173437,131.893432 C79.1743418,129.529823 80.3133485,127.220758 81.8715096,125.138964 C83.1198609,123.475347 84.4046604,121.829912 85.5983394,120.129931 C86.7829064,118.439042 87.8216804,116.648153 88.3410675,114.629995 C88.4686362,114.12091 88.4048518,113.475463 88.2226108,112.984559 C87.575655,111.30276 87.5392068,111.320942 86.2270711,110.39368 C85.3249778,112.53911 84.4319966,114.657267 83.475231,116.929968 C82.8829475,116.702698 82.2633279,116.475428 81.6437083,116.220885 C81.1425454,116.020888 80.6231583,115.829981 80.1493315,115.566348 C79.5934963,115.25726 79.4021432,115.393622 79.2107901,115.984525 C78.8827561,116.966331 78.4544896,117.911775 78.0262231,118.857219 C77.8804303,119.175397 77.6435169,119.457212 77.3974915,119.720845 C76.7778718,120.384474 76.3313812,120.357201 75.7664339,119.639028 C74.9099009,118.566313 74.0624799,117.484507 73.2059469,116.411792 C73.0783782,116.248158 72.9234733,116.111796 72.704784,115.875435 C72.2765175,116.584518 71.8755871,117.248146 71.4837689,117.911775 C71.4382086,117.984501 71.4382086,118.093591 71.4382086,118.184499 C71.5566653,119.757208 71.511105,121.35719 71.8300269,122.875354 C72.1580608,124.457154 72.7776804,125.9935 73.4064121,127.493483 C74.2082728,129.438915 75.274383,131.275257 75.9942352,133.247962 C76.7140875,135.229757 77.1970263,137.30246 77.7164133,139.347891 C78.0626713,140.720603 78.354257,142.111496 78.5273861,143.51148 C78.7642994,145.466002 78.8827561,147.420525 79.0012128,149.384139 C79.0467731,150.084131 78.6549548,150.665942 78.0262231,150.920485 C76.8781044,151.393207 75.7117616,151.875019 74.4998585,152.120471 C72.6045514,152.520466 70.654572,152.665919 68.7592649,153.047733 C67.747827,153.247731 66.8092855,153.747725 65.8160717,154.065903 C64.494824,154.48408 63.1462401,154.702259 61.7794321,154.220447 C61.1142522,153.993177 60.4490723,153.193186 60.4946326,152.347741 C60.5493049,151.32048 60.7224339,150.284129 60.9320111,149.275049 C61.0595799,148.593239 61.3329415,147.938701 61.588079,147.102347 C60.4946326,147.802339 59.7930045,148.665965 59.3829621,149.675045 C58.9638076,150.684124 58.7724545,151.77502 58.4626447,152.90228 C57.5878876,152.584102 56.6220099,152.202288 55.6470202,151.88411 C54.6629184,151.565932 54.2984363,150.447763 54.3622207,149.647772 C54.4806774,148.402332 55.0091765,147.36598 56.1755193,146.775078 C57.3965344,146.165994 57.9614817,145.038735 58.4899808,143.902384 C59.1460487,142.520582 59.884125,141.14787 59.8750129,139.566071 C59.8659009,138.866079 59.720108,138.156996 59.6016513,137.466095 C59.0184799,134.211587 58.4990929,130.938897 57.2780777,127.848024 C57.0593885,127.284394 56.7313545,126.748037 56.3942086,126.238952 C55.4830032,124.829877 55.1458573,123.248077 55.1549693,121.639005 C55.1731934,118.702675 55.2916501,115.766345 55.446555,112.830016 C55.5467876,110.902765 55.783701,108.984605 55.95683,107.057355 C55.9841662,106.802812 55.95683,106.557361 55.95683,106.175547 C54.8269354,106.975538 54.5353497,108.111888 54.0068506,109.166421 C53.9886265,109.002787 53.9248421,108.839152 53.9430662,108.675518 C54.2346519,106.375545 54.6173582,104.084662 54.7813751,101.775598 C54.8633836,100.566521 54.5444617,99.3392622 54.3895568,98.1120036 C54.243764,96.9392899 54.1070832,95.7665761 53.9339542,94.6029532 C53.7881613,93.5847831 53.6514805,92.5757039 53.4327912,91.5757154 C53.3781189,91.3302637 53.0865332,91.039358 52.8313957,90.9393591 C51.2458985,90.3120936 49.9884351,89.3121052 49.5875047,87.6212156 C49.3323673,86.5303191 49.3414793,85.3666962 49.3597034,84.2303457 C49.4325998,80.0940298 50.4258137,76.13953 52.0386471,72.3486646 C52.8587319,70.4214142 53.8428336,68.5577993 54.754039,66.666912 C54.9453921,66.2578259 55.1458573,65.8487397 55.2916501,65.4305627 C55.9659421,63.4578582 56.6857943,61.4942445 57.2598536,59.4942676 C57.6334478,58.1942826 57.7974648,56.830662 57.9250335,55.4306781 C57.5878876,56.0215804 57.2234054,56.594301 56.9044836,57.1942941 C54.6446943,61.3851548 52.4304654,65.5941972 50.1160038,69.7577855 C49.3779275,71.0941337 48.4758342,72.375937 47.4735084,73.5213784 C44.1202728,77.3667885 40.6668046,81.1212906 37.2953448,84.9485192 C36.639277,85.6848743 36.0287694,86.5212283 35.609615,87.4030363 C35.2451328,88.1757547 35.2086846,89.0939259 34.9626592,89.9302799 C34.6072891,91.1393568 34.1972467,92.339343 33.7507561,93.7029636 C34.251919,93.7029636 34.7713061,93.7029636 35.2906931,93.7029636 C36.3112431,93.7211452 37.0857676,94.2029578 37.5595944,95.0665842 C38.4981359,96.7847462 39.3182207,98.5483622 39.7920474,100.484703 C40.2112019,102.202865 39.8284957,103.593758 38.6803769,104.866471 C37.1677761,106.530088 35.4091498,107.91189 33.4227222,108.948242 C32.70287,109.320965 31.8007767,109.384601 30.9624678,109.4846 C30.151495,109.584598 29.294962,109.702779 28.4931013,109.566417 C26.6706907,109.248239 25.6865889,107.966435 25.1398657,106.275546 C24.4837979,104.211933 23.7274975,102.175593 23.144326,100.093799 C22.4882582,97.7392806 21.6408372,95.3483991 22.1511122,92.8666096 C22.45181,91.4120809 23.0440935,89.9666431 23.7457216,88.6484765 C26.4337773,83.6303526 29.1856174,78.6576827 31.9739057,73.7031945 C33.1220244,71.6577635 34.3977119,69.685059 35.6642873,67.7123545 C36.0925538,67.039635 36.6301649,66.4123695 37.1951122,65.8396489 C39.7282631,63.2760421 41.5051135,60.2851675 42.3616465,56.7761171 C42.972154,54.2579644 43.5553255,51.7398116 44.1749451,49.2216589 C44.7216683,46.9580487 45.1499348,44.6489844 45.9062352,42.4490098 C46.8721129,39.6490421 48.4576101,37.1399802 50.6991753,35.1672757 C51.5830444,34.3854665 52.7584993,33.9309263 53.8246095,33.3491148 C56.0661747,32.1218563 58.3168518,30.9127793 60.4764085,29.7400656 C61.4605102,30.9218701 62.3352673,32.1400379 63.3831535,33.1763896 C64.2123503,34.0036527 65.18734,34.7400079 66.217002,35.2945469 C66.9550784,35.6854515 67.8936198,35.849086 68.7410408,35.849086 C70.490555,35.849086 72.2582934,35.7945412 73.9804715,35.521817 C75.6570893,35.2581837 77.1332419,34.3945573 78.5364981,33.4400229 C78.5820584,33.4036597 78.5911704,33.3218424 78.6640669,33.1672988 C77.9715508,33.3127516 77.3519312,33.5309309 76.7140875,33.5672941 C75.0648058,33.6491114 73.3973,33.7763826 71.7480184,33.6763838 C69.9802801,33.5582033 68.2398779,33.1400263 66.7090529,32.1400379 C64.7317373,30.8582345 63.2829209,29.1128001 62.5995169,26.8673715 C61.9070008,24.5492164 61.3602776,22.1765165 60.8500026,19.8038167 C60.5401928,18.4038328 60.8591147,17.003849 61.7429839,15.8947709 C62.9731111,14.358425 63.7385235,12.5857182 64.6588409,10.8948286 C65.8889681,8.61303676 67.410681,6.54942421 69.807151,5.35852887 C71.4746568,4.52217489 73.2332831,4.331268 75.1103661,4.62217374 C78.8371959,5.1948944 81.3338985,7.31305176 82.8738355,10.5766505 C83.466119,11.849363 83.6119118,13.3402549 83.9581698,14.7311479 C84.0037301,14.9038732 83.994618,15.0947801 84.0310663,15.5220479" id="Fill-8" fill="#1D1D1B"></path>
        <path d="M59.3131786,15.3989318 C58.7911786,14.1029318 58.2781786,12.8789318 57.8191786,11.6369318 C57.7201786,11.3849318 57.7021786,10.8989318 57.8461786,10.7999318 C58.0891786,10.6199318 58.5571786,10.5209318 58.8091786,10.6469318 C59.6101786,11.0339318 60.3571786,11.5199318 61.0861786,12.0059318 C61.2121786,12.0959318 61.2931786,12.4559318 61.2211786,12.5909318 C60.7261786,13.4909318 60.1861786,14.3729318 59.6551786,15.2459318 C59.6191786,15.3089318 59.4931786,15.3179318 59.3131786,15.3989318" id="Fill-11" fill="#1D1D1B"></path>
    </g>
</svg>