<?xml version="1.0" encoding="UTF-8"?>
<svg width="159px" height="159px" viewBox="0 0 159 159" version="1.1" xmlns="http://www.w3.org/2000/svg" xmlns:xlink="http://www.w3.org/1999/xlink">
    <title>creature/undead</title>
    <g id="creature/undead" stroke="none" stroke-width="1" fill="none" fill-rule="evenodd">
        <path d="M88.1487349,66.231008 C93.9552053,63.394688 96.8401811,59.546048 97.4427393,54.475328 C98.1822426,48.364928 102.034964,44.716928 106.471983,40.850048 C109.649109,44.333888 110.379482,48.200768 108.982643,52.067648 C106.718484,58.351328 103.842638,64.407008 101.341109,70.599488 C100.245548,73.299008 99.08608,76.035008 98.5474295,78.871328 C97.6618514,83.513408 94.5303745,86.450048 91.9466778,90.043328 C89.4816668,93.472448 87.1718602,100.266848 88.8973679,102.838688 C94.1469284,110.700128 92.3757723,119.528288 94.5942822,127.672448 C97.1414602,136.983968 110.507298,145.866848 119.892599,143.377088 C121.8007,142.866368 123.325355,140.905568 125.178678,139.501088 C126.584647,148.694048 135.257834,142.702208 140.881711,146.003648 L18.0693855,146.003648 C18.0511262,145.575008 18.0237371,145.155488 17.9963481,144.735968 C24.7888229,144.480608 31.5721679,144.225248 38.355513,143.988128 C39.9166866,143.933408 41.4961196,144.061088 43.0390338,143.878688 C51.2192185,142.911968 52.0226295,142.164128 53.6659701,134.083808 C54.3598251,130.691168 54.9897723,127.280288 55.774924,123.231008 C56.7883174,124.298048 57.4730426,125.027648 58.5503437,126.167648 C60.8510207,118.725728 60.5223525,111.758048 57.5552097,104.908928 C56.1035921,101.534528 55.2088844,98.643488 58.8151042,95.679488 C61.8461547,93.180608 60.0019613,90.125408 58.4499174,87.234368 C56.6148536,83.805248 54.8619569,80.248448 53.7298778,76.545728 C51.5570163,69.459488 49.9501943,62.209088 47.8503701,55.095488 C47.3391086,53.362688 46.0335657,51.748448 44.7828009,50.362208 C40.5009855,45.647168 39.7888712,39.737408 39.7249635,33.909728 C39.7067042,32.012768 42.3634382,30.079328 43.7967965,28.173248 C44.8832273,30.024608 46.2983262,31.757408 46.9921811,33.745568 C49.23808,40.239008 51.1735701,46.841888 53.337302,53.362688 C53.8850822,55.004288 54.8163086,56.518208 55.5649415,58.095968 C56.2770558,57.494048 56.9800404,56.901248 57.6921547,56.299328 C57.54608,55.715648 57.5552097,55.040768 57.2448009,54.575648 C50.9909767,45.400928 53.4651174,34.803488 52.3878163,24.798848 C52.2873899,23.823008 52.479113,22.509728 53.0725415,21.816608 C54.3141767,20.384768 55.911869,19.272128 57.3634866,18.022688 C58.486436,19.600448 60.3032404,21.041408 60.6045196,22.755968 C62.1839525,31.584128 63.3525503,40.476128 64.7402602,49.340768 C64.968502,50.818208 65.5436712,52.250048 66.9770295,53.517728 C66.1644888,47.680928 66.1188404,41.607008 64.3476844,36.080288 C62.1109152,29.112608 65.6258382,23.567648 67.2965679,17.557568 C67.4700316,16.937408 71.5692536,16.508768 71.7701064,16.946528 C73.0482602,19.737248 74.8741943,22.983968 74.4268404,25.729088 C72.9113152,34.903808 75.1206954,43.503968 76.4718866,52.268288 C77.0105371,52.450688 77.5491877,52.633088 78.0969679,52.815488 C78.9277679,51.237728 80.3702558,49.705568 80.4980712,48.063968 C81.0549811,41.023328 81.2649635,33.946208 81.529724,26.887328 C81.63928,23.959808 81.0184624,20.877248 81.7762251,18.159488 C82.2692273,16.408448 84.6794602,15.195488 86.2315042,13.745408 C87.6283437,15.323168 90.029447,16.791488 90.2302998,18.506048 C90.9606734,24.844448 91.4810646,31.283168 91.0976185,37.630688 C90.6502646,45.054368 89.1256097,52.405088 88.1852536,59.810528 C87.9570119,61.598048 88.1487349,63.449408 88.1487349,66.231008" id="Fill-1" fill="#1D1D1B"></path>
        <path d="M105.956057,116 C103.496424,108.758277 103.08489,102.414824 106.300597,96.275103 C107.228941,94.5063446 108.989923,92.5060734 110.808329,91.9504425 C113.545508,91.1169961 117.249313,90.4594995 119.42183,91.6448455 C120.876554,92.4412498 121.498641,97.0622468 120.541585,99.1180811 C118.273363,103.998373 115.048085,108.517504 111.765385,112.879206 C110.683912,114.314586 108.262561,114.814654 105.956057,116" id="Fill-4" fill="#1D1D1B"></path>
        <path d="M34.5982828,127.00696 C38.5455806,126.998729 43.1857067,130.743883 42.9942673,133.781163 C42.7754794,137.254691 39.7489139,138.069571 36.7041161,137.995491 C32.7659344,137.91318 30.1040153,135.929482 30.0037376,132.20079 C29.9308083,129.352826 30.9062375,126.850569 34.5982828,127.00696" id="Fill-6" fill="#1D1D1B"></path>
        <path d="M134,114.941078 C131.215512,117.291078 128.688493,120.281078 125.522568,121.731078 C123.958678,122.451078 121.212333,120.351078 119,119.521078 C120.172918,117.721078 120.983471,115.001078 122.595041,114.321078 C125.732359,112.981078 129.298792,112.791078 132.693579,112.121078 C133.132231,113.061078 133.561348,114.001078 134,114.941078" id="Fill-8" fill="#1D1D1B"></path>
        <path d="M28.8131426,117 C25.9032114,114.763441 22.6493792,112.862366 20.2773444,110.113262 C19.4396369,109.144086 20.735879,106.096774 21.062144,104 C22.6670152,104.549821 24.8803265,104.587097 25.7709418,105.751971 C27.8519835,108.473118 29.2981311,111.734767 31,114.782079 C30.2769262,115.51828 29.5450344,116.263799 28.8131426,117" id="Fill-10" fill="#1D1D1B"></path>
        <path d="M41.47,107.386257 C40.25,109.066257 39.16,110.896257 37.69,112.316257 C37.37,112.616257 35.62,111.416257 34.53,110.916257 C36.07,109.156257 37.61,107.396257 39.15,105.636257 C39.92,106.226257 40.7,106.806257 41.47,107.386257" id="Fill-12" fill="#1D1D1B"></path>
    </g>
</svg>