<?xml version="1.0" encoding="UTF-8"?>
<svg width="159px" height="159px" viewBox="0 0 159 159" version="1.1" xmlns="http://www.w3.org/2000/svg" xmlns:xlink="http://www.w3.org/1999/xlink">
    <title>creature/dragon</title>
    <g id="creature/dragon" stroke="none" stroke-width="1" fill="none" fill-rule="evenodd">
        <g id="Group-5" transform="translate(14.000000, 16.000000)">
            <path d="M127.623573,44.5238636 C126.921493,43.6205846 126.247496,42.6986812 125.498611,41.8326508 C122.896233,38.8062005 120.359384,35.6959407 116.830261,33.6565788 C113.797274,31.9058936 112.196531,33.6193302 111.999949,36.4502253 C111.868894,38.3219684 112.477363,40.0540292 113.450915,41.6370956 C115.978403,45.7251316 118.983306,49.4127449 122.531152,52.6906235 C126.593856,56.4527341 129.748536,60.8666955 131.265029,66.2770576 C132.772161,71.6781074 131.939026,76.7439197 128.971567,81.4838066 C128.625208,82.0239116 128.260126,82.5453923 127.895044,83.0854972 C127.876322,83.1134337 127.810795,83.1227459 127.689101,83.1693066 C127.689101,82.9923757 127.651656,82.8247569 127.689101,82.6850746 C128.522236,80.1149198 128.990289,77.5261407 128.241404,74.834928 C127.623573,72.6372594 125.919859,71.3614942 123.879146,71.6594831 C122.418819,71.8643505 121.089547,73.0842428 120.911687,74.6114362 C120.67766,76.520428 120.537244,78.4387319 120.481077,80.3570358 C120.359384,84.3798868 119.694748,88.3189283 118.674391,92.2020969 C117.644674,96.1504506 116.137541,99.9125612 114.031301,103.413931 C110.380484,109.485457 105.503367,114.262592 99.0442292,117.36354 C98.0800391,117.819835 97.0690436,118.183009 95.908271,118.657929 C96.039326,118.387877 96.0580481,118.294755 96.1142146,118.22957 C99.4935605,114.560581 101.749578,110.27699 102.966517,105.462606 C103.097572,104.913188 103.116294,104.261338 102.975878,103.721233 C102.601435,102.305785 101.24408,101.784304 99.7463094,102.380282 C98.5480925,102.864514 97.6775131,103.730545 96.9473497,104.74557 C91.7706785,112.018363 84.8622095,117.084175 76.671274,120.529672 C72.9268463,122.112739 69.0794469,123.304694 65.1103536,124.170725 C60.5702351,125.167125 55.9739502,125.772416 51.3121378,125.912098 C47.8859865,126.014532 44.4504741,126.13559 41.0430449,125.586172 C38.1691967,125.120565 35.2953485,124.599084 32.4683056,123.937921 C26.8797473,122.634219 21.5813822,120.576233 16.7042652,117.540471 C10.5446817,113.713175 5.77053649,108.647363 2.80307757,102.007796 C1.32402865,98.7112932 0.434727088,95.2471716 0.125811807,91.6247433 C-0.126937059,88.6541659 -0.0333263681,85.7394614 0.724920231,82.8526934 C1.83888746,78.5970386 3.87023945,74.8163036 6.88450371,71.6129223 C10.5353207,67.7390659 14.9911896,65.0478531 19.9151119,63.1016127 C24.2399259,61.3974884 28.7426001,60.4383364 33.3669682,60.0658502 C33.7507721,60.0379137 34.1252148,59.9727287 34.4996576,59.9261679 C34.6026294,60.0379137 34.7056011,60.1589718 34.7992118,60.2707176 C34.5839072,60.3359027 34.3124362,60.354527 34.1626591,60.4942093 C33.6478003,60.9598171 33.0954972,61.4068005 32.7116934,61.974842 C31.7381422,63.3902895 32.4683056,65.1782233 34.1532981,65.5972702 C36.0629562,66.0815023 38.0006975,65.9325078 39.9197166,65.643831 C42.1570122,65.3085934 44.3943077,64.9081708 46.6316032,64.5449967 C46.874991,64.5077481 47.1371009,64.563621 47.4085719,64.740552 C47.0622124,64.9454194 46.7064917,65.1316625 46.3882154,65.3737785 C45.2180818,66.2398089 45.1338321,67.7297537 46.3039658,68.5771598 C47.015407,69.0800162 47.8953475,69.489751 48.7565659,69.6480577 C50.1607262,69.8994858 51.611692,69.9646709 53.0439355,70.0205438 C56.3951983,70.150914 59.7651832,70.0671046 63.0134741,71.0635052 C63.7155543,71.2683726 64.352107,71.6687953 65.026104,71.9760964 C64.9886597,72.0785301 64.9512155,72.1809638 64.9137712,72.2833975 C64.3989124,72.2182124 63.8840536,72.134403 63.3598337,72.0878422 C62.0118398,71.9388478 60.6544847,71.9760964 59.465629,72.7117566 C58.9601312,73.0097456 58.4920778,73.4939776 58.2112457,74.0061462 C57.2564166,75.7288948 56.4700868,77.544765 56.6198639,79.5561905 C56.7041136,80.6457126 57.1440838,81.6979862 57.303222,82.7781961 C57.6402205,85.0876106 58.0989129,87.4063371 58.1269961,89.7250637 C58.1550793,92.1555362 57.705748,94.5860086 56.1050051,96.6160584 C55.8990616,96.8674866 55.683757,97.1096026 55.4216471,97.4075915 C55.3186753,97.2399728 55.2344257,97.1654755 55.2250646,97.0816661 C54.1204585,88.4399863 49.1684529,82.6943867 41.5017373,79.0067734 C38.609167,77.6099501 35.5480974,76.7532319 32.3934171,76.1200053 C28.7051558,75.3750329 24.9794503,75.0304832 21.2443837,75.0584197 C16.6387377,75.0863561 12.3700902,76.4273065 8.85968929,79.528254 C7.28702968,80.9157651 6.3415617,82.7502597 5.91095252,84.8268702 C5.01228989,89.0918372 6.40708919,92.7887627 8.75671753,96.2249479 C11.396539,100.08018 14.9724674,102.920387 19.0070882,105.22049 C23.0229869,107.51128 27.4226894,108.805669 31.9253636,109.80207 C36.4935653,110.807783 41.1272945,111.105771 45.7797459,110.789158 C49.8986163,110.500481 53.9519592,109.71826 57.8929693,108.405247 C61.637397,107.157418 65.1477979,105.453293 68.3680057,103.19044 C73.5727601,99.5493872 77.2984656,94.8281246 78.833681,88.6076051 C79.6200108,85.4228481 79.7417047,82.1822182 79.3017344,78.8950275 C78.1316008,70.3185328 73.7318983,63.5951569 67.2446774,58.1196098 C63.5938604,55.0465987 59.3252129,53.0537975 54.7195669,51.7500958 C50.5164469,50.55814 46.2290772,50.073908 41.8855411,49.9621621 C41.4736541,49.9528499 41.0617671,49.8690405 40.64988,49.8783527 C40.2754373,49.8876649 39.9009945,49.9714742 39.5265517,50.0273472 C39.5265517,51.461419 39.1989143,51.7407837 37.7011433,51.7873445 C36.3625104,51.8245931 35.1736546,51.4148583 34.0035209,50.8281925 C33.6571614,50.6512616 33.1610247,50.5674522 32.786582,50.6605737 C30.1561215,51.3124246 27.5443833,52.001524 24.932645,52.71856 C21.0384402,53.7894578 17.0599858,54.3481871 13.0534483,54.7113611 C11.4059001,54.8603556 9.767713,55.1117838 8.12016483,55.1769689 C6.75344874,55.2421539 5.35864944,55.1583446 4.46934788,53.8173942 C4.36637612,53.6683998 4.07618298,53.6311511 3.86087839,53.5939025 C3.05582644,53.4542202 2.54096764,53.081734 2.2507745,52.2622644 C1.74527676,50.8468168 1.63294394,49.5151787 2.36310733,48.1183554 C2.67202261,47.5223775 2.60649512,46.7587808 2.81243864,46.0976178 C3.47707455,43.9930708 4.75954102,42.26101 6.25731208,40.6779436 C8.20441446,38.6106452 10.4042657,36.8413358 12.744533,35.2210208 C13.3810857,34.7833495 13.8116949,34.0476893 14.3546369,33.4703357 C14.5886636,33.2282197 14.8694957,33.0233522 15.1690499,32.7719241 C15.4966873,33.9452556 15.8056026,34.0011285 16.6668209,33.1723467 C17.4625118,32.40875 18.2301195,31.6079047 19.0726157,30.8908688 C19.6717241,30.3787002 19.8495844,30.4811339 19.9431951,31.2447306 C19.9993615,31.7662113 20.2427493,31.9058936 20.6546364,31.6172168 C21.0290791,31.3564765 21.3567166,31.0212389 21.7030761,30.72325 C22.4145174,30.0900234 23.1165976,29.4474847 23.8373999,28.8328825 C23.9965381,28.7118245 24.2680091,28.6466394 24.4552304,28.683888 C24.5488411,28.7025123 24.5769243,29.0284378 24.6330908,29.2053687 C24.6986182,29.4381726 24.7547847,29.8479074 24.8483954,29.8665317 C25.1198664,29.8944682 25.4662259,29.8292831 25.6908916,29.6802886 C26.2806389,29.2705538 26.8048588,28.7676974 27.3852451,28.3486505 C28.321352,27.659551 28.4804902,27.7247361 28.6021841,28.8701311 C29.3978749,28.9260041 30.0344276,28.8142582 30.6148139,28.1065344 C33.5635507,24.5120426 37.0552295,21.588026 41.5298205,20.0328961 C42.8778145,19.5579762 44.3287802,19.3531088 45.7329406,19.0364955 C46.1916329,18.9340618 46.3133268,19.1482414 46.2946047,19.5859127 C46.2477994,21.3179735 45.4895528,22.7706696 44.4504741,24.0743713 C43.4488397,25.3315123 42.3067893,26.4769073 41.2302663,27.6688631 C41.6983198,27.6688631 42.2319007,27.6781753 42.7561206,27.659551 C45.7235795,27.5571173 48.6910384,27.4733079 51.6584973,27.3336256 C53.3996562,27.2498162 55.1033707,26.9332029 56.4326426,25.6574377 C57.705748,24.4375454 58.0708297,22.5844265 57.3406663,20.9827359 C56.1050051,18.3101474 53.8583486,16.6712082 51.1717217,15.8331142 C48.0544857,14.8739623 44.8342779,14.1848628 41.6327923,13.5609484 C39.7699395,13.1977744 37.8321982,13.113965 35.9319012,13.0674042 C32.9925255,12.992907 30.0531498,13.113965 27.1231351,13.0301556 C24.9607282,12.9649705 22.8076823,12.7414788 20.6546364,12.5272992 C19.7278905,12.4248655 18.6700897,12.2293102 18.3330912,11.251534 C18.0054538,10.2737577 18.6420065,9.42635161 19.2691982,8.69069137 C20.6359142,7.08900071 22.4519617,6.17640953 24.4177862,5.5618073 C27.8813817,4.47228517 31.3262552,3.30826581 34.8366561,2.39567462 C38.9555265,1.33408896 43.1586465,0.644989491 47.4085719,0.281815448 C53.7928211,-0.258289539 60.1583481,-0.00686135545 66.4770697,0.905729829 C70.7550783,1.52964421 75.0330869,2.31186523 79.2549291,3.25239288 C85.1711248,4.58403103 90.8720158,6.62339297 96.3763245,9.20285989 C100.832193,11.2887826 105.054036,13.7565037 108.94824,16.7363932 C114.003218,20.6009375 118.328032,25.1638935 121.716739,30.5649433 C124.422088,34.8857832 126.45344,39.4952999 127.623573,44.5238636 M14.1299712,43.0991039 C13.147059,43.2015376 12.3232849,43.2480984 11.5088719,43.3877807 C10.2170443,43.6019603 8.91585571,43.9371978 8.28866408,45.2129631 C7.9797488,45.8368775 8.01719307,46.6190985 7.89549918,47.3268222 C8.58821829,47.4013195 9.33710382,47.671372 9.98301759,47.5223775 C12.0424528,47.0567697 13.3998078,45.6133857 14.5231361,43.9371978 C14.64483,43.7602669 14.6729132,43.4250293 14.5886636,43.2387862 C14.5324972,43.1084161 14.1954987,43.1177282 14.1299712,43.0991039" id="Fill-1" fill="#1D1D1B"></path>
            <path d="M127.623573,44.5238636 C126.921493,43.6205846 126.247496,42.6986812 125.498611,41.8326508 C122.896233,38.8062005 120.359384,35.6959407 116.830261,33.6565788 C113.797274,31.9058936 112.196531,33.6193302 111.999949,36.4502253 C111.868894,38.3219684 112.477363,40.0540292 113.450915,41.6370956 C115.978403,45.7251316 118.983306,49.4127449 122.531152,52.6906235 C126.593856,56.4527341 129.748536,60.8666955 131.265029,66.2770576 C132.772161,71.6781074 131.939026,76.7439197 128.971567,81.4838066 C128.625208,82.0239116 128.260126,82.5453923 127.895044,83.0854972 C127.876322,83.1134337 127.810795,83.1227459 127.689101,83.1693066 C127.689101,82.9923757 127.651656,82.8247569 127.689101,82.6850746 C128.522236,80.1149198 128.990289,77.5261407 128.241404,74.834928 C127.623573,72.6372594 125.919859,71.3614942 123.879146,71.6594831 C122.418819,71.8643505 121.089547,73.0842428 120.911687,74.6114362 C120.67766,76.520428 120.537244,78.4387319 120.481077,80.3570358 C120.359384,84.3798868 119.694748,88.3189283 118.674391,92.2020969 C117.644674,96.1504506 116.137541,99.9125612 114.031301,103.413931 C110.380484,109.485457 105.503367,114.262592 99.0442292,117.36354 C98.0800391,117.819835 97.0690436,118.183009 95.908271,118.657929 C96.039326,118.387877 96.0580481,118.294755 96.1142146,118.22957 C99.4935605,114.560581 101.749578,110.27699 102.966517,105.462606 C103.097572,104.913188 103.116294,104.261338 102.975878,103.721233 C102.601435,102.305785 101.24408,101.784304 99.7463094,102.380282 C98.5480925,102.864514 97.6775131,103.730545 96.9473497,104.74557 C91.7706785,112.018363 84.8622095,117.084175 76.671274,120.529672 C72.9268463,122.112739 69.0794469,123.304694 65.1103536,124.170725 C60.5702351,125.167125 55.9739502,125.772416 51.3121378,125.912098 C47.8859865,126.014532 44.4504741,126.13559 41.0430449,125.586172 C38.1691967,125.120565 35.2953485,124.599084 32.4683056,123.937921 C26.8797473,122.634219 21.5813822,120.576233 16.7042652,117.540471 C10.5446817,113.713175 5.77053649,108.647363 2.80307757,102.007796 C1.32402865,98.7112932 0.434727088,95.2471716 0.125811807,91.6247433 C-0.126937059,88.6541659 -0.0333263681,85.7394614 0.724920231,82.8526934 C1.83888746,78.5970386 3.87023945,74.8163036 6.88450371,71.6129223 C10.5353207,67.7390659 14.9911896,65.0478531 19.9151119,63.1016127 C24.2399259,61.3974884 28.7426001,60.4383364 33.3669682,60.0658502 C33.7507721,60.0379137 34.1252148,59.9727287 34.4996576,59.9261679 C34.6026294,60.0379137 34.7056011,60.1589718 34.7992118,60.2707176 C34.5839072,60.3359027 34.3124362,60.354527 34.1626591,60.4942093 C33.6478003,60.9598171 33.0954972,61.4068005 32.7116934,61.974842 C31.7381422,63.3902895 32.4683056,65.1782233 34.1532981,65.5972702 C36.0629562,66.0815023 38.0006975,65.9325078 39.9197166,65.643831 C42.1570122,65.3085934 44.3943077,64.9081708 46.6316032,64.5449967 C46.874991,64.5077481 47.1371009,64.563621 47.4085719,64.740552 C47.0622124,64.9454194 46.7064917,65.1316625 46.3882154,65.3737785 C45.2180818,66.2398089 45.1338321,67.7297537 46.3039658,68.5771598 C47.015407,69.0800162 47.8953475,69.489751 48.7565659,69.6480577 C50.1607262,69.8994858 51.611692,69.9646709 53.0439355,70.0205438 C56.3951983,70.150914 59.7651832,70.0671046 63.0134741,71.0635052 C63.7155543,71.2683726 64.352107,71.6687953 65.026104,71.9760964 C64.9886597,72.0785301 64.9512155,72.1809638 64.9137712,72.2833975 C64.3989124,72.2182124 63.8840536,72.134403 63.3598337,72.0878422 C62.0118398,71.9388478 60.6544847,71.9760964 59.465629,72.7117566 C58.9601312,73.0097456 58.4920778,73.4939776 58.2112457,74.0061462 C57.2564166,75.7288948 56.4700868,77.544765 56.6198639,79.5561905 C56.7041136,80.6457126 57.1440838,81.6979862 57.303222,82.7781961 C57.6402205,85.0876106 58.0989129,87.4063371 58.1269961,89.7250637 C58.1550793,92.1555362 57.705748,94.5860086 56.1050051,96.6160584 C55.8990616,96.8674866 55.683757,97.1096026 55.4216471,97.4075915 C55.3186753,97.2399728 55.2344257,97.1654755 55.2250646,97.0816661 C54.1204585,88.4399863 49.1684529,82.6943867 41.5017373,79.0067734 C38.609167,77.6099501 35.5480974,76.7532319 32.3934171,76.1200053 C28.7051558,75.3750329 24.9794503,75.0304832 21.2443837,75.0584197 C16.6387377,75.0863561 12.3700902,76.4273065 8.85968929,79.528254 C7.28702968,80.9157651 6.3415617,82.7502597 5.91095252,84.8268702 C5.01228989,89.0918372 6.40708919,92.7887627 8.75671753,96.2249479 C11.396539,100.08018 14.9724674,102.920387 19.0070882,105.22049 C23.0229869,107.51128 27.4226894,108.805669 31.9253636,109.80207 C36.4935653,110.807783 41.1272945,111.105771 45.7797459,110.789158 C49.8986163,110.500481 53.9519592,109.71826 57.8929693,108.405247 C61.637397,107.157418 65.1477979,105.453293 68.3680057,103.19044 C73.5727601,99.5493872 77.2984656,94.8281246 78.833681,88.6076051 C79.6200108,85.4228481 79.7417047,82.1822182 79.3017344,78.8950275 C78.1316008,70.3185328 73.7318983,63.5951569 67.2446774,58.1196098 C63.5938604,55.0465987 59.3252129,53.0537975 54.7195669,51.7500958 C50.5164469,50.55814 46.2290772,50.073908 41.8855411,49.9621621 C41.4736541,49.9528499 41.0617671,49.8690405 40.64988,49.8783527 C40.2754373,49.8876649 39.9009945,49.9714742 39.5265517,50.0273472 C39.5265517,51.461419 39.1989143,51.7407837 37.7011433,51.7873445 C36.3625104,51.8245931 35.1736546,51.4148583 34.0035209,50.8281925 C33.6571614,50.6512616 33.1610247,50.5674522 32.786582,50.6605737 C30.1561215,51.3124246 27.5443833,52.001524 24.932645,52.71856 C21.0384402,53.7894578 17.0599858,54.3481871 13.0534483,54.7113611 C11.4059001,54.8603556 9.767713,55.1117838 8.12016483,55.1769689 C6.75344874,55.2421539 5.35864944,55.1583446 4.46934788,53.8173942 C4.36637612,53.6683998 4.07618298,53.6311511 3.86087839,53.5939025 C3.05582644,53.4542202 2.54096764,53.081734 2.2507745,52.2622644 C1.74527676,50.8468168 1.63294394,49.5151787 2.36310733,48.1183554 C2.67202261,47.5223775 2.60649512,46.7587808 2.81243864,46.0976178 C3.47707455,43.9930708 4.75954102,42.26101 6.25731208,40.6779436 C8.20441446,38.6106452 10.4042657,36.8413358 12.744533,35.2210208 C13.3810857,34.7833495 13.8116949,34.0476893 14.3546369,33.4703357 C14.5886636,33.2282197 14.8694957,33.0233522 15.1690499,32.7719241 C15.4966873,33.9452556 15.8056026,34.0011285 16.6668209,33.1723467 C17.4625118,32.40875 18.2301195,31.6079047 19.0726157,30.8908688 C19.6717241,30.3787002 19.8495844,30.4811339 19.9431951,31.2447306 C19.9993615,31.7662113 20.2427493,31.9058936 20.6546364,31.6172168 C21.0290791,31.3564765 21.3567166,31.0212389 21.7030761,30.72325 C22.4145174,30.0900234 23.1165976,29.4474847 23.8373999,28.8328825 C23.9965381,28.7118245 24.2680091,28.6466394 24.4552304,28.683888 C24.5488411,28.7025123 24.5769243,29.0284378 24.6330908,29.2053687 C24.6986182,29.4381726 24.7547847,29.8479074 24.8483954,29.8665317 C25.1198664,29.8944682 25.4662259,29.8292831 25.6908916,29.6802886 C26.2806389,29.2705538 26.8048588,28.7676974 27.3852451,28.3486505 C28.321352,27.659551 28.4804902,27.7247361 28.6021841,28.8701311 C29.3978749,28.9260041 30.0344276,28.8142582 30.6148139,28.1065344 C33.5635507,24.5120426 37.0552295,21.588026 41.5298205,20.0328961 C42.8778145,19.5579762 44.3287802,19.3531088 45.7329406,19.0364955 C46.1916329,18.9340618 46.3133268,19.1482414 46.2946047,19.5859127 C46.2477994,21.3179735 45.4895528,22.7706696 44.4504741,24.0743713 C43.4488397,25.3315123 42.3067893,26.4769073 41.2302663,27.6688631 C41.6983198,27.6688631 42.2319007,27.6781753 42.7561206,27.659551 C45.7235795,27.5571173 48.6910384,27.4733079 51.6584973,27.3336256 C53.3996562,27.2498162 55.1033707,26.9332029 56.4326426,25.6574377 C57.705748,24.4375454 58.0708297,22.5844265 57.3406663,20.9827359 C56.1050051,18.3101474 53.8583486,16.6712082 51.1717217,15.8331142 C48.0544857,14.8739623 44.8342779,14.1848628 41.6327923,13.5609484 C39.7699395,13.1977744 37.8321982,13.113965 35.9319012,13.0674042 C32.9925255,12.992907 30.0531498,13.113965 27.1231351,13.0301556 C24.9607282,12.9649705 22.8076823,12.7414788 20.6546364,12.5272992 C19.7278905,12.4248655 18.6700897,12.2293102 18.3330912,11.251534 C18.0054538,10.2737577 18.6420065,9.42635161 19.2691982,8.69069137 C20.6359142,7.08900071 22.4519617,6.17640953 24.4177862,5.5618073 C27.8813817,4.47228517 31.3262552,3.30826581 34.8366561,2.39567462 C38.9555265,1.33408896 43.1586465,0.644989491 47.4085719,0.281815448 C53.7928211,-0.258289539 60.1583481,-0.00686135545 66.4770697,0.905729829 C70.7550783,1.52964421 75.0330869,2.31186523 79.2549291,3.25239288 C85.1711248,4.58403103 90.8720158,6.62339297 96.3763245,9.20285989 C100.832193,11.2887826 105.054036,13.7565037 108.94824,16.7363932 C114.003218,20.6009375 118.328032,25.1638935 121.716739,30.5649433 C124.422088,34.8857832 126.45344,39.4952999 127.623573,44.5238636 Z M14.1299712,43.0991039 C13.147059,43.2015376 12.3232849,43.2480984 11.5088719,43.3877807 C10.2170443,43.6019603 8.91585571,43.9371978 8.28866408,45.2129631 C7.9797488,45.8368775 8.01719307,46.6190985 7.89549918,47.3268222 C8.58821829,47.4013195 9.33710382,47.671372 9.98301759,47.5223775 C12.0424528,47.0567697 13.3998078,45.6133857 14.5231361,43.9371978 C14.64483,43.7602669 14.6729132,43.4250293 14.5886636,43.2387862 C14.5324972,43.1084161 14.1954987,43.1177282 14.1299712,43.0991039 Z" id="Stroke-3" stroke="#EACB8C" stroke-width="0.24"></path>
        </g>
    </g>
</svg>