<?xml version="1.0" encoding="UTF-8"?>
<svg width="159px" height="159px" viewBox="0 0 159 159" version="1.1" xmlns="http://www.w3.org/2000/svg" xmlns:xlink="http://www.w3.org/1999/xlink">
    <title>creature/dwarves</title>
    <defs>
        <polygon id="path-1" points="0 0 102 0 102 132 0 132"></polygon>
    </defs>
    <g id="creature/dwarves" stroke="none" stroke-width="1" fill="none" fill-rule="evenodd">
        <g id="Group-3" transform="translate(22.000000, 13.000000)">
            <mask id="mask-2" fill="white">
                <use xlink:href="#path-1"></use>
            </mask>
            <g id="Clip-2"></g>
            <path d="M98.7948079,56.9453226 C99.7234846,58.9190306 99.0679481,60.7485407 97.5565724,62.4969395 C96.9920827,63.1458298 96.7553612,64.065091 96.3092322,64.8311421 C96.09072,65.2186738 95.7538471,65.5431189 95.4533929,65.8855888 C94.9981593,66.4173183 94.5247163,66.9310231 93.9055985,67.6249752 C95.3441368,67.5799134 95.3441368,67.7601607 94.2060527,69.914116 C95.2257761,70.0402891 96.2363948,70.112388 97.2288042,70.3016477 C98.6400285,70.5630063 98.8676453,71.6354777 98.6309238,72.7710357 C98.4215164,73.789433 97.7568752,74.4202985 96.5550584,74.3211625 C95.5808583,74.2490636 94.588449,74.3031378 93.5505162,74.3031378 C94.2515761,77.7819107 94.9617406,81.0894487 95.5717537,84.4150114 C96.008778,86.7852634 96.2637088,89.1915649 96.6825238,91.5618169 C97.1195481,94.031205 97.6931425,96.4735559 98.1483762,98.9339316 C98.4124117,100.384922 98.5489818,101.844925 98.7765986,103.295916 C98.8130173,103.557275 98.9769014,103.809621 99.1316809,104.025918 C99.6324379,104.755919 100.151404,105.476909 100.661266,106.188885 C99.6324379,107.91926 101.143814,109.162966 101.517105,110.731117 C101.152918,110.677043 100.834255,110.631981 100.561115,110.595932 C100.488277,111.298896 100.41544,111.974824 100.333498,112.849023 C99.5322865,112.398405 99.0133201,112.100997 98.3668883,111.73149 C98.5762958,112.578652 98.7583893,113.344703 98.9495874,114.119767 C97.984492,113.984581 97.1013387,113.858408 96.5004303,113.768285 C96.536849,115.850141 96.564163,117.661626 96.6187911,119.464099 C96.6643144,120.996201 96.8008845,122.528303 96.7917799,124.051393 C96.7917799,125.385223 96.7917799,126.755103 96.482221,128.034858 C96.3001275,128.836959 96.5004303,129.648072 95.7265331,130.540296 C94.5975536,131.829064 93.3320041,131.973262 92.0027218,131.991287 C89.1529591,132.036349 86.2940918,131.901163 83.4443291,131.711903 C82.7250599,131.666842 82.0240001,131.135112 81.3502543,130.846716 C81.7417552,128.467452 82.1150468,126.28646 83.7174693,124.465962 C84.2364356,123.880158 84.3730057,123.005959 83.9906095,121.933487 C83.6264225,120.906078 84.3274824,119.527186 84.4276338,118.292492 C84.4731571,117.607552 84.336587,116.87755 84.1362842,116.219648 C83.9541908,115.642856 83.5717945,115.129152 83.3168637,114.651496 C83.2713403,114.840756 83.1985029,115.192238 83.0619328,115.823104 C82.8252113,115.300387 82.6795365,115.002979 82.4610244,114.516311 C82.0331047,115.183226 81.6507085,115.796067 81.2501029,116.426932 C80.1302281,116.291747 82.3062449,114.24594 80.3123215,114.660509 C80.0847047,113.804334 81.6507085,113.002233 80.2303795,112.091985 C80.1575421,112.443467 80.102914,112.740875 80.0391813,113.056308 C79.9572393,113.038283 79.8479832,113.038283 79.8388785,113.002233 C79.629471,112.218158 79.3381215,111.434082 79.2561794,110.631981 C79.156028,109.640621 79.1651327,108.631236 79.2470748,107.639876 C79.3654355,106.288021 78.9739346,105.702218 77.5171869,106.134811 C76.5611962,106.423207 75.732671,106.179873 75.3229607,105.152463 C73.1833625,107.036048 70.3973325,106.333083 68.1120596,107.378518 L68.1120596,111.956799 C67.9026521,111.695441 67.6204072,111.343958 67.2380109,110.857291 C67.3836857,111.857663 67.5111511,112.695813 67.6477212,113.687173 C66.1636595,112.858036 65.3078202,113.497914 64.6067604,114.732608 C64.3700389,115.156189 63.8237585,115.399523 63.505095,115.660881 L63.505095,122.140772 C63.505095,122.420155 63.4959903,122.708551 63.5141996,122.987934 C63.5415137,123.663861 63.8328632,124.781395 63.5688277,124.934605 C62.7129884,125.421273 61.6568463,125.60152 60.664437,125.799792 C57.7418369,126.358559 54.8192368,126.917325 51.8784274,127.394981 C48.6553731,127.917698 45.4141095,128.548563 42.1910552,127.27782 C41.3079019,126.926338 40.1333991,126.908313 39.5598047,126.304484 C38.631128,125.349174 40.2608645,124.718308 40.3428066,123.799047 C40.3519112,123.663861 40.3610159,123.519664 40.4065393,123.384478 C41.5173094,120.446447 40.7069935,121.032251 44.1849786,120.41941 C46.3609955,120.040891 48.5005937,119.139654 49.6750965,117.391255 C50.6219825,115.985326 51.9876835,114.381125 51.3958797,112.281244 C49.7388292,112.07396 50.0483881,114.128779 48.7373152,114.55236 C48.8101526,113.588037 48.8829899,112.72285 48.964932,111.758527 C48.5096983,112.03791 48.2001395,112.236182 47.8905806,112.425442 C47.9452086,112.082972 48.018046,111.749515 48.04536,111.398032 C48.1181974,110.595932 48.4732797,109.856918 47.7540105,108.991731 C47.3989282,108.577162 47.8450572,107.441604 48.04536,106.657528 C48.546117,104.755919 47.6720684,103.07962 45.8329245,102.259494 C45.5233656,102.124309 45.232016,101.277146 45.3776908,100.952701 C46.3701002,98.7266472 46.9527992,96.4645435 46.5612983,94.031205 C46.543089,93.9050318 46.5248796,93.7247845 46.597717,93.6346609 C48.4823843,91.0481121 48.546117,87.8577349 49.411061,84.9467409 C49.5840498,84.3879743 49.1834442,83.6850098 49.1288161,83.0451319 C49.0923974,82.6305631 49.2380722,82.206982 49.2744909,81.7834008 C49.3291189,81.2336465 49.3655376,80.6838923 49.3564329,80.1071009 C49.5112124,78.8453698 49.6659918,77.592651 49.8298759,76.3309199 C49.8480853,76.1957344 49.9209227,76.0785737 49.9755507,75.9524006 C50.5946685,74.4743727 51.3776704,73.0864685 51.2228909,71.3560944 C51.1500535,70.5630063 51.7054386,69.7068316 52.0149975,68.7695456 L50.7858666,68.7695456 C50.2031675,69.4184359 49.7570386,69.7609058 49.5203171,70.211524 C48.3276049,72.5277018 45.9603899,72.0770836 44.0848272,72.2122691 C42.4733001,72.3294298 40.552214,72.3114051 39.2593505,70.6170804 C38.603814,69.7518934 37.4202065,69.274238 37.3018457,68.0034946 C37.2745317,67.6880618 37.2927411,67.372629 37.2927411,66.9310231 C35.371655,66.6696645 33.3413129,66.3271947 31.3018662,66.1199103 C28.5431502,65.8315146 27.8056717,66.7688006 26.1941445,68.9227558 C24.983223,70.5539939 24.5461987,72.653875 24.3641053,74.6365953 C24.2912679,75.4026463 24.7556062,79.6745074 26.0029464,79.6114208 C21.8239015,79.8187052 17.5811238,79.7466063 13.5204396,78.7462338 C9.45975536,77.7458612 5.56295527,75.7541285 2.83155334,72.6088131 C1.81182995,71.4372057 0.400605617,69.8059676 0,68.3189273 C2.63125053,67.3365796 5.21697769,67.0211468 7.15627307,64.7229937 C9.22303386,62.262618 11.308004,59.8202671 13.3838695,57.3689038 C15.2776415,55.1158125 17.1714135,52.8537088 19.1289182,50.5285187 C19.3474304,50.9340751 19.6751986,51.2855573 19.720722,51.6640767 C20.0029668,53.9171679 21.4232958,55.2419856 23.2624398,56.4226054 C25.9756324,58.1619919 28.4976268,60.189774 31.2108194,61.9201481 C32.0939727,62.4699024 33.3413129,62.4789148 34.424769,62.6952115 C34.8344793,62.7763228 35.3079223,62.6681744 35.6903186,62.8123723 C36.5097392,63.1458298 37.0287056,63.0466938 37.5112532,62.2175562 C38.4854532,60.559281 40.1607131,60.0365638 41.9725431,59.8833536 C42.837487,59.8112547 43.0013711,59.5408837 42.6827076,58.7297709 C42.5279281,58.3242145 42.5097188,57.6572994 42.7464403,57.3238419 C43.9300478,55.6655668 44.2122926,53.845069 44.0939319,51.8893858 C44.0757225,51.5198788 44.4581188,51.1503718 44.5036422,50.7628401 C44.5764796,50.1319746 44.5127468,49.4920967 44.5309562,48.8612311 C44.5491655,48.3835758 44.4763282,47.8518462 44.6675263,47.4372774 C45.6690403,45.1841862 46.6432404,42.9220825 47.8268479,40.7591149 C48.5370124,39.452322 49.4474797,38.2897269 48.6917918,36.7035506 C48.6644778,36.640464 48.7100012,36.5233033 48.7464198,36.442192 C49.7479339,34.3152739 50.8495993,32.2244052 51.7145433,30.0524252 C52.4338125,28.2409398 53.61742,26.8440232 54.9011789,25.4290819 C55.7479135,24.4917959 56.3124032,23.2931513 56.9133116,22.1756181 C58.1424425,19.9045021 58.6158855,17.4261017 58.9618631,14.9026394 C59.1257472,13.6769578 59.5354575,12.4873256 59.799493,11.2706563 C60.0180052,10.225222 60.218308,9.17978761 60.3639827,8.12534089 C60.8283211,4.91693892 64.1606314,1.42915363 67.292639,0.419768739 C71.0710783,-0.796900548 74.1211438,0.852362264 77.1347906,2.5466869 C78.1636187,3.12347827 79.3381215,4.24101154 79.5384243,5.27743352 C79.993658,7.60262372 81.2683122,9.56731931 81.860116,11.8294229 C82.442815,14.02844 83.4989571,16.1193087 84.4913665,18.1921527 C85.2652637,19.8053661 87.3411292,20.6164789 88.9708657,19.9135144 C89.990589,19.4628962 90.6734395,19.7603042 91.4109181,20.3010461 C92.6127349,21.2022826 93.7326097,22.2026552 94.9981593,22.9957433 C97.010292,24.2574744 96.8555126,26.420442 97.4928397,28.2679769 C98.0755388,29.9623015 97.6294098,31.9450218 98.9586921,33.4320621 C99.0224248,33.4951486 99.1316809,33.5582352 99.1407855,33.6393465 C99.3137743,35.0182383 99.4685538,36.4061426 99.6233332,37.7850344 C99.6870659,38.343801 99.6415425,38.9476295 99.8418454,39.4613343 C101.189337,42.958132 101.963234,46.5 102,50.3032095 C102.008758,51.7992621 101.844873,52.5653132 100.779627,53.475562 C100.12409,54.043341 99.8054267,55.0166765 99.350193,55.8097646 C99.1772042,56.1251974 99.0315294,56.4676672 98.7948079,56.9453226" id="Fill-1" fill="#1D1D1B" mask="url(#mask-2)"></path>
        </g>
    </g>
</svg>