<?xml version="1.0" encoding="UTF-8"?>
<svg width="159px" height="159px" viewBox="0 0 159 159" version="1.1" xmlns="http://www.w3.org/2000/svg" xmlns:xlink="http://www.w3.org/1999/xlink">
    <title>creature/elf</title>
    <g id="creature/elf" stroke="none" stroke-width="1" fill="none" fill-rule="evenodd" stroke-linejoin="round">
        <path d="M38.5498634,88.5623317 C39.0142559,88.2957096 39.435649,87.9719541 39.9344409,87.7624653 C43.812978,86.1151213 47.7173146,84.496344 51.5958516,82.8394778 C53.6770178,81.9539114 55.7065849,80.982645 57.7963509,80.0970786 C60.8321016,78.8020567 63.9022518,77.554646 66.9638021,76.2786686 C67.8495877,75.907302 68.8729711,75.6406799 69.5695598,75.1074356 C70.2231492,74.6027579 70.5155444,73.8124137 70.971337,73.1363361 C70.8681387,73.088725 70.7735402,73.0506361 70.6703419,73.0030251 C70.3091478,73.2029917 69.9393538,73.4029583 69.5781596,73.6124471 C69.5093608,73.5553138 69.4491617,73.4981805 69.3803628,73.4410471 C69.8189557,72.8411473 70.291948,72.2602919 70.6789418,71.6508699 C71.0487358,71.0414478 71.3669306,70.4129813 71.6163265,69.7654704 C71.6937253,69.5940705 71.5217281,69.2607928 71.3239313,69.1274817 C69.9823531,68.2323931 70.4553454,67.1182934 70.7821401,66.0803715 C70.911138,65.6613938 71.5045284,65.3376383 71.7969236,64.9281829 C71.9345214,64.7282163 71.9775207,64.4235053 71.9001219,64.194972 C71.031536,61.633495 72.0979187,59.1005846 72.1323182,56.558152 C72.1495179,55.3678745 72.2441164,54.2537748 73.0353035,53.1491974 C73.4050975,52.6445197 73.0955025,51.8256089 73.129902,51.1495313 C73.1815011,50.1211316 73.2932993,49.0927319 73.3276988,48.0738544 C73.3362986,47.71201 73.2245004,47.3406435 73.1041024,46.9883214 C72.7257085,45.8646995 72.2699159,44.7505998 71.9259215,43.6174557 C71.5045284,42.2176894 72.7687078,41.0845453 73.0267036,39.7800012 C73.1729013,39.0563125 73.5082958,38.342146 73.559895,37.6184574 C73.680293,35.9901578 73.7318922,34.3523361 73.6974928,32.7240365 C73.6888929,32.0098701 73.4050975,31.2957036 73.2674997,30.5815371 C73.2073007,30.2387372 73.1987009,29.8864151 73.1643014,29.534093 C73.0955025,28.8199265 72.9063056,28.2390711 72.2871157,27.5725158 C71.2551324,26.4774605 70.7735402,25.068172 70.0167525,23.8017169 C69.4491617,22.8494949 68.5289767,21.9544063 68.3053803,20.9545732 C68.0215849,19.7071625 67.3679955,18.6787628 66.7488056,17.5551409 C66.2242141,16.6029189 66.6542071,15.2983748 66.7574054,14.1557085 C66.8692036,12.8416422 67.0756003,11.5370981 67.2475975,10.2325541 C67.3507958,10.3849096 67.462594,10.5277429 67.5657923,10.6800984 C67.7979885,10.2325541 67.9957853,9.77548752 68.262381,9.34698764 C68.8815709,8.34715459 70.2747483,8.31858793 71.3153314,7.85199918 C72.940705,7.13783272 74.5058796,6.30939962 76.4666478,6.30939962 C77.7652267,6.31892184 79.0810053,6.22369964 80.3537847,6.38557737 C81.0589732,6.48079957 81.7641618,6.92834389 82.3231527,7.33779933 C83.1745389,7.95674359 83.8797274,8.69947672 84.6795144,9.35650986 C86.1414907,10.575354 86.1758901,12.1655646 86.6058832,13.6795975 C87.0014767,15.0222305 86.9154781,16.4410412 87.7754642,17.7265408 C88.5064523,18.8311183 88.7472484,20.1737512 89.6588336,21.1450176 C90.802615,22.3448173 92.4451884,23.2399059 93.7953664,24.3254389 C94.2855585,24.7158499 94.500555,25.3062275 94.930548,25.7632941 C95.9195319,26.7916938 97.0289139,27.7439157 97.949099,28.8008821 C98.6026884,29.5626597 99.0326814,30.4577483 99.5744726,31.2861814 C99.7636695,31.5623258 99.9958658,31.8194257 100.228062,32.1146145 C100.572056,29.0960709 100.873052,26.1727495 101.242846,23.2589503 C101.509441,21.2211954 101.930834,19.2024848 102.163031,17.1742521 C102.249029,16.4696078 102.584424,16.3362968 103.349811,16.345819 C104.175398,16.3648634 104.63119,16.6219633 104.579591,17.3075632 C104.510792,18.0788629 104.407594,18.8501627 104.347395,19.6309847 C104.338795,19.8499958 104.416194,20.078529 104.734389,20.3070623 C104.846187,19.6024181 105.043984,18.8882516 105.035384,18.1836073 C105.026784,16.7933633 105.121383,16.6695744 106.806955,16.7457522 C107.004752,16.7457522 107.185349,16.7838411 107.649741,16.8314522 C107.529343,14.2033196 107.408945,11.6227981 107.279947,8.81374335 C107.795939,9.17558769 108.148533,9.4231654 108.750524,9.84214306 C108.036735,8.60425452 108.802123,7.64251035 108.95692,6.57602176 C109.068718,6.58554398 109.214916,6.57602176 109.326714,6.62363286 C109.464312,6.68076618 109.57611,6.77598837 109.756707,6.89025501 C109.868505,6.5950662 109.920105,6.31892184 110.074902,6.08086635 C110.410297,5.5666665 110.332898,4.52874457 111.734675,5.24291103 C112.009871,5.38574433 112.543062,5.26195547 112.930056,5.1762555 C114.211435,4.89058891 114.400632,5.46192208 114.357633,6.26178852 C114.349033,6.41414403 114.357633,6.57602176 114.357633,6.80455503 C114.607029,6.53793289 114.804825,6.33796628 115.10582,6.02373303 C115.441215,6.41414403 115.716411,6.72837728 116.094804,7.16639937 C116.309801,6.81407725 116.507598,6.49984401 116.765593,6.09038857 C117.840576,6.99499942 116.516198,7.98531025 117.092388,8.86135445 C117.453582,8.78517669 117.866376,8.6899545 118.545765,8.53759898 C118.038373,10.2325541 117.453582,11.7370647 117.178387,13.2796643 C116.842992,15.1460193 115.785209,16.7743189 114.994022,18.5073628 C114.323233,19.9737846 113.970639,21.6592175 114.142636,23.201817 C114.297434,24.6206277 114.005038,25.9442162 113.979239,27.3154159 C113.970639,28.2485934 113.093453,28.8961043 113.153652,29.5245708 C113.497647,29.8959373 113.850241,30.1149484 113.807242,30.2673039 C113.007454,33.2191919 112.164668,36.1615578 111.330482,39.1039236 C111.296082,39.2277125 111.270283,39.3515013 111.261683,39.4752902 C111.098285,41.4368674 110.883289,43.3889224 110.79729,45.3504996 C110.668292,48.273821 110.074902,51.1400091 109.249316,53.9776305 C108.870922,55.301219 108.673125,56.6438519 108.406529,57.9864849 C108.38073,58.119796 108.509728,58.2626293 108.569927,58.4149848 C109.206316,58.1388404 109.791107,57.8817405 110.504895,57.5675072 C110.453296,57.7960405 110.461896,58.0245738 110.384497,58.0531404 C108.870922,58.4721181 107.959336,59.119629 107.778739,60.5479619 C107.520744,62.6428502 106.875754,64.7091719 106.368362,66.927849 C111.880873,61.9477282 117.126788,56.948563 123.284288,52.5302531 C122.389902,52.8540086 121.504117,53.177764 120.609731,53.5110417 C120.583931,53.4634306 120.558132,53.4253417 120.532332,53.3872529 C121.392318,52.9397085 122.217905,52.4445531 123.12089,52.0636644 C125.864246,50.920998 128.633401,49.8164206 131.385356,48.7023209 C131.488554,48.664232 131.600353,48.5880542 131.703551,48.5880542 C133.58692,48.6832764 135.496089,48.6832764 137.345059,48.9403764 C138.033048,49.0355986 138.678038,49.6735873 139.185429,50.1687427 C139.873418,50.8257758 140.39801,51.5875534 141,52.3017198 C140.879602,52.3683754 140.767804,52.4255087 140.656006,52.4921642 C139.76162,51.9874866 138.944633,51.3590201 137.964249,50.9971758 C135.951882,50.2449204 133.836316,50.5496315 131.73795,50.8638647 C129.527786,51.2066646 127.764815,52.2255421 126.019043,53.2444196 C124.582867,54.0728527 123.15529,54.9298524 121.88251,55.9011188 C120.497933,56.9580852 119.285353,58.1578848 118.029773,59.3100734 C116.292601,60.9193285 114.555429,62.5190614 112.869857,64.1568831 C110.857489,66.0898937 108.888121,68.0609931 106.918753,70.0225703 C106.789755,70.1558814 106.806955,70.3653702 106.720957,70.5367702 C106.402762,71.22237 106.075967,71.8984476 105.749172,72.5840474 C105.680373,72.7268807 105.559975,72.8601918 105.551376,73.0125473 C105.456777,74.7646357 105.396578,76.5262463 105.28478,78.2783347 C105.25898,78.6497012 105.035384,79.0210678 104.803188,79.6971454 C104.570991,79.2781677 104.467793,79.0877233 104.373195,78.9068011 C104.304396,78.9544122 104.235597,78.9925011 104.166798,79.0401122 C104.166798,79.11629 104.158198,79.1924677 104.183998,79.2686455 C104.536592,80.2589563 104.373195,80.4589229 103.117615,80.4494007 C102.22323,80.4398785 101.328844,80.3827452 100.271061,80.3446563 C100.35706,81.0112117 100.503258,81.7063337 100.520457,82.4109779 C100.546257,84.4868218 100.494658,86.5626656 100.537657,88.6480317 C100.572056,90.2382424 100.675255,91.8379752 100.778453,93.4281859 C100.795653,93.694808 100.94185,93.9709524 101.096648,94.2090079 C101.948034,95.5230742 101.750237,96.6943072 100.701054,97.9226735 C100.34846,98.3511734 100.486058,99.160562 100.683855,99.722373 C100.95905,100.522239 101.629839,101.226884 101.277245,102.131495 C101.199846,102.321939 101.337444,102.664739 101.535241,102.817094 C102.558624,103.636005 102.249029,104.692972 102.481225,105.664238 C102.610223,106.207004 103.091815,106.70216 103.44441,107.206838 C103.633607,107.47346 104.183998,107.692471 103.504609,108.006704 C103.43581,108.044793 103.513209,108.387593 103.642207,108.520904 C104.889186,109.882581 105.000984,111.596581 105.964169,113.043958 C106.222165,113.443891 106.273764,113.920002 106.411362,114.358024 C106.591959,114.891269 106.746756,115.348335 107.331547,115.805402 C107.856138,116.214857 107.821739,117.12899 107.899137,117.824112 C108.062535,119.480978 108.165733,121.147367 108.260332,122.804233 C108.286131,123.194644 108.165733,123.585055 108.165733,123.965944 C108.139934,125.594243 108.174333,127.232065 108.105534,128.860365 C108.096934,129.298387 107.72714,129.736409 107.692741,130.183953 C107.623942,130.955253 107.675541,131.726553 107.684141,132.497853 C107.684141,132.91683 107.830339,133.373897 107.658341,133.735741 C107.030552,134.954585 107.193949,136.116296 107.606742,137.363707 C107.838938,138.068351 107.580943,138.915828 107.400346,139.668084 C107.09935,140.886928 107.73574,141.981983 108.157133,143.067516 C108.569927,144.105438 109.146117,145.010049 108.741924,146.200326 C108.475328,146.971626 108.905321,147.885759 109.017119,148.733237 C109.085918,149.295048 109.447112,149.885425 108.526927,150.304403 C108.268931,150.428192 108.200133,150.913825 108.174333,151.237581 C108.122734,151.83748 107.873338,152.09458 107.039151,152.123147 C103.547608,152.275502 100.056065,152.504036 96.5645215,152.675436 C94.7585508,152.761136 92.9439803,152.808747 91.1294097,152.86588 C89.0654432,152.923013 86.9928769,153 84.9203105,153 C83.3121366,153.008713 81.7039628,152.932536 80.0957889,152.856358 C79.0638056,152.808747 79.2960019,152.066014 79.0724055,151.58038 C79.0208063,151.466114 79.0294062,151.342325 78.9864069,151.075703 C76.3978489,151.170925 73.8436904,151.285192 71.280932,151.342325 C67.0068014,151.428025 62.7326708,151.485158 58.4499403,151.532769 C58.1661449,151.532769 57.8737497,151.370892 57.3061589,151.209014 C57.8221505,151.028092 58.0285472,150.951914 58.0457469,150.951914 C57.7361519,150.542459 57.2459599,150.190136 57.1943607,149.790203 C57.0309634,148.53327 57.6501533,147.495348 59.2153279,147.057326 C60.2989103,146.743093 61.4684913,146.505037 62.6122727,146.466949 C64.1860472,146.409815 65.2696296,145.65756 66.3962113,145.010049 C68.141983,143.991171 69.7329571,142.810416 71.4185298,141.724883 C71.9259215,141.41065 72.0549194,141.134506 71.9861205,140.582217 C71.8657225,139.601428 72.1065186,138.601595 72.1151184,137.611284 C72.1151184,136.868551 71.9947204,136.125818 71.9173217,135.383085 C71.6765256,133.050141 71.590527,130.707675 71.1433342,128.403298 C70.8251394,126.774999 69.9651534,125.213355 69.4749613,123.585055 C69.2771645,122.9185 69.4147623,122.175767 69.4233621,121.471122 C69.431962,120.4332 69.8447553,119.27149 69.3803628,118.404968 C68.8815709,117.481312 68.7353733,116.519568 68.382779,115.595913 C68.1161834,114.872224 67.032601,114.310413 67.6087916,113.405802 C67.6345912,113.358191 67.5915919,113.234402 67.5571924,113.234402 C66.043617,112.96778 66.2758133,111.63467 65.3384285,110.977636 C64.3150451,110.244426 64.1172483,109.120804 64.074249,108.073359 C63.9882504,106.083216 64.3064452,104.140683 65.3900276,102.312417 C65.5448251,102.045795 65.4674264,101.693472 65.493226,101.388761 C65.3900276,101.417328 65.2868293,101.455417 65.183631,101.483984 C64.9686345,101.198317 64.5386415,100.903128 64.5730409,100.636506 C64.7364382,99.0462954 63.9022518,97.4465625 65.1664313,95.8468297 C66.0178174,94.7708188 66.1898147,93.3520081 66.5854082,92.0665085 C66.6370074,91.8951086 66.1726149,91.438042 65.9748181,91.4475642 C63.9796505,91.5523087 61.9930828,91.6951419 60.006515,91.8855863 C58.1575451,92.0760307 56.3171749,92.3426529 54.468205,92.5521417 C52.0344445,92.8187638 49.5920841,93.0472971 47.1583237,93.3139193 C45.0341581,93.5424525 42.9013928,93.7709858 40.7858271,94.0756968 C37.8102754,94.5041967 34.8519235,94.9993521 31.8849716,95.4754631 C30.4401951,95.7135186 28.9610191,95.8849185 27.5764416,96.2658073 C24.841686,97.0085404 22.13273,97.8084069 19.483973,98.7225399 C17.9703976,99.246262 16.3966231,99.8556841 15.2012425,100.722206 C13.1888752,102.188628 11.167908,103.778839 11.1507083,106.18796 C11.1507083,106.902127 11.537702,107.606771 11.7612984,108.397115 C10.5229185,108.435204 10.247723,107.511549 9.76613077,106.968782 C8.59654976,105.654716 8.81154627,104.197816 10.1015253,102.855183 C10.2563228,102.693305 10.368121,102.474294 10.4541196,102.274328 C11.228107,100.379406 13.1200763,99.331962 15.1582432,98.4273511 C17.8585994,97.2180293 20.6019548,96.0753629 23.3195107,94.8946077 C26.4154604,93.5519748 29.4942105,92.1712529 32.6159598,90.8571866 C34.387531,90.1144535 36.2279011,89.4669426 38.0338718,88.7813428 C37.3286833,89.1241427 36.6406944,89.4955092 35.9097063,89.8097425 C32.1601672,91.4285198 28.3934283,93.0377749 24.6352893,94.64703 C24.3944933,94.7517744 24.1880966,94.8946077 23.7495037,95.1517076 C24.2482956,95.1517076 24.4546923,95.1897965 24.6266895,95.1517076 C26.4068606,94.73273 28.1612321,94.2185301 29.9672028,93.8947747 C35.0325205,92.9615971 40.115038,92.0760307 45.2061554,91.2380754 C48.6976987,90.6667422 52.2322413,90.2191979 55.7495842,89.6954758 C59.4475241,89.1527093 63.1540639,88.5908984 66.843404,87.9909986 C67.2991966,87.924343 67.9785856,87.6101098 68.0473845,87.3339654 C68.4601778,85.5723548 68.7353733,83.801222 69.0535682,82.0300891 C69.2771645,80.8398117 69.5093608,79.6495343 69.7243573,78.4497346 C69.9049543,77.4403793 70.0597518,76.4215019 70.2403489,75.2788355 C67.7119899,76.3643685 65.3728279,77.383246 63.0164662,78.3830791 C60.0667141,79.640012 57.1083621,80.8683784 54.15861,82.1253113 C50.5466686,83.6583887 46.9605269,85.2295549 43.3313858,86.7435878 C41.7748111,87.4006209 40.1494375,87.9624319 38.5498634,88.5623317 M83.8905689,101 C83.7558202,101.151034 83.6968676,101.188793 83.6716022,101.226552 C82.9136408,103.001205 81.8946037,104.615385 80.3028845,106.06909 C79.4270179,106.8809 79.0733026,108.296847 79.1069898,109.439044 C79.1238333,110.250854 78.4921988,111.506327 80.1176051,112.034947 C80.243932,112.072705 80.3197281,112.289817 80.3618371,112.431412 C80.5808038,113.205463 80.732396,113.988954 81.0018935,114.744125 C81.2882345,115.537056 81.8103857,116.292227 82.004087,117.094597 C82.3999113,118.774854 82.7536267,120.473991 82.9473279,122.173127 C83.1999818,124.419763 83.2757779,126.675839 83.4189484,128.922474 C83.4273702,129.073509 83.3010433,129.215103 83.2926215,129.366138 C83.2589343,129.885318 83.1662946,130.423378 83.2336689,130.942559 C83.4105266,132.24523 83.7473984,133.538462 83.8400381,134.841133 C83.8653035,135.218719 83.8484599,135.643503 83.8316163,136.030528 C83.7389766,137.757984 84.1432227,139.428801 84.6401086,141.090179 C84.7411701,141.430006 84.7832791,141.883109 85.0696201,142.062462 C86.1644533,142.751557 86.2739367,143.827676 86.3665764,144.705563 C86.4760597,145.772243 86.0212828,146.867242 86.9897892,148 C89.533171,146.546294 92.0933965,145.083149 94.3841245,143.771038 C94.3841245,143.261297 94.2999066,142.817634 94.4093899,142.40229 C94.5609822,141.798152 94.939963,141.222334 95.0831335,140.618196 C95.2936783,139.72143 95.3610527,138.796345 95.512645,137.880699 C95.6726591,136.908415 96.085327,135.926692 95.9842654,134.973288 C95.8158296,133.396867 95.2852565,131.848765 94.9989155,130.281783 C94.7967925,129.158466 94.7209963,128.025708 94.6283566,126.89295 C94.5862476,126.298253 94.7294181,125.684676 94.6367784,125.089978 C94.3588592,123.183169 93.7693336,121.30468 94.7294181,119.378992 C94.9652283,118.907009 94.6788873,118.189596 94.4178117,117.660976 C93.9798784,116.811408 93.3061349,116.046797 92.8597798,115.206668 C92.6745003,114.866841 92.8345144,114.413738 92.8429362,114.007833 C92.3713157,114.007833 91.8323209,114.130548 91.4449183,113.979514 C89.5415928,113.28098 88.8425839,111.798956 88.1267314,110.383009 C87.5035186,109.155855 87.899343,107.654951 86.4760597,106.59771 C86.0802354,106.295642 85.9791739,105.729263 85.768629,105.26672 C85.153838,103.879092 84.5474688,102.482025 83.8905689,101 M100.338448,72 C100.518448,71.559719 100.842448,71.0538642 100.923448,70.5199063 C101.229448,68.3840749 101.454448,66.2295082 101.715448,64.0843091 C101.769448,63.6721311 101.832448,63.2505855 101.850448,62.8384075 C101.859448,62.6416862 101.724448,62.4355972 101.769448,62.2388759 C101.913448,61.470726 102.111448,60.7025761 102.264448,60 C101.454448,60.1311475 100.968448,60.234192 100.482448,60.2716628 C99.8344477,60.3185012 99.2314477,60.2997658 99.1684477,61.0023419 C99.0874477,61.882904 98.8894477,62.7540984 98.6824477,63.6159251 C98.5114477,64.3559719 98.6554477,65.2177986 97.5574477,65.8266979 C97.4584477,65.3208431 97.4044477,64.9742389 97.3054477,64.4683841 C97.0084477,64.7400468 96.7024477,64.9180328 96.7384477,64.9929742 C97.9264477,67.3442623 99.1414477,69.6861827 100.338448,72 M104.900372,30.9811321 C105.008372,30.990566 105.125372,30.990566 105.233372,31 C106.025372,28.8867925 107.627372,26.9716981 107.546372,24.6132075 C107.465372,22.4339623 108.455372,20.245283 107.960372,18.0377358 C107.825372,18.0283019 107.690372,18.009434 107.555372,18 C106.673372,22.3301887 105.791372,26.6509434 104.900372,30.9811321 M65.7061931,100.635 C66.2461931,98.915 66.7861931,97.205 67.3351931,95.485 C67.1101931,95.445 66.8851931,95.405 66.6601931,95.365 C65.8141931,97.045 65.5531931,98.825 65.7061931,100.635" id="Fill-1" stroke="#1D1D1B" stroke-width="2" fill="#1D1D1B"></path>
    </g>
</svg>