<?xml version="1.0" encoding="UTF-8"?>
<svg width="159px" height="159px" viewBox="0 0 159 159" version="1.1" xmlns="http://www.w3.org/2000/svg" xmlns:xlink="http://www.w3.org/1999/xlink">
    <title>creature/ent</title>
    <g id="creature/ent" stroke="none" stroke-width="1" fill="none" fill-rule="evenodd" stroke-linejoin="round">
        <path d="M84.1185434,8 L85.3704887,14.5046128 L88.3123839,9.44014498 L89.35767,9.44014498 L88.3123839,14.5046128 L90.5355566,16.566887 L98.8964353,8 L98.8964353,11.8647674 L94.0064427,14.5046128 L91.6922835,20.9226319 L88.3123839,28.8673897 L88.3123839,33.2130461 L94.0064427,32.1634133 L99.3182175,28.0806906 L112.444247,22.7041073 L112.444247,23.950047 L109.973506,26.6226804 L115.558946,26.6226804 L120.353015,28.8673897 L120.353015,31.150772 L113.982553,28.8673897 L105.083337,31.150772 L96.7445,37.7478634 L93.0995759,51.6751499 L95.1060386,54.7008836 L95.1060386,61.7368283 L98.8964353,62.906263 L101.793895,65.4124348 L106.304425,66.8366062 L113.982553,62.906263 L114.831054,58.3527398 L113.11201,52.8143189 L113.982553,48.9814987 L117.372327,43.6026034 L120.353015,38.8954395 L121.626825,40.4633732 L121.626825,47.581708 L120.353015,50.3846522 L121.626825,52.8143189 L125.43556,45.8725342 L130.872177,40.4633732 L138.685021,37.7478634 L140.641582,38.8954395 L140.641582,40.4633732 L135.749473,41.697543 L129.057914,51.9488027 L129.057914,55.9903304 L136.315846,55.356221 L142.182885,52.2955977 L143,53.5495242 L140.641582,58.9733978 L134.371276,63.6217116 L125.43556,66.8366062 L119.009378,70.5744256 L117.372327,72.4038216 L113.982553,75.87009 L108.301895,79.5507408 L104.354917,79.5507408 L100.819847,85.7409261 L98.8964353,87.1709825 L96.396953,87.1709825 L95.3430266,85.1610429 L95.6764672,80.8420792 L94.0064427,78.4130431 L92.6241893,76.4352608 L90.9180171,85.7409261 L90.5355566,88.712854 L92.058698,91.3243253 L92.058698,92.3346547 L95.1060386,93.7985499 L97.312989,96.8465625 L97.9622373,101.176876 L101.238278,104.866144 L106.01877,110.059451 L106.304425,113.335928 L105.083337,121.223097 L102.896136,126.136236 L102.896136,130.020971 L105.594872,134.373142 L106.01877,138.667515 L111.298452,144.206146 L114.831054,144.206146 L118.33897,146.903581 L122.74088,151.831432 L125.43556,156.760545 L124.836566,157.933973 L111.048416,158.263113 L84.1185434,158.263113 L81.4600111,157.038401 L81.9701347,154.029062 L83.0734336,150.444042 L83.7577716,146.903581 L88.8528363,140.317629 L91.350908,136.455594 L91.350908,130.020971 L88.8528363,127.448803 L88.3123839,124.517649 L85.9564344,121.86078 L84.1185434,118.506747 L77.9452187,110.437353 L75.6881905,110.059451 L73.2047542,114.576403 L69.819212,124.956293 L65.8976256,132.104893 L68.257807,133.324561 L65.5666535,137.730118 L67.7473307,138.667515 L65.8976256,143.796088 L70.3707732,149.399874 L74.3059371,152.617711 L76.8096514,156.275663 L76.3074626,157.933973 L60.6854775,159 L48.9609215,159 L37.2913805,158.714998 L33.2121548,158.263113 L32.768684,156.275663 L36.4656256,146.274936 L43.7064541,137.730118 L45.3844135,134.373142 L46.8264429,125.311915 L48.6705054,123.02475 L51.2061355,116.190787 L52.8676962,107.394805 L55.594821,103.250079 L56.7513716,97.4630169 L56.7513716,91.6852023 L57.2750726,85.7409261 L58.5788591,83.5 L57.5249327,80.8420792 L58.0452835,79.2714132 L58.8930797,78.4130431 L57.5249327,75.2181155 L57.5249327,72.4038216 L54.4945197,71.9937628 L48.6705054,78.4130431 L42.9582845,85.4479369 L38.7245934,91.3243253 L35.6310542,94.8542779 L34.6127465,98.2650591 L35.6310542,104.223207 L36.4656256,111.571477 L36.4656256,117.281404 L34.6127465,122.188238 L33.4725947,121.86078 L33.4725947,114.857202 L31.8977885,108.757394 L29.2217995,105.984295 L28.3905784,106.676624 L26.4096835,114.036664 L26.1358425,121.86078 L26.4096835,129.259283 L24.6319211,130.020971 L21.5568966,119.41577 L20.8288287,112.826665 L20.1563048,111.246331 L21.5568966,107.394805 L22.3704847,103.907308 L21.065993,102.49827 L17.0724637,105.631195 L14.28186,110.805166 L13.3115142,117.281404 L12.7290952,118.506747 L11,117.812526 L11,110.059451 L14.28186,99.7859127 L16.7660016,97.4630169 L18.6894128,92.3346547 L22.3704847,90.6095073 L25.4040716,83.5205975 L31.2885672,74.7149475 L36.4656256,72.4038216 L37.6999379,70.5744256 L43.9568432,63.6217116 L50.4606109,63.6217116 L56.2054529,57.6803779 L56.2054529,54.7008836 L50.4606109,31.150772 L52.5384874,26.6226804 L54.0238941,26.6226804 L56.2054529,31.150772 L60.1869916,25.3582449 L61.8924585,16.566887 L63.0576493,16.566887 L63.0576493,26.6226804 L60.1869916,34.9978843 L63.0576493,37.7478634 L64.6798883,40.4633732 L63.0576493,43.6026034 L64.6798883,47.581708 L66.7859777,47.581708 L68.7305486,41.697543 L67.7473307,37.7478634 L64.6798883,31.150772 L66.7859777,28.8673897 L67.7473307,20.9226319 L71.2725265,16.566887 L71.2725265,11.8647674 L74.9239749,10.620509 L78.181854,9.44014498 L78.181854,18.2197329 L80.2957019,20.9226319 L82.7756116,18.2197329 L82.7756116,8 L84.1185434,8 Z M83.2444625,27 L81,31.0220171 L81.2926417,32.4288891 L82.811976,34.1039698 L82.1222313,36.7980652 L82.811976,39 L84,36.0285778 L84,29.5820082 L83.2444625,27 Z M89,21 L86.6869824,22.5084992 L86,25 L88.3928647,23.386194 L89,21 Z" id="Combined-Shape" stroke="#1D1D1B" fill="#1D1D1B"></path>
    </g>
</svg>