<?xml version="1.0" encoding="UTF-8"?>
<svg width="159px" height="159px" viewBox="0 0 159 159" version="1.1" xmlns="http://www.w3.org/2000/svg" xmlns:xlink="http://www.w3.org/1999/xlink">
    <title>creature/feant</title>
    <g id="creature/feant" stroke="none" stroke-width="1" fill="none" fill-rule="evenodd">
        <path d="M87.1038986,16 L88.4412039,21.8584592 L91.5836828,17.2970842 L92.7002384,17.2970842 L91.5836828,21.8584592 L93.9584355,23.7158717 L102.889374,16 L102.889374,19.4808501 L97.6659729,21.8584592 L95.1940301,27.6389268 L91.5836828,34.7944702 L91.5836828,38.7084389 L97.6659729,37.7630742 L103.339914,34.08592 L117.3609,29.2434343 L117.3609,30.3656053 L114.7217,32.7727452 L120.687965,32.7727452 L125.808902,34.7944702 L125.808902,36.8510264 L119.00409,34.7944702 L109.49811,36.8510264 L100.590716,42.7927776 L96.6972742,55.3365589 L98.8405413,58.061723 L98.8405413,64.3987328 L102.889374,65.4519985 L105.984388,67.7092128 L110.802454,68.9919102 L119.00409,65.4519985 L119.910444,61.350812 L118.074192,56.3625654 L119.00409,52.9104889 L122.624985,48.065921 L125.808902,43.8263561 L127.169563,45.2385348 L127.169563,51.6497503 L125.808902,54.1742563 L127.169563,56.3625654 L131.237984,50.110362 L137.045279,45.2385348 L145.390817,42.7927776 L147.480781,43.8263561 L147.480781,45.2385348 L142.255119,46.350105 L135.107317,55.5830276 L135.107317,59.223079 L142.860109,58.6519606 L149.127173,55.8953727 L150,57.0247371 L147.480781,61.9098152 L140.782953,66.096376 L131.237984,68.9919102 L124.373653,72.358423 L122.624985,74.006091 L119.00409,77.1280281 L112.936115,80.4430513 L108.720025,80.4430513 L104.943927,86.0183176 L102.889374,87.3063154 L100.219472,87.3063154 L99.0936875,85.4960386 L99.4498627,81.6061111 L97.6659729,79.4183699 L96.1894749,77.637056 L94.3669728,86.0183176 L93.9584355,88.6950209 L95.5854274,91.0470745 L95.5854274,91.95704 L98.8405413,93.2755151 L101.197966,96.0207451 L101.891481,99.9208948 L105.390888,103.243679 L110.497322,107.921095 L110.802454,110.872094 L109.49811,117.97577 L107.161782,122.400849 L107.161782,125.899682 L110.044522,129.819519 L110.497322,133.687299 L116.136983,138.675735 L119.910444,138.675735 L123.657536,141.105212 L128.359576,145.543542 L131.237984,149.983008 L130.59815,151.03987 L115.869899,151.336314 L87.1038986,151.336314 L84.2641028,150.233262 L84.8090075,147.522864 L85.9875313,144.293972 L86.7185287,141.105212 L92.1609842,135.173494 L94.829379,131.695104 L94.829379,125.899682 L92.1609842,123.583028 L91.5836828,120.943049 L89.0671004,118.550106 L87.1038986,115.529255 L80.5096654,108.261457 L78.098749,107.921095 L75.4459875,111.989344 L71.8296128,121.338118 L67.6406455,127.776592 L70.1617483,128.875101 L67.2871072,132.84302 L69.6164668,133.687299 L67.6406455,138.30641 L72.4187805,143.353529 L76.622251,146.251713 L79.2966731,149.546292 L78.7602442,151.03987 L62.0731237,152 L49.5491661,152 L37.0839746,151.743309 L32.7266199,151.336314 L32.2529125,149.546292 L36.2019183,140.539015 L43.9364396,132.84302 L45.7288053,129.819519 L47.2691549,121.658414 L49.238949,119.59845 L51.9474629,113.443358 L53.7223118,105.521149 L56.6353769,101.788151 L57.8707833,96.5759622 L57.8707833,91.3721027 L58.4301912,86.0183176 L59.8228722,84 L58.6970872,81.6061111 L59.2529165,80.1914715 L60.158517,79.4183699 L58.6970872,76.5408192 L58.6970872,74.006091 L55.4600552,73.6367665 L49.238949,79.4183699 L43.1372585,85.7544332 L38.6149066,91.0470745 L35.3104442,94.2263695 L34.2227065,97.2983314 L35.3104442,102.66461 L36.2019183,109.28292 L36.2019183,114.425636 L34.2227065,118.845036 L33.004817,118.550106 L33.004817,112.242248 L31.3226377,106.748381 L28.4641949,104.250756 L27.5762996,104.87431 L25.4603437,111.503221 L25.1678317,118.550106 L25.4603437,125.213659 L23.5613703,125.899682 L20.276685,116.347978 L19.4989761,110.41342 L18.7805983,108.990073 L20.276685,105.521149 L21.145745,102.380092 L19.7523107,101.111025 L15.4864954,103.932732 L12.5056232,108.592732 L11.4691175,114.425636 L10.846988,115.529255 L9,114.903997 L9,107.921095 L12.5056232,98.6681068 L15.1591381,96.5759622 L17.213691,91.95704 L21.145745,90.4032649 L24.3861674,84.0185514 L30.6718787,76.0876348 L36.2019183,74.006091 L37.5203882,72.358423 L44.2039006,66.096376 L51.1511071,66.096376 L57.2876429,60.7452411 L57.2876429,58.061723 L51.1511071,36.8510264 L53.370657,32.7727452 L54.9573414,32.7727452 L57.2876429,36.8510264 L61.5406502,31.6339159 L63.3623989,23.7158717 L64.6070345,23.7158717 L64.6070345,32.7727452 L61.5406502,40.3159753 L64.6070345,42.7927776 L66.3398807,45.2385348 L64.6070345,48.065921 L66.3398807,51.6497503 L68.5895671,51.6497503 L70.6667223,46.350105 L69.6164668,42.7927776 L66.3398807,36.8510264 L68.5895671,34.7944702 L69.6164668,27.6389268 L73.382017,23.7158717 L73.382017,19.4808501 L77.2824277,18.3601935 L80.762435,17.2970842 L80.762435,25.2045276 L83.0204089,27.6389268 L85.6694033,25.2045276 L85.6694033,16 L87.1038986,16 Z M85.2444625,33 L83,36.3516809 L83.2926417,37.5240743 L84.811976,38.9199748 L84.1222313,41.1650543 L84.811976,43 L86,40.5238148 L86,35.1516735 L85.2444625,33 Z M92,27 L89.6869824,28.5084992 L89,31 L91.3928647,29.386194 L92,27 Z" id="Combined-Shape" fill="#1D1D1B"></path>
    </g>
</svg>