<?xml version="1.0" encoding="UTF-8"?>
<svg width="159px" height="159px" viewBox="0 0 159 159" version="1.1" xmlns="http://www.w3.org/2000/svg" xmlns:xlink="http://www.w3.org/1999/xlink">
    <title>creature/orcs</title>
    <g id="creature/orcs" stroke="none" stroke-width="1" fill="none" fill-rule="evenodd">
        <polygon id="Path-10" stroke="#1D1D1B" stroke-width="2.85" fill="#1D1D1B" stroke-linejoin="round" points="89.9838258 91.4201465 89.2433536 97.0928066 85.2080044 100.502815 82.596157 101.598121 81.1982353 103.01968 86.2787721 105.032268 89.2787721 109.427825 92.2433536 114.07043 90.3136381 114.07043 94.5056083 119.726494 97.1503541 126.995112 97.1503541 130.196544 99.618146 132.325301 99.669817 135.535119 103.494617 140.279183 104.332921 144.569132 102.668429 146.512697 102.590419 146.333657 101.386823 148.078076 99.669817 146.866601 98.5254509 149 94.111879 147.788525 92.175432 150 89.8552045 148.356545 85.4301759 149.220232 80.6872305 145.948905 80.6872305 142.60758 80.6872305 140.366804 77.7438172 128.307407 75.6924848 122.359295 73.1065415 121.722352 69.9994372 123.660954 64.9920416 123.660954 61.0350287 121.993295 60.4262666 117.659096 57.6775441 119.765454 57.444259 121.955921 53.8424985 124.008112 53.836464 127.190831 52.028966 132.767923 45.5255695 138.111923 39.6276008 138.822397 37.7149386 135.234131 35.2606022 136.978549 33.6979699 133.780772 31.9939863 135.41317 31.9939863 133.780772 30.0768364 133.491246 29.2645608 131.858848 28.1562345 130.726721 28.0144345 127.080226 29.7711591 125.268906 33.4672861 121.95769 32.5189571 121.369825 34.4316192 117.594715 36.2213181 113.560111 40.5456758 111.29331 42.2558663 109.445028 43.6455721 106.80973 44.0626185 105.64955 46.8059558 103.887028 51.2086624 100.770723 56.6280972 99.8487991 56.6280972 97.0928066 53.6917125 92.8970334 53.6917125 90.2644928 53.7831101 87.8917066 51.802159 85.037012 41.5186883 80.3591284 34.7148707 77.2514951 29.7990328 71.6249934 25.7380279 68.2759437 23.948329 66.9305728 23 63.0703654 23.7754763 61.7696176 23.7754763 55.1524031 22.948329 53.0428866 24.6721344 48.3366303 24.3644987 45.5896899 24.9882905 41.5120883 26.5589891 40.566142 27.1657275 38.5196092 29.2318693 38.5196092 29.2318693 35.6923313 31.6309993 35.6923313 34.5954376 34 37.9573354 34.9176959 41.1121848 39.6442179 42.0534093 43.3088167 41.1496603 46.4744175 36.2709946 49.5933925 35.5559507 54.2047822 35.3226656 56.4709723 35.3743366 57.1722736 38.2193236 61.7696176 48.3636753 66.8939289 52.750488 70.1018833 58.1943081 70.3840141 60.2249469 68.9227243 54.6917125 48.3442623 66.9920416 62.03669 69.939363 60.0739129 73.9028007 58.9759665 77.5259952 59.8978907 80.4341299 62.1078822 97.4737799 54.139901 86.3432733 70.2556589 85.4169801 72.8507426 91.5056083 71.2373196 94.4737799 70.1018833 99.5650873 70.1018833 107.010199 72.3228818 113.353593 79.1186706 116 91.4201465 98.5387479 92.5013273 94.4737799 91.5794031"></polygon>
        <ellipse id="Oval" stroke="#1D1D1B" stroke-width="0.95" fill="#1D1D1B" transform="translate(117.811236, 100.529774) rotate(-23.000000) translate(-117.811236, -100.529774) " cx="117.811236" cy="100.529774" rx="22.025" ry="29.525"></ellipse>
        <path d="M20.1501142,35.857665 C16.8969607,36.165065 15.862391,44.2230886 21.7355511,43.7184234 C54.4281327,40.9092362 32.9686541,34.5218516 44.6780334,47.4296122 C45.1910143,47.9950934 46.0836082,46.7640334 46.8426543,46.6443007 L46.8426543,40.092475 C50.6654496,39.0404662 59.49631,36.5374374 73.5721362,37.5894462 C81.4148123,38.1755975 88.5979445,39.0567996 93.1241914,40.2810623 C98.1912581,41.6516064 98.5056064,42.2043554 103.047632,44.8123365 C105.917132,46.4599718 109.771094,49.6654519 111.769448,52.2832315 C113.754614,54.8837347 116.22434,57.5146585 116.308802,56.8958702 C118.327333,42.1076138 105.143568,30.7244106 100.401217,27.9960345 C86.8783107,20.2160164 68.7790706,17.6842135 53.9259386,22.2702058 C51.4630518,23.0306367 54.8163598,30.325085 45.7769678,30.325085 C44.4384311,30.325085 43.9578857,21.2869649 43.2282956,22.3923403 L40.5813735,21.4347015 C38.2700703,24.3973595 41.4901564,31.2668132 40.5522394,31.2668132 C38.5523703,31.2668132 33.0497838,33.0576038 27.2817371,34.6025584 L20.1501142,35.857665 Z" id="Path-11" stroke="#1D1D1B" stroke-width="2.85" fill="#1D1D1B" stroke-linejoin="round" transform="translate(67.017332, 38.487296) rotate(-11.000000) translate(-67.017332, -38.487296) "></path>
    </g>
</svg>