<?xml version="1.0" encoding="UTF-8"?>
<svg width="159px" height="159px" viewBox="0 0 159 159" version="1.1" xmlns="http://www.w3.org/2000/svg" xmlns:xlink="http://www.w3.org/1999/xlink">
    <title>creature/wolf</title>
    <g id="creature/wolf" stroke="none" stroke-width="1" fill="none" fill-rule="evenodd">
        <path d="M42.0920029,16.2245166 C40.1223327,19.6989618 40.8132641,21.5666065 44.3916702,23.1212382 C44.3916702,20.3041205 44.7010425,17.9147873 44.3297958,15.6089242 C43.680114,11.685827 46.6294631,10.0685927 49.321002,8.39918962 C51.2184854,7.22017368 51.8062927,8.90001055 52.3631628,10.235533 C53.6625264,13.3030612 54.7968915,16.4436258 56.4056274,19.3650812 C57.0862464,20.596266 58.6434202,21.6083416 60.0459079,22.2343678 C64.4802441,24.216784 67.5327173,27.6807954 68.8423933,31.6456277 C71.1214358,38.5632168 75.380461,43.6340287 81.423533,47.9744768 C85.125688,50.635088 84.6100675,51.8245377 80.2066687,53.6400135 C79.8044847,53.8069539 79.4332379,54.0469305 78.9073051,54.3390761 C82.2382133,58.1369681 85.5381844,61.7783536 88.6731569,65.5345106 C89.7765847,66.8595993 90.7047016,68.3829296 91.3234462,69.947995 C93.4478025,75.3526876 96.7374612,79.5053278 101.934916,83.1258457 C115.43386,92.5162382 123.601288,105.224569 125.632833,121.073465 C125.777207,122.200312 126.653761,123.546268 127.643753,124.234897 C131.253096,126.739002 133.274328,129.410047 133.92401,134.073942 C134.542755,138.466558 131.222159,139.593405 129.788734,142.212282 C128.138748,145.227641 125.292523,146.510995 121.786304,146.928345 C120.342567,147.095286 118.981329,147.815216 117.537591,148.128229 C110.122969,149.745463 102.667097,150.893178 94.9740392,150.413224 C92.1587513,150.23585 89.2919015,150.966214 86.435364,150.997515 C80.6294774,151.060118 74.9060901,149.912403 68.9661422,150.632333 C65.6249215,151.028817 61.9743285,149.234208 58.4681093,148.430808 C58.2618611,148.378639 57.9421764,148.284735 57.8803019,148.149096 C56.1168799,143.53737 52.1775394,144.883327 48.5991333,145.133737 C46.7841492,145.258942 44.9382279,145.290244 43.1335563,145.133737 C42.3395007,145.071134 41.5248204,144.55988 40.8751386,144.069493 C39.7201487,143.20349 38.6889077,142.191414 37.0492346,140.772421 C36.6676755,136.818023 38.4723471,134.752137 43.5666775,134.334786 C49.774748,133.823531 50.8988007,133.23924 51.259735,127.552836 C51.7444182,120.040522 51.7031686,112.465605 51.3834839,104.932424 C51.2906722,102.522223 49.8572473,100.059853 48.6197581,97.816593 C45.041352,91.3163547 42.0404408,84.8161164 41.4629459,77.2620674 C40.9988875,71.0539746 42.0920029,65.471908 44.3194834,59.7437686 C46.4541521,54.2556059 44.8557287,48.6526718 43.5151154,43.1645091 C42.9582453,40.8899474 42.1435649,38.6153857 42.0301284,36.3095226 C41.7516934,30.8735288 40.2873312,25.844452 37.5751675,21.0344843 C37.0286098,20.0745775 36.781112,18.290403 37.3586069,17.6330755 C38.0598507,16.8296753 39.802648,16.8296753 42.0920029,16.2245166 M57.8803019,141.221074 C58.2206115,141.440183 58.560921,141.669726 58.9012305,141.888835 C59.6334116,140.782855 60.1284072,139.38473 61.1596482,138.643932 C62.3765125,137.77793 64.0780601,137.527519 65.5424222,136.943228 C65.9342938,136.786722 66.367415,136.484142 66.5633508,136.150262 C68.1308371,133.458349 70.6367526,132.801022 73.7304754,132.759287 C76.4735764,132.727985 81.0832235,129.17007 81.4854074,127.291991 C82.1763389,124.161861 82.9394572,121.042164 83.6819507,117.859864 C78.0823123,114.176743 71.9979906,110.18061 65.6764836,106.027969 C65.5011726,107.050479 65.2742996,107.864313 65.2433624,108.678147 C64.9649273,115.261855 64.5936806,121.855998 64.5524309,128.45014 C64.5318061,132.060224 63.6140017,135.096451 60.7059022,137.610989 C59.5509123,138.602197 58.8084188,140.010756 57.8803019,141.221074" id="Fill-1" fill="#1D1D1B"></path>
    </g>
</svg>