<?xml version="1.0" encoding="UTF-8"?>
<svg width="159px" height="159px" viewBox="0 0 159 159" version="1.1" xmlns="http://www.w3.org/2000/svg" xmlns:xlink="http://www.w3.org/1999/xlink">
    <title>creature/wolves</title>
    <g id="creature/wolves" stroke="none" stroke-width="1" fill="none" fill-rule="evenodd" stroke-linejoin="round">
        <path d="M110,32 C109.578283,40.7326531 108.07344,42.4028571 102,43 C103.634602,37.5112245 105.195314,34.5412245 110,32 Z M116.681634,126.324497 C116.080618,125.392197 115.67757,127.161915 115.442853,125.983263 C114.840652,122.959189 114.208814,119.917413 113.897045,116.834332 C113.550897,113.41639 112.845563,112.072207 112.499415,108.654265 C112.331083,106.990287 112.226765,105.255501 112.233878,103.588572 C112.242176,101.847885 112.85149,100.183907 113.176299,98.5169777 C113.42287,97.2601429 113.539043,95.956103 113.931422,94.7582745 C114.368848,93.4232563 115.070626,92.6355218 116.133963,92.1531451 C117.194928,91.6707683 117.517367,90.5540736 117.693997,89.2500337 C118.299755,84.7670278 118.85928,80.2840219 118.369695,75.7095562 C118.302125,75.0796637 118.398146,73.9069129 118.615081,73.8302046 C119.878755,73.3758559 119.434217,72.2827636 119.289594,71.3961935 C118.648273,67.4722726 117.822024,63.588181 117.301617,59.6421327 C116.362752,52.5303949 122.115573,48.9322815 125.281873,42.6953125 C126.419892,40.453072 127.161813,38.889263 126.969772,36.5526123 C126.942507,36.2089004 126.052743,35.477227 125.867815,35.4432983 C125.534707,35.384292 125.144245,35.283319 124.895303,35.5591736 C124.596574,35.8910842 124.293219,36.3005015 124.047834,36.7253471 C123.387546,37.8656444 121.216774,40.8155342 120.537519,41.9396048 C120.39171,41.8289679 114.514657,37.0825504 114.368848,36.9733887 C113.964614,34.673617 116.563091,32.0743756 117.475876,30.1433935 C118.986122,26.9452504 118.568849,23.9433034 116.986291,21.0387168 C116.228798,19.6491178 115.150051,19.6505929 114.368848,21.0623194 C113.482142,22.6628661 112.636926,24.3017669 111.830829,25.9672205 C110.845732,28.0073643 109.565461,29.5341531 107.728035,30.3764685 C105.660634,31.3249952 103.087045,33.0314146 102,35.4432983 C101.120406,37.3964078 100.233707,37.893694 99.330405,39.8291016 C98.8099985,40.9443212 97.8931467,43.610975 96.9298968,44.269043 C92.614401,47.2172804 87.4479318,50.3925781 84.3788376,52.9897461 C91.0100098,53.512207 96.7591939,56.2227159 99.330405,55.5131648 C98.1022931,57.51938 96.5683387,59.6332818 94.9490329,60.139261 C94.3764673,60.3192303 93.7754511,60.5936098 93.3107601,61.0287815 C91.3085585,62.9037076 89.347847,63.3757582 87.3788376,65.3082155 C86.961564,65.7183095 86.5739264,66.1756085 86.0902685,66.7007649 C86.7280331,67.1846168 87.1856115,67.5327541 87.9253236,68.0933143 C87.0812931,68.8397443 86.4862041,69.479963 85.8128764,69.9431627 C81.8286254,72.6840067 85.2411572,74.1724413 80.8111823,75.2861858 C80.2718088,75.4219004 79.7419189,75.7080811 79.2511483,76.0281904 C78.6110128,76.4456602 78.0574141,77.2437208 77.3947552,77.3956621 C73.4401402,78.2999341 73.0406482,79.2941907 69.0469138,79.8193471 C63.9933994,80.4861186 56.6365826,78.8528732 52.9178693,83.4140625 C51.4716372,85.1886779 46.7852691,84.4515377 45.1386983,85.9355469 C43.0333636,87.8326004 41.3006386,89.2500337 37.4423828,89.2500337 C32.1111211,89.2500337 27.2010171,91.0630031 23.7644377,92.8744975 C24.5420838,94.5915816 24.4010169,95.032654 22.922778,95.6094408 C22.6975451,95.6979503 22.468756,95.7761337 22.2387813,95.8469413 C18.2000003,97.0919749 17.5681629,98.5877853 15.4284506,102.960154 C14.9554615,103.927858 14.6010161,104.985547 14,106.481357 C18.8496194,103.584146 20.8044036,106.068313 25.1158349,108.163037 C26.5253185,108.847511 27.9620672,109.472978 29.4201536,109.970106 C31.0631682,110.530666 32.5864536,110.396427 33.7007636,108.403488 C34.2093157,107.49184 34.9348027,106.773438 35.5168518,105.919322 C36.3834057,104.647735 37.4337021,103.98834 38.7803576,103.678556 C40.8216787,103.209456 42.839291,102.50433 44.8237112,101.732823 C47.8098249,100.571873 50.490096,98.6644935 52.9178693,95.8882457 C52.6404772,98.5936859 51.3341266,106.55659 48.8470815,107.907835 C45.8099941,109.560012 47.6875552,110.967313 44.6386134,112.587037 C44.0648623,112.892395 43.4863694,112.587194 43.2113482,113.284944 C42.4834904,115.133317 41.9915344,116.124781 41.2790873,117.98348 C39.3231176,123.084578 41.2865383,120.136995 39.3151579,125.229241 C38.7580029,126.67047 38.3170207,127.181032 37.7266735,128.948272 C41,130.751709 45.4728871,130.063334 45.6447754,129.904017 C46.6950718,128.930413 46.6418128,127.214124 46.4355469,125.229241 C46.229281,123.244358 45.3673177,123.538395 45.7525844,122.156172 C46.6535159,118.912299 45.183914,122.162604 47.1386983,119.781698 C48.5090625,118.113294 47.3547866,117.549627 49.3297232,117.467018 C51.813212,117.362281 52.2433561,117.25902 54.7185468,116.919734 C59.776803,116.22936 57.724813,116.515383 62.7427642,115.472446 C63.9483528,117.334096 64.0834925,123.704675 63.9329422,126.244898 C63.8985645,126.82316 64.177142,127.600568 64.5221039,128.013613 C66.2303174,130.056707 64.0143989,127.99949 65.7617318,129.992429 C68.1148226,132.671316 70.3624095,134.45494 71.6118593,138.223969 C71.7031378,138.498349 74.3597003,140.22116 74.5517409,140.225586 C77.1300646,140.268366 77.3256616,138.904017 80.1185492,138.904017 C79.6763815,137.576375 79.4567871,136.730424 78.7844238,135.868142 C78.1120605,135.005859 77.2948297,134.502565 76.5,133.751709 C76.2199701,133.487172 74.894332,131.994376 74.5517409,131.702295 C72.2128754,129.713781 74.271131,132.247317 72.7976338,129.220292 C71.6714694,126.905769 71.586118,121.63255 72.6518252,119.197064 C73.7282012,116.73945 75.0606314,113.635874 76.9549584,112.160716 C77.3449669,112.092859 77.7314191,112.005825 78.1226131,111.949769 C83.2911147,111.198913 80.7309116,111.937967 85.8745191,111.471817 C86.6296419,111.40396 87.3895065,111.429038 88.141073,111.545575 C88.9874744,111.678339 89.9002603,111.991073 90.3803619,112.868792 C90.9718946,113.947133 90.7087278,115.380987 90.9173645,116.593567 C91.168677,118.049548 91.1817168,119.56011 91.2291342,121.054445 C91.3298963,124.271765 91.32634,129.494986 91.2326905,132.712306 C91.2030546,133.744917 91.176975,134.53091 90.9173645,136.751709 C90.657754,138.972508 90.9697266,140.597184 91.4479318,140.996952 C93.9681691,140.996952 94.0303199,142.032356 96.4900999,141.99784 C96.77579,141.992527 97.612708,141.868613 97.7620729,141.597184 C98.5183812,140.220862 97.7620729,138.539181 97.3400577,137.606201 C96.9180424,136.673221 96.4877291,134.315803 96.479431,133.821625 C96.4154175,129.998015 96.3371787,124.168504 96.4900999,120.346369 C96.5683387,118.412437 96.7046639,116.48293 96.9298968,114.568174 C97.0436986,113.604896 97.1788383,112.646043 97.3400577,111.693091 C97.4716411,110.921583 97.4929789,109.9111 97.7620729,109.200074 C97.8841729,108.874064 98.112962,108.587883 98.3986522,108.528877 C98.523123,108.502324 98.6523355,108.520026 98.7779917,108.540678 C100.181548,108.763427 101.706019,109.098288 102.987476,109.872746 C103.891963,110.42003 104.311608,111.377407 104.797637,112.438046 C106.243869,115.587509 107.558517,116.831382 108.729728,120.153438 C109.314148,121.811516 109.863005,123.488771 110.376299,125.183728 C110.639466,126.055546 110.883666,123.933265 111.137349,124.809509 C111.366138,125.598719 111.786968,126.252214 112.025241,127.042899 C112.222023,127.690493 112.310931,128.379392 112.386799,129.065341 C112.489932,129.996166 112.570542,130.931416 112.629813,131.868142 C112.668933,132.467056 112.699754,133.080722 112.888238,133.633906 C113.075537,134.18709 113.454877,134.681268 113.933793,134.762402 C114.445902,134.849436 115.029136,134.766827 115.544801,134.808132 C116.840483,134.914343 118.232185,134.788955 119.531423,134.69897 C119.653523,134.691594 119.78155,134.679793 119.883497,134.597184 C120.04116,134.470321 120.094505,134.219544 120.128883,133.990894 C120.317367,132.745861 119.460297,132.253843 119.289594,131.005859 C119.216097,130.467427 118.727697,129.378074 118.369695,129.065341 C117.397638,128.211224 117.471135,127.550353 116.681634,126.324497 Z" id="Fill-1" stroke="#1D1D1B" stroke-width="4" fill="#1D1D1B"></path>
    </g>
</svg>