<?xml version="1.0" encoding="UTF-8"?>
<svg width="200px" height="200px" viewBox="0 0 200 200" version="1.1" xmlns="http://www.w3.org/2000/svg" xmlns:xlink="http://www.w3.org/1999/xlink">
    <title>region/underdeep</title>
    <g id="region/underdeep" stroke="none" stroke-width="1" fill="none" fill-rule="evenodd" stroke-linejoin="round">
        <path d="M40,52.6894531 L40,72.6894531 C40,78.2123006 44.4771525,82.6894531 50,82.6894531 L150,82.6894531 C155.522847,82.6894531 160,78.2123006 160,72.6894531 L160,52.6894531 C160,47.1666056 155.522847,42.6894531 150,42.6894531 L50,42.6894531 C44.4771525,42.6894531 40,47.1666056 40,52.6894531 Z" id="Stroke-4" stroke="#1D1D1B" stroke-width="5" fill="#E8782C"></path>
        <path d="M40,127 L40,147 C40,152.522847 44.4771525,157 50,157 L150,157 C155.522847,157 160,152.522847 160,147 L160,127 C160,121.477153 155.522847,117 150,117 L50,117 C44.4771525,117 40,121.477153 40,127 Z" id="Stroke-4-Copy" stroke="#1D1D1B" stroke-width="5" fill="#5CB2DE" transform="translate(100.000000, 137.000000) scale(1, -1) translate(-100.000000, -137.000000) "></path>
    </g>
</svg>