<?xml version="1.0" encoding="UTF-8"?>
<svg width="159px" height="159px" viewBox="0 0 159 159" version="1.1" xmlns="http://www.w3.org/2000/svg" xmlns:xlink="http://www.w3.org/1999/xlink">
    <title>creature/dragon</title>
    <g id="creature/dragon" stroke="none" stroke-width="1" fill="none" fill-rule="evenodd">
        <path d="M141.623573,60.5238636 C140.921493,59.6205846 140.247496,58.6986812 139.498611,57.8326508 C136.896233,54.8062005 134.359384,51.6959407 130.830261,49.6565788 C127.797274,47.9058936 126.196531,49.6193302 125.999949,52.4502253 C125.868894,54.3219684 126.477363,56.0540292 127.450915,57.6370956 C129.978403,61.7251316 132.983306,65.4127449 136.531152,68.6906235 C140.593856,72.4527341 143.748536,76.8666955 145.265029,82.2770576 C146.772161,87.6781074 145.939026,92.7439197 142.971567,97.4838066 C142.625208,98.0239116 142.260126,98.5453923 141.895044,99.0854972 C141.876322,99.1134337 141.810795,99.1227459 141.689101,99.1693066 C141.689101,98.9923757 141.651656,98.8247569 141.689101,98.6850746 C142.522236,96.1149198 142.990289,93.5261407 142.241404,90.834928 C141.623573,88.6372594 139.919859,87.3614942 137.879146,87.6594831 C136.418819,87.8643505 135.089547,89.0842428 134.911687,90.6114362 C134.67766,92.520428 134.537244,94.4387319 134.481077,96.3570358 C134.359384,100.379887 133.694748,104.318928 132.674391,108.202097 C131.644674,112.150451 130.137541,115.912561 128.031301,119.413931 C124.380484,125.485457 119.503367,130.262592 113.044229,133.36354 C112.080039,133.819835 111.069044,134.183009 109.908271,134.657929 C110.039326,134.387877 110.058048,134.294755 110.114215,134.22957 C113.493561,130.560581 115.749578,126.27699 116.966517,121.462606 C117.097572,120.913188 117.116294,120.261338 116.975878,119.721233 C116.601435,118.305785 115.24408,117.784304 113.746309,118.380282 C112.548093,118.864514 111.677513,119.730545 110.94735,120.74557 C105.770678,128.018363 98.8622095,133.084175 90.671274,136.529672 C86.9268463,138.112739 83.0794469,139.304694 79.1103536,140.170725 C74.5702351,141.167125 69.9739502,141.772416 65.3121378,141.912098 C61.8859865,142.014532 58.4504741,142.13559 55.0430449,141.586172 C52.1691967,141.120565 49.2953485,140.599084 46.4683056,139.937921 C40.8797473,138.634219 35.5813822,136.576233 30.7042652,133.540471 C24.5446817,129.713175 19.7705365,124.647363 16.8030776,118.007796 C15.3240287,114.711293 14.4347271,111.247172 14.1258118,107.624743 C13.8730629,104.654166 13.9666736,101.739461 14.7249202,98.8526934 C15.8388875,94.5970386 17.8702395,90.8163036 20.8845037,87.6129223 C24.5353207,83.7390659 28.9911896,81.0478531 33.9151119,79.1016127 C38.2399259,77.3974884 42.7426001,76.4383364 47.3669682,76.0658502 C47.7507721,76.0379137 48.1252148,75.9727287 48.4996576,75.9261679 C48.6026294,76.0379137 48.7056011,76.1589718 48.7992118,76.2707176 C48.5839072,76.3359027 48.3124362,76.354527 48.1626591,76.4942093 C47.6478003,76.9598171 47.0954972,77.4068005 46.7116934,77.974842 C45.7381422,79.3902895 46.4683056,81.1782233 48.1532981,81.5972702 C50.0629562,82.0815023 52.0006975,81.9325078 53.9197166,81.643831 C56.1570122,81.3085934 58.3943077,80.9081708 60.6316032,80.5449967 C60.874991,80.5077481 61.1371009,80.563621 61.4085719,80.740552 C61.0622124,80.9454194 60.7064917,81.1316625 60.3882154,81.3737785 C59.2180818,82.2398089 59.1338321,83.7297537 60.3039658,84.5771598 C61.015407,85.0800162 61.8953475,85.489751 62.7565659,85.6480577 C64.1607262,85.8994858 65.611692,85.9646709 67.0439355,86.0205438 C70.3951983,86.150914 73.7651832,86.0671046 77.0134741,87.0635052 C77.7155543,87.2683726 78.352107,87.6687953 79.026104,87.9760964 C78.9886597,88.0785301 78.9512155,88.1809638 78.9137712,88.2833975 C78.3989124,88.2182124 77.8840536,88.134403 77.3598337,88.0878422 C76.0118398,87.9388478 74.6544847,87.9760964 73.465629,88.7117566 C72.9601312,89.0097456 72.4920778,89.4939776 72.2112457,90.0061462 C71.2564166,91.7288948 70.4700868,93.544765 70.6198639,95.5561905 C70.7041136,96.6457126 71.1440838,97.6979862 71.303222,98.7781961 C71.6402205,101.087611 72.0989129,103.406337 72.1269961,105.725064 C72.1550793,108.155536 71.705748,110.586009 70.1050051,112.616058 C69.8990616,112.867487 69.683757,113.109603 69.4216471,113.407592 C69.3186753,113.239973 69.2344257,113.165476 69.2250646,113.081666 C68.1204585,104.439986 63.1684529,98.6943867 55.5017373,95.0067734 C52.609167,93.6099501 49.5480974,92.7532319 46.3934171,92.1200053 C42.7051558,91.3750329 38.9794503,91.0304832 35.2443837,91.0584197 C30.6387377,91.0863561 26.3700902,92.4273065 22.8596893,95.528254 C21.2870297,96.9157651 20.3415617,98.7502597 19.9109525,100.82687 C19.0122899,105.091837 20.4070892,108.788763 22.7567175,112.224948 C25.396539,116.08018 28.9724674,118.920387 33.0070882,121.22049 C37.0229869,123.51128 41.4226894,124.805669 45.9253636,125.80207 C50.4935653,126.807783 55.1272945,127.105771 59.7797459,126.789158 C63.8986163,126.500481 67.9519592,125.71826 71.8929693,124.405247 C75.637397,123.157418 79.1477979,121.453293 82.3680057,119.19044 C87.5727601,115.549387 91.2984656,110.828125 92.833681,104.607605 C93.6200108,101.422848 93.7417047,98.1822182 93.3017344,94.8950275 C92.1316008,86.3185328 87.7318983,79.5951569 81.2446774,74.1196098 C77.5938604,71.0465987 73.3252129,69.0537975 68.7195669,67.7500958 C64.5164469,66.55814 60.2290772,66.073908 55.8855411,65.9621621 C55.4736541,65.9528499 55.0617671,65.8690405 54.64988,65.8783527 C54.2754373,65.8876649 53.9009945,65.9714742 53.5265517,66.0273472 C53.5265517,67.461419 53.1989143,67.7407837 51.7011433,67.7873445 C50.3625104,67.8245931 49.1736546,67.4148583 48.0035209,66.8281925 C47.6571614,66.6512616 47.1610247,66.5674522 46.786582,66.6605737 C44.1561215,67.3124246 41.5443833,68.001524 38.932645,68.71856 C35.0384402,69.7894578 31.0599858,70.3481871 27.0534483,70.7113611 C25.4059001,70.8603556 23.767713,71.1117838 22.1201648,71.1769689 C20.7534487,71.2421539 19.3586494,71.1583446 18.4693479,69.8173942 C18.3663761,69.6683998 18.076183,69.6311511 17.8608784,69.5939025 C17.0558264,69.4542202 16.5409676,69.081734 16.2507745,68.2622644 C15.7452768,66.8468168 15.6329439,65.5151787 16.3631073,64.1183554 C16.6720226,63.5223775 16.6064951,62.7587808 16.8124386,62.0976178 C17.4770746,59.9930708 18.759541,58.26101 20.2573121,56.6779436 C22.2044145,54.6106452 24.4042657,52.8413358 26.744533,51.2210208 C27.3810857,50.7833495 27.8116949,50.0476893 28.3546369,49.4703357 C28.5886636,49.2282197 28.8694957,49.0233522 29.1690499,48.7719241 C29.4966873,49.9452556 29.8056026,50.0011285 30.6668209,49.1723467 C31.4625118,48.40875 32.2301195,47.6079047 33.0726157,46.8908688 C33.6717241,46.3787002 33.8495844,46.4811339 33.9431951,47.2447306 C33.9993615,47.7662113 34.2427493,47.9058936 34.6546364,47.6172168 C35.0290791,47.3564765 35.3567166,47.0212389 35.7030761,46.72325 C36.4145174,46.0900234 37.1165976,45.4474847 37.8373999,44.8328825 C37.9965381,44.7118245 38.2680091,44.6466394 38.4552304,44.683888 C38.5488411,44.7025123 38.5769243,45.0284378 38.6330908,45.2053687 C38.6986182,45.4381726 38.7547847,45.8479074 38.8483954,45.8665317 C39.1198664,45.8944682 39.4662259,45.8292831 39.6908916,45.6802886 C40.2806389,45.2705538 40.8048588,44.7676974 41.3852451,44.3486505 C42.321352,43.659551 42.4804902,43.7247361 42.6021841,44.8701311 C43.3978749,44.9260041 44.0344276,44.8142582 44.6148139,44.1065344 C47.5635507,40.5120426 51.0552295,37.588026 55.5298205,36.0328961 C56.8778145,35.5579762 58.3287802,35.3531088 59.7329406,35.0364955 C60.1916329,34.9340618 60.3133268,35.1482414 60.2946047,35.5859127 C60.2477994,37.3179735 59.4895528,38.7706696 58.4504741,40.0743713 C57.4488397,41.3315123 56.3067893,42.4769073 55.2302663,43.6688631 C55.6983198,43.6688631 56.2319007,43.6781753 56.7561206,43.659551 C59.7235795,43.5571173 62.6910384,43.4733079 65.6584973,43.3336256 C67.3996562,43.2498162 69.1033707,42.9332029 70.4326426,41.6574377 C71.705748,40.4375454 72.0708297,38.5844265 71.3406663,36.9827359 C70.1050051,34.3101474 67.8583486,32.6712082 65.1717217,31.8331142 C62.0544857,30.8739623 58.8342779,30.1848628 55.6327923,29.5609484 C53.7699395,29.1977744 51.8321982,29.113965 49.9319012,29.0674042 C46.9925255,28.992907 44.0531498,29.113965 41.1231351,29.0301556 C38.9607282,28.9649705 36.8076823,28.7414788 34.6546364,28.5272992 C33.7278905,28.4248655 32.6700897,28.2293102 32.3330912,27.251534 C32.0054538,26.2737577 32.6420065,25.4263516 33.2691982,24.6906914 C34.6359142,23.0890007 36.4519617,22.1764095 38.4177862,21.5618073 C41.8813817,20.4722852 45.3262552,19.3082658 48.8366561,18.3956746 C52.9555265,17.334089 57.1586465,16.6449895 61.4085719,16.2818154 C67.7928211,15.7417105 74.1583481,15.9931386 80.4770697,16.9057298 C84.7550783,17.5296442 89.0330869,18.3118652 93.2549291,19.2523929 C99.1711248,20.584031 104.872016,22.623393 110.376324,25.2028599 C114.832193,27.2887826 119.054036,29.7565037 122.94824,32.7363932 C128.003218,36.6009375 132.328032,41.1638935 135.716739,46.5649433 C138.422088,50.8857832 140.45344,55.4952999 141.623573,60.5238636" id="Path" fill="#1D1D1B"></path>
        <path d="M28.1299712,59.0991039 C27.147059,59.2015376 26.3232849,59.2480984 25.5088719,59.3877807 C24.2170443,59.6019603 22.9158557,59.9371978 22.2886641,61.2129631 C21.9797488,61.8368775 22.0171931,62.6190985 21.8954992,63.3268222 C22.5882183,63.4013195 23.3371038,63.671372 23.9830176,63.5223775 C26.0424528,63.0567697 27.3998078,61.6133857 28.5231361,59.9371978 C28.64483,59.7602669 28.6729132,59.4250293 28.5886636,59.2387862 C28.5324972,59.1084161 28.1954987,59.1177282 28.1299712,59.0991039" id="Path" fill="#1D1D1B"></path>
        <path d="M141.623573,60.5238636 C140.921493,59.6205846 140.247496,58.6986812 139.498611,57.8326508 C136.896233,54.8062005 134.359384,51.6959407 130.830261,49.6565788 C127.797274,47.9058936 126.196531,49.6193302 125.999949,52.4502253 C125.868894,54.3219684 126.477363,56.0540292 127.450915,57.6370956 C129.978403,61.7251316 132.983306,65.4127449 136.531152,68.6906235 C140.593856,72.4527341 143.748536,76.8666955 145.265029,82.2770576 C146.772161,87.6781074 145.939026,92.7439197 142.971567,97.4838066 C142.625208,98.0239116 142.260126,98.5453923 141.895044,99.0854972 C141.876322,99.1134337 141.810795,99.1227459 141.689101,99.1693066 C141.689101,98.9923757 141.651656,98.8247569 141.689101,98.6850746 C142.522236,96.1149198 142.990289,93.5261407 142.241404,90.834928 C141.623573,88.6372594 139.919859,87.3614942 137.879146,87.6594831 C136.418819,87.8643505 135.089547,89.0842428 134.911687,90.6114362 C134.67766,92.520428 134.537244,94.4387319 134.481077,96.3570358 C134.359384,100.379887 133.694748,104.318928 132.674391,108.202097 C131.644674,112.150451 130.137541,115.912561 128.031301,119.413931 C124.380484,125.485457 119.503367,130.262592 113.044229,133.36354 C112.080039,133.819835 111.069044,134.183009 109.908271,134.657929 C110.039326,134.387877 110.058048,134.294755 110.114215,134.22957 C113.493561,130.560581 115.749578,126.27699 116.966517,121.462606 C117.097572,120.913188 117.116294,120.261338 116.975878,119.721233 C116.601435,118.305785 115.24408,117.784304 113.746309,118.380282 C112.548093,118.864514 111.677513,119.730545 110.94735,120.74557 C105.770678,128.018363 98.8622095,133.084175 90.671274,136.529672 C86.9268463,138.112739 83.0794469,139.304694 79.1103536,140.170725 C74.5702351,141.167125 69.9739502,141.772416 65.3121378,141.912098 C61.8859865,142.014532 58.4504741,142.13559 55.0430449,141.586172 C52.1691967,141.120565 49.2953485,140.599084 46.4683056,139.937921 C40.8797473,138.634219 35.5813822,136.576233 30.7042652,133.540471 C24.5446817,129.713175 19.7705365,124.647363 16.8030776,118.007796 C15.3240287,114.711293 14.4347271,111.247172 14.1258118,107.624743 C13.8730629,104.654166 13.9666736,101.739461 14.7249202,98.8526934 C15.8388875,94.5970386 17.8702395,90.8163036 20.8845037,87.6129223 C24.5353207,83.7390659 28.9911896,81.0478531 33.9151119,79.1016127 C38.2399259,77.3974884 42.7426001,76.4383364 47.3669682,76.0658502 C47.7507721,76.0379137 48.1252148,75.9727287 48.4996576,75.9261679 C48.6026294,76.0379137 48.7056011,76.1589718 48.7992118,76.2707176 C48.5839072,76.3359027 48.3124362,76.354527 48.1626591,76.4942093 C47.6478003,76.9598171 47.0954972,77.4068005 46.7116934,77.974842 C45.7381422,79.3902895 46.4683056,81.1782233 48.1532981,81.5972702 C50.0629562,82.0815023 52.0006975,81.9325078 53.9197166,81.643831 C56.1570122,81.3085934 58.3943077,80.9081708 60.6316032,80.5449967 C60.874991,80.5077481 61.1371009,80.563621 61.4085719,80.740552 C61.0622124,80.9454194 60.7064917,81.1316625 60.3882154,81.3737785 C59.2180818,82.2398089 59.1338321,83.7297537 60.3039658,84.5771598 C61.015407,85.0800162 61.8953475,85.489751 62.7565659,85.6480577 C64.1607262,85.8994858 65.611692,85.9646709 67.0439355,86.0205438 C70.3951983,86.150914 73.7651832,86.0671046 77.0134741,87.0635052 C77.7155543,87.2683726 78.352107,87.6687953 79.026104,87.9760964 C78.9886597,88.0785301 78.9512155,88.1809638 78.9137712,88.2833975 C78.3989124,88.2182124 77.8840536,88.134403 77.3598337,88.0878422 C76.0118398,87.9388478 74.6544847,87.9760964 73.465629,88.7117566 C72.9601312,89.0097456 72.4920778,89.4939776 72.2112457,90.0061462 C71.2564166,91.7288948 70.4700868,93.544765 70.6198639,95.5561905 C70.7041136,96.6457126 71.1440838,97.6979862 71.303222,98.7781961 C71.6402205,101.087611 72.0989129,103.406337 72.1269961,105.725064 C72.1550793,108.155536 71.705748,110.586009 70.1050051,112.616058 C69.8990616,112.867487 69.683757,113.109603 69.4216471,113.407592 C69.3186753,113.239973 69.2344257,113.165476 69.2250646,113.081666 C68.1204585,104.439986 63.1684529,98.6943867 55.5017373,95.0067734 C52.609167,93.6099501 49.5480974,92.7532319 46.3934171,92.1200053 C42.7051558,91.3750329 38.9794503,91.0304832 35.2443837,91.0584197 C30.6387377,91.0863561 26.3700902,92.4273065 22.8596893,95.528254 C21.2870297,96.9157651 20.3415617,98.7502597 19.9109525,100.82687 C19.0122899,105.091837 20.4070892,108.788763 22.7567175,112.224948 C25.396539,116.08018 28.9724674,118.920387 33.0070882,121.22049 C37.0229869,123.51128 41.4226894,124.805669 45.9253636,125.80207 C50.4935653,126.807783 55.1272945,127.105771 59.7797459,126.789158 C63.8986163,126.500481 67.9519592,125.71826 71.8929693,124.405247 C75.637397,123.157418 79.1477979,121.453293 82.3680057,119.19044 C87.5727601,115.549387 91.2984656,110.828125 92.833681,104.607605 C93.6200108,101.422848 93.7417047,98.1822182 93.3017344,94.8950275 C92.1316008,86.3185328 87.7318983,79.5951569 81.2446774,74.1196098 C77.5938604,71.0465987 73.3252129,69.0537975 68.7195669,67.7500958 C64.5164469,66.55814 60.2290772,66.073908 55.8855411,65.9621621 C55.4736541,65.9528499 55.0617671,65.8690405 54.64988,65.8783527 C54.2754373,65.8876649 53.9009945,65.9714742 53.5265517,66.0273472 C53.5265517,67.461419 53.1989143,67.7407837 51.7011433,67.7873445 C50.3625104,67.8245931 49.1736546,67.4148583 48.0035209,66.8281925 C47.6571614,66.6512616 47.1610247,66.5674522 46.786582,66.6605737 C44.1561215,67.3124246 41.5443833,68.001524 38.932645,68.71856 C35.0384402,69.7894578 31.0599858,70.3481871 27.0534483,70.7113611 C25.4059001,70.8603556 23.767713,71.1117838 22.1201648,71.1769689 C20.7534487,71.2421539 19.3586494,71.1583446 18.4693479,69.8173942 C18.3663761,69.6683998 18.076183,69.6311511 17.8608784,69.5939025 C17.0558264,69.4542202 16.5409676,69.081734 16.2507745,68.2622644 C15.7452768,66.8468168 15.6329439,65.5151787 16.3631073,64.1183554 C16.6720226,63.5223775 16.6064951,62.7587808 16.8124386,62.0976178 C17.4770746,59.9930708 18.759541,58.26101 20.2573121,56.6779436 C22.2044145,54.6106452 24.4042657,52.8413358 26.744533,51.2210208 C27.3810857,50.7833495 27.8116949,50.0476893 28.3546369,49.4703357 C28.5886636,49.2282197 28.8694957,49.0233522 29.1690499,48.7719241 C29.4966873,49.9452556 29.8056026,50.0011285 30.6668209,49.1723467 C31.4625118,48.40875 32.2301195,47.6079047 33.0726157,46.8908688 C33.6717241,46.3787002 33.8495844,46.4811339 33.9431951,47.2447306 C33.9993615,47.7662113 34.2427493,47.9058936 34.6546364,47.6172168 C35.0290791,47.3564765 35.3567166,47.0212389 35.7030761,46.72325 C36.4145174,46.0900234 37.1165976,45.4474847 37.8373999,44.8328825 C37.9965381,44.7118245 38.2680091,44.6466394 38.4552304,44.683888 C38.5488411,44.7025123 38.5769243,45.0284378 38.6330908,45.2053687 C38.6986182,45.4381726 38.7547847,45.8479074 38.8483954,45.8665317 C39.1198664,45.8944682 39.4662259,45.8292831 39.6908916,45.6802886 C40.2806389,45.2705538 40.8048588,44.7676974 41.3852451,44.3486505 C42.321352,43.659551 42.4804902,43.7247361 42.6021841,44.8701311 C43.3978749,44.9260041 44.0344276,44.8142582 44.6148139,44.1065344 C47.5635507,40.5120426 51.0552295,37.588026 55.5298205,36.0328961 C56.8778145,35.5579762 58.3287802,35.3531088 59.7329406,35.0364955 C60.1916329,34.9340618 60.3133268,35.1482414 60.2946047,35.5859127 C60.2477994,37.3179735 59.4895528,38.7706696 58.4504741,40.0743713 C57.4488397,41.3315123 56.3067893,42.4769073 55.2302663,43.6688631 C55.6983198,43.6688631 56.2319007,43.6781753 56.7561206,43.659551 C59.7235795,43.5571173 62.6910384,43.4733079 65.6584973,43.3336256 C67.3996562,43.2498162 69.1033707,42.9332029 70.4326426,41.6574377 C71.705748,40.4375454 72.0708297,38.5844265 71.3406663,36.9827359 C70.1050051,34.3101474 67.8583486,32.6712082 65.1717217,31.8331142 C62.0544857,30.8739623 58.8342779,30.1848628 55.6327923,29.5609484 C53.7699395,29.1977744 51.8321982,29.113965 49.9319012,29.0674042 C46.9925255,28.992907 44.0531498,29.113965 41.1231351,29.0301556 C38.9607282,28.9649705 36.8076823,28.7414788 34.6546364,28.5272992 C33.7278905,28.4248655 32.6700897,28.2293102 32.3330912,27.251534 C32.0054538,26.2737577 32.6420065,25.4263516 33.2691982,24.6906914 C34.6359142,23.0890007 36.4519617,22.1764095 38.4177862,21.5618073 C41.8813817,20.4722852 45.3262552,19.3082658 48.8366561,18.3956746 C52.9555265,17.334089 57.1586465,16.6449895 61.4085719,16.2818154 C67.7928211,15.7417105 74.1583481,15.9931386 80.4770697,16.9057298 C84.7550783,17.5296442 89.0330869,18.3118652 93.2549291,19.2523929 C99.1711248,20.584031 104.872016,22.623393 110.376324,25.2028599 C114.832193,27.2887826 119.054036,29.7565037 122.94824,32.7363932 C128.003218,36.6009375 132.328032,41.1638935 135.716739,46.5649433 C138.422088,50.8857832 140.45344,55.4952999 141.623573,60.5238636 Z" id="Path" stroke="#EACB8C" stroke-width="0.24"></path>
        <path d="M28.1299712,59.0991039 C27.147059,59.2015376 26.3232849,59.2480984 25.5088719,59.3877807 C24.2170443,59.6019603 22.9158557,59.9371978 22.2886641,61.2129631 C21.9797488,61.8368775 22.0171931,62.6190985 21.8954992,63.3268222 C22.5882183,63.4013195 23.3371038,63.671372 23.9830176,63.5223775 C26.0424528,63.0567697 27.3998078,61.6133857 28.5231361,59.9371978 C28.64483,59.7602669 28.6729132,59.4250293 28.5886636,59.2387862 C28.5324972,59.1084161 28.1954987,59.1177282 28.1299712,59.0991039 Z" id="Path" stroke="#EACB8C" stroke-width="0.24"></path>
    </g>
</svg>