<?xml version="1.0" encoding="UTF-8"?>
<svg width="159px" height="159px" viewBox="0 0 159 159" version="1.1" xmlns="http://www.w3.org/2000/svg" xmlns:xlink="http://www.w3.org/1999/xlink">
    <title>creature/drake</title>
    <g id="creature/drake" stroke="none" stroke-width="1" fill="none" fill-rule="evenodd">
        <path d="M98.4427399,88.1975672 C98.6036323,88.6185086 98.6740228,89.0895621 98.9254171,89.4403466 C101.389082,92.9281467 101.348859,96.6564848 99.9209389,100.45498 C99.2974808,102.108678 98.3321264,103.622063 97.6986126,105.275761 C97.3768278,106.117644 97.2058796,107.169997 97.3868835,108.041947 C97.6583895,109.435063 98.2114571,110.788089 98.7645247,112.111047 C99.9309946,114.927346 98.9656402,116.901761 95.9086846,117.613353 C94.2193144,118.004227 92.4897211,118.244765 90.7802393,118.545437 C90.7199047,118.375056 90.65957,118.204675 90.6092912,118.034294 C90.4282872,118.455236 90.0461678,118.896222 90.0964466,119.287096 C90.4282872,121.71252 88.4975784,122.303843 86.9892122,123.306084 C85.9031885,124.03772 84.9177225,124.919693 83.9423123,125.791643 C82.5847827,127.004355 81.5792052,128.457605 79.6484964,129.149152 C78.1099628,129.710407 76.9937718,131.394172 75.6362421,132.50666 C74.9021706,133.08796 74.0373739,133.508902 73.2329119,134 C72.7602905,133.077938 72.2273344,132.185943 71.8351592,131.243836 C71.6843226,130.873007 71.8552707,130.371886 71.8954938,129.570093 C68.7681478,130.572334 65.8218057,131.514441 62.6039577,132.536728 C62.8955752,131.414217 63.1168022,130.612424 63.4486428,129.369645 C60.9950337,130.061191 58.8129305,130.682581 56.4699349,131.34406 C56.2989867,130.722671 56.1582059,130.201505 55.9872577,129.60016 C55.3336323,129.720429 54.7101743,129.840698 53.6744295,130.031124 C54.7705089,126.98431 55.8665884,124.418572 58.3704764,122.353955 C61.7089937,119.597791 65.540244,118.725841 69.6027771,117.904003 C72.1871113,117.382837 74.791557,116.109991 75.8474134,113.173423 C76.0485289,112.622191 76.3300906,111.890554 76.7826005,111.680084 C79.6283848,110.357125 78.9546479,107.641051 79.7591099,104.884887 C78.6328631,105.746814 77.9088473,106.237913 77.2451661,106.80919 C74.1479874,109.475153 70.1659005,109.42504 66.5156542,110.447327 C62.3324518,111.619949 59.818508,108.372687 56.3392098,107.250177 C51.8845015,111.279187 47.2387334,115.31822 42.7940809,119.577746 C41.6175552,120.710279 41.0946549,122.504291 40.2298582,123.977586 C39.9080734,124.528819 39.6265117,125.260455 39.1136672,125.511015 C37.0120102,126.553346 34.8902417,127.6057 32.6679154,128.327314 C31.7126168,128.638008 30.4355333,128.337336 29.4199001,127.986551 C27.4288566,127.284983 25.7998211,127.535543 24.5327934,129.319533 C23.8288891,128.678098 23.2255426,128.126865 22.6221961,127.575633 C20.7719335,125.8618 18.8311689,126.854019 16.9105159,127.375184 C15.653544,127.715946 14.4267395,128.126865 12.8580386,128.607941 C13.2301023,127.475408 13.511664,126.623503 13.8636161,125.541082 C11.3597281,126.4431 8.99662096,127.295005 6.62345805,128.14691 C6.42234255,127.996574 6.21117128,127.846238 6,127.695901 C6.804462,125.982069 7.18658145,123.74707 8.50388798,122.66465 C11.0580548,120.569965 14.0144527,118.816043 17.0613525,117.553218 C18.6602208,116.881717 20.8121566,117.583286 22.7126981,117.60333 C25.0758052,117.633398 26.875789,116.52091 28.8064978,115.187929 C31.9740669,113.003042 33.5829909,109.986296 35.1215245,106.638809 C36.4589426,103.742332 38.4600418,101.116459 40.3103044,98.4805642 C40.9337625,97.5985917 42.0197862,97.0573814 43.1158657,96.1754089 C42.0197862,94.3713744 41.1851569,92.3368243 39.7672926,90.853507 C38.1282012,89.1196293 38.228759,87.0449896 37.6857471,85.0605516 C37.4444085,84.1785791 37.0019544,83.2865843 36.438831,82.5749929 C35.503644,81.4023704 34.4075645,80.3600393 33.1304811,79.0170358 C32.5573019,79.3177083 31.5115013,79.7987841 30.5562026,80.4101514 C26.9864025,82.6852394 25.9908808,82.5749929 23.0344829,79.4780669 C24.1406182,78.1551082 23.9495584,77.0827099 22.6322519,75.8699978 C22.1596305,75.439034 21.5965071,74.3766581 21.7976226,74.0659632 C23.0043156,72.221839 21.8780688,70.8387459 21.1842203,69.3053165 C20.6914873,68.2128734 20.3998699,67.0402509 20.0076946,65.9077181 C19.6959656,64.9956784 19.5250174,63.9834146 18.9920613,63.2116887 C18.2680455,62.1593352 17.2725238,61.3274748 16.0959981,63.3920921 C15.4222612,62.3998731 14.8893051,61.6381697 14.2960144,60.776242 C13.5317755,61.6181248 13.0289868,62.1693576 12.4558076,62.8007697 C11.9127957,62.3497611 11.4602858,61.9789317 11.0278875,61.6181248 C10.3239833,61.8486404 9.66030211,62.0791559 8.74522659,62.3798283 C8.74522659,61.066892 8.75528236,59.8441575 8.74522659,58.621423 C8.72511504,56.0757298 8.71505926,53.5300366 8.68489194,50.9843434 C8.63461306,46.9954225 9.34857309,43.20695 11.5206205,39.7792843 C11.8725726,39.2280516 12.214469,38.6066619 12.7172577,38.2157877 C15.1406995,36.3516187 16.2568905,36.5921566 17.9563165,39.2080067 C19.9674715,42.3249775 23.1048733,43.7180931 26.5137811,42.796031 C27.6299721,42.4853362 28.7159958,41.8238568 29.6310713,41.102243 C30.8880432,40.1000016 32.2355171,39.8394188 33.5327121,40.5810775 C35.4533651,41.6634982 36.9516756,40.4708309 38.5304322,39.9195981 C40.7024797,39.1578947 42.5929654,39.3282757 44.5940646,40.5510102 C46.6655543,41.8238568 49.0286614,42.6456948 51.1303184,43.8984966 C54.187274,45.7225759 57.3045642,47.466476 59.5671136,50.393021 C60.3816314,51.4453744 61.6184917,52.2171003 62.7749059,52.958759 C65.942475,54.9933091 69.1200999,56.9977919 72.3681153,58.9020506 C75.3949035,60.6659955 78.4216918,62.9110163 82.212719,61.066892 C83.6104717,60.3853679 84.716607,59.1225437 86.1143597,58.4209747 C87.2104392,57.8597195 88.5478573,57.4387781 89.7646061,57.4888902 C93.1936254,57.6392264 96.6327004,57.9499212 99.7902138,59.5735523 C100.293003,59.8241127 101.006963,59.9844713 101.519807,59.8341351 C105.713065,58.6414678 109.514148,60.1648748 113.264952,61.59808 C114.783374,62.1693576 116.080569,63.3419801 117.448155,64.2941094 C117.739772,64.4945577 117.960999,64.9154991 118.051501,65.276306 C119.047023,69.1650027 119.972154,73.0737442 121.038066,76.9423961 C121.188903,77.4936289 122.003421,78.2252651 122.556488,78.2553324 C127.966495,78.5960944 133.286,79.6183807 138.092661,82.0337825 C141.481457,83.7275705 144.608803,86.1529947 147.444532,88.6986879 C151.336117,92.1965105 154.855638,96.1152744 158.51594,99.8736797 C158.817613,100.174352 159.018729,100.585271 159,101.296863 C156.907016,100.003971 154.855638,98.6509452 152.723814,97.4382331 C148.017711,94.7622485 143.33172,92.0361518 138.515003,89.5906828 C137.258032,88.9492483 135.528438,89.2198535 134.010016,89.1196293 C132.320646,89.0093828 130.62122,88.9592707 128.921794,88.8891138 C128.760902,89.0594948 128.589953,89.2298759 128.429061,89.3902345 C130.017874,91.8557484 131.59663,94.3112399 133.165331,96.7867762 C133.436837,97.2077176 133.829012,97.6887934 133.808901,98.1297797 C133.607785,102.048544 135.005538,105.676658 136.383179,109.154435 C137.780932,112.682325 137.147418,116.200192 137.42898,119.71806 C137.479259,120.289337 137.609984,120.960839 137.368645,121.411848 C136.946303,122.223663 136.403291,123.175793 135.649108,123.546622 C134.331801,124.198079 132.833491,124.498751 131.385459,124.829491 C130.822336,124.959782 130.068152,124.98985 129.605587,124.709222 C126.59891,122.895165 123.511787,122.895165 120.263772,123.957541 C119.559868,124.198079 118.131947,124.147967 117.991167,123.82725 C117.659326,123.055524 117.64927,121.943036 117.950944,121.13122 C118.956521,118.415146 120.314051,115.89952 122.224648,113.634454 C124.125189,111.389434 123.330783,108.412777 123.763181,105.776882 C124.286082,102.579732 122.757604,100.41489 120.032489,98.8213262 C117.64927,97.4181883 115.135326,96.0651623 113.154339,94.1909709 C111.887311,92.9983036 110.680618,92.1965105 109.071694,91.6953898 C105.572284,90.6029466 102.103042,89.4102793 98.4427399,88.1975672" id="Fill-1" fill="#1D1D1B"></path>
    </g>
</svg>